JonovaCondensed-Italic.ufo
<glyph name="exclam" format="2">
  <advance width="552"/>
  <unicode hex="0021"/>
  <outline>
    <contour>
      <point x="376" y="391" type="line"/>
      <point x="461" y="1434" type="line"/>
      <point x="488" y="1464" type="line"/>
      <point x="612" y="1464" type="line"/>
      <point x="630" y="1434" type="line"/>
      <point x="437" y="391" type="line"/>
    </contour>
    <contour>
      <point x="284" y="83" type="qcurve"/>
      <point x="284" y="106"/>
      <point x="297" y="147"/>
      <point x="320" y="178"/>
      <point x="351" y="196"/>
      <point x="368" y="196" type="qcurve"/>
      <point x="386" y="196"/>
      <point x="416" y="178"/>
      <point x="440" y="147"/>
      <point x="453" y="106"/>
      <point x="453" y="83" type="qcurve"/>
      <point x="453" y="60"/>
      <point x="440" y="19"/>
      <point x="416" y="-12"/>
      <point x="386" y="-30"/>
      <point x="368" y="-30" type="qcurve"/>
      <point x="351" y="-30"/>
      <point x="320" y="-12"/>
      <point x="297" y="19"/>
      <point x="284" y="60"/>
    </contour>
  </outline>
</glyph>
<glyph name="numbersign" format="2">
  <advance width="840"/>
  <unicode hex="0023"/>
  <outline>
    <contour>
      <point x="248" y="1004" type="line"/>
      <point x="416" y="1004" type="line"/>
      <point x="543" y="1464" type="line"/>
      <point x="614" y="1446" type="line"/>
      <point x="493" y="1004" type="line"/>
      <point x="697" y="1004" type="line"/>
      <point x="824" y="1464" type="line"/>
      <point x="895" y="1446" type="line"/>
      <point x="773" y="1004" type="line"/>
      <point x="941" y="1004" type="line"/>
      <point x="914" y="902" type="line"/>
      <point x="746" y="902" type="line"/>
      <point x="645" y="533" type="line"/>
      <point x="813" y="533" type="line"/>
      <point x="785" y="431" type="line"/>
      <point x="617" y="431" type="line"/>
      <point x="492" y="-30" type="line"/>
      <point x="420" y="-13" type="line"/>
      <point x="541" y="431" type="line"/>
      <point x="337" y="431" type="line"/>
      <point x="212" y="-30" type="line"/>
      <point x="140" y="-13" type="line"/>
      <point x="261" y="431" type="line"/>
      <point x="93" y="431" type="line"/>
      <point x="121" y="533" type="line"/>
      <point x="288" y="533" type="line"/>
      <point x="389" y="902" type="line"/>
      <point x="221" y="902" type="line"/>
    </contour>
    <contour>
      <point x="466" y="902" type="line"/>
      <point x="365" y="533" type="line"/>
      <point x="569" y="533" type="line"/>
      <point x="670" y="902" type="line"/>
    </contour>
  </outline>
</glyph>
<glyph name="dollar" format="2">
  <advance width="840"/>
  <unicode hex="0024"/>
  <outline>
    <contour>
      <point x="734" y="1207" type="line"/>
      <point x="710" y="1279"/>
      <point x="637" y="1352"/>
      <point x="589" y="1362" type="qcurve"/>
      <point x="519" y="839" type="line"/>
      <point x="567" y="807"/>
      <point x="651" y="735"/>
      <point x="714" y="645"/>
      <point x="750" y="530"/>
      <point x="750" y="455" type="qcurve"/>
      <point x="750" y="363"/>
      <point x="706" y="198"/>
      <point x="620" y="69"/>
      <point x="490" y="-17"/>
      <point x="404" y="-30" type="qcurve"/>
      <point x="389" y="-152" type="line"/>
      <point x="310" y="-170" type="line"/>
      <point x="328" y="-30" type="line"/>
      <point x="283" y="-29"/>
      <point x="209" y="-2"/>
      <point x="149" y="41"/>
      <point x="102" y="96"/>
      <point x="86" y="125" type="qcurve"/>
      <point x="176" y="227" type="line"/>
      <point x="184" y="202"/>
      <point x="212" y="149"/>
      <point x="254" y="104"/>
      <point x="308" y="74"/>
      <point x="341" y="72" type="qcurve"/>
      <point x="419" y="663" type="line"/>
      <point x="373" y="691"/>
      <point x="296" y="759"/>
      <point x="242" y="845"/>
      <point x="211" y="951"/>
      <point x="211" y="1016" type="qcurve"/>
      <point x="211" y="1095"/>
      <point x="258" y="1247"/>
      <point x="342" y="1370"/>
      <point x="458" y="1453"/>
      <point x="526" y="1464" type="qcurve"/>
      <point x="542" y="1586" type="line"/>
      <point x="620" y="1604" type="line"/>
      <point x="602" y="1464" type="line"/>
      <point x="640" y="1462"/>
      <point x="707" y="1433"/>
      <point x="764" y="1390"/>
      <point x="809" y="1336"/>
      <point x="824" y="1309" type="qcurve"/>
    </contour>
    <contour>
      <point x="450" y="893" type="qcurve"/>
      <point x="512" y="1362" type="line"/>
      <point x="485" y="1360"/>
      <point x="424" y="1316"/>
      <point x="373" y="1242"/>
      <point x="340" y="1144"/>
      <point x="340" y="1087" type="qcurve"/>
      <point x="340" y="1055"/>
      <point x="354" y="1005"/>
      <point x="383" y="961"/>
      <point x="423" y="918"/>
    </contour>
    <contour>
      <point x="490" y="613" type="qcurve"/>
      <point x="418" y="72" type="line"/>
      <point x="456" y="79"/>
      <point x="530" y="118"/>
      <point x="587" y="188"/>
      <point x="621" y="292"/>
      <point x="621" y="365" type="qcurve"/>
      <point x="621" y="439"/>
      <point x="554" y="556"/>
    </contour>
  </outline>
</glyph>
<glyph name="quotesingle" format="2">
  <advance width="432"/>
  <unicode hex="0027"/>
  <outline>
    <contour>
      <point x="304" y="901" type="line"/>
      <point x="329" y="1434" type="line"/>
      <point x="356" y="1464" type="line"/>
      <point x="463" y="1464" type="line"/>
      <point x="481" y="1434" type="line"/>
      <point x="365" y="901" type="line"/>
    </contour>
  </outline>
</glyph>
<glyph name="parenleft" format="2">
  <advance width="552"/>
  <unicode hex="0028"/>
  <outline>
    <contour>
      <point x="684" y="1464" type="line"/>
      <point x="587" y="1372"/>
      <point x="434" y="1117"/>
      <point x="329" y="821"/>
      <point x="273" y="498"/>
      <point x="273" y="338" type="qcurve"/>
      <point x="273" y="142"/>
      <point x="365" y="-164"/>
      <point x="453" y="-278" type="qcurve"/>
      <point x="425" y="-384" type="line"/>
      <point x="294" y="-256"/>
      <point x="159" y="100"/>
      <point x="159" y="339" type="qcurve"/>
      <point x="159" y="534"/>
      <point x="232" y="901"/>
      <point x="368" y="1221"/>
      <point x="561" y="1482"/>
      <point x="683" y="1570" type="qcurve"/>
    </contour>
  </outline>
</glyph>
<glyph name="plus" format="2">
  <advance width="864"/>
  <unicode hex="002B"/>
  <outline>
    <contour>
      <point x="123" y="426" type="line" name="dv01"/>
      <point x="139" y="548" type="line" name="dv02"/>
      <point x="458" y="548" type="line"/>
      <point x="515" y="974" type="line" name="at01"/>
      <point x="606" y="974" type="line"/>
      <point x="550" y="548" type="line" name="sv01"/>
      <point x="869" y="548" type="line"/>
      <point x="854" y="426" type="line" name="sv02"/>
      <point x="534" y="426" type="line"/>
      <point x="478" y="0" type="line" name="ab01"/>
      <point x="386" y="0" type="line"/>
      <point x="443" y="426" type="line"/>
    </contour>
  </outline>
</glyph>
<glyph name="hyphen" format="2">
  <advance width="552"/>
  <unicode hex="002D"/>
  <outline>
    <contour>
      <point x="198" y="548" type="line" name="hr00"/>
      <point x="627" y="548" type="line" name="dv02"/>
      <point x="611" y="426" type="line" name="dv01"/>
      <point x="182" y="426" type="line"/>
    </contour>
  </outline>
</glyph>
<glyph name="period" format="2">
  <advance width="432"/>
  <unicode hex="002E"/>
  <outline>
    <contour>
      <point x="149" y="93" type="qcurve"/>
      <point x="149" y="118"/>
      <point x="163" y="163"/>
      <point x="188" y="197"/>
      <point x="221" y="216"/>
      <point x="241" y="216" type="qcurve"/>
      <point x="260" y="216"/>
      <point x="293" y="197"/>
      <point x="318" y="163"/>
      <point x="333" y="118"/>
      <point x="333" y="93" type="qcurve"/>
      <point x="333" y="68"/>
      <point x="318" y="23"/>
      <point x="293" y="-10"/>
      <point x="260" y="-30"/>
      <point x="241" y="-30" type="qcurve"/>
      <point x="221" y="-30"/>
      <point x="188" y="-10"/>
      <point x="163" y="23"/>
      <point x="149" y="68"/>
    </contour>
  </outline>
</glyph>
<glyph name="slash" format="2">
  <advance width="432"/>
  <unicode hex="002F"/>
  <outline>
    <contour>
      <point x="633" y="1569" type="line"/>
      <point x="31" y="-152" type="line"/>
      <point x="-55" y="-134" type="line"/>
      <point x="547" y="1586" type="line"/>
    </contour>
  </outline>
</glyph>
<glyph name="six" format="2">
  <advance width="840"/>
  <unicode hex="0036"/>
  <guideline x="0" y="2095" angle="0"/>
  <guideline x="0" y="1286" angle="3"/>
  <guideline x="1822" y="0" angle="90"/>
  <guideline x="424" y="0" angle="90"/>
  <guideline x="814" y="0" angle="100"/>
  <guideline x="623" y="0" angle="80"/>
  <outline>
    <contour>
      <point x="803" y="1362" type="line" name="sv01"/>
      <point x="701" y="1362"/>
      <point x="531" y="1261"/>
      <point x="400" y="1077"/>
      <point x="311" y="819"/>
      <point x="290" y="661" type="qcurve" name="sh03"/>
      <point x="297" y="661" type="line"/>
      <point x="323" y="709"/>
      <point x="386" y="780"/>
      <point x="452" y="827"/>
      <point x="519" y="849"/>
      <point x="551" y="849" type="qcurve" name="dv02"/>
      <point x="614" y="849"/>
      <point x="713" y="799"/>
      <point x="782" y="709"/>
      <point x="819" y="582"/>
      <point x="819" y="504" type="qcurve" name="sh04"/>
      <point x="819" y="387"/>
      <point x="753" y="191"/>
      <point x="644" y="49"/>
      <point x="506" y="-30"/>
      <point x="434" y="-30" type="qcurve" name="ab01"/>
      <point x="378" y="-30"/>
      <point x="275" y="28"/>
      <point x="196" y="144"/>
      <point x="149" y="319"/>
      <point x="149" y="437" type="qcurve" name="sh01"/>
      <point x="149" y="556"/>
      <point x="184" y="800"/>
      <point x="255" y="1028"/>
      <point x="364" y="1229"/>
      <point x="512" y="1378"/>
      <point x="701" y="1464"/>
      <point x="816" y="1464" type="qcurve" name="sh05"/>
    </contour>
    <contour>
      <point x="537" y="747" type="qcurve" name="dv01"/>
      <point x="494" y="747"/>
      <point x="421" y="712"/>
      <point x="364" y="651"/>
      <point x="321" y="570"/>
      <point x="293" y="478"/>
      <point x="278" y="381"/>
      <point x="278" y="335" type="qcurve" name="sh02"/>
      <point x="278" y="276"/>
      <point x="299" y="179"/>
      <point x="342" y="110"/>
      <point x="405" y="72"/>
      <point x="448" y="72" type="qcurve" name="sv02"/>
      <point x="504" y="72"/>
      <point x="593" y="145"/>
      <point x="656" y="267"/>
      <point x="690" y="424"/>
      <point x="690" y="507" type="qcurve" name="ah01"/>
      <point x="690" y="560"/>
      <point x="671" y="648"/>
      <point x="634" y="712"/>
      <point x="576" y="747"/>
    </contour>
  </outline>
</glyph>
<glyph name="seven" format="2">
  <advance width="840"/>
  <unicode hex="0037"/>
  <outline>
    <contour>
      <point x="299" y="1434" type="line"/>
      <point x="930" y="1434" type="line"/>
      <point x="928" y="1414" type="line"/>
      <point x="314" y="-30" type="line"/>
      <point x="193" y="0" type="line"/>
      <point x="779" y="1302" type="line"/>
      <point x="781" y="1312" type="line"/>
      <point x="280" y="1292" type="line"/>
    </contour>
  </outline>
</glyph>
<glyph name="semicolon" format="2">
  <advance width="432"/>
  <unicode hex="003B"/>
  <outline>
    <contour>
      <point x="155" y="79" type="line"/>
      <point x="258" y="216" type="line"/>
      <point x="274" y="216" type="line"/>
      <point x="292" y="186"/>
      <point x="317" y="73"/>
      <point x="317" y="6" type="qcurve"/>
      <point x="317" y="-64"/>
      <point x="281" y="-184"/>
      <point x="218" y="-284"/>
      <point x="137" y="-367"/>
      <point x="92" y="-400" type="qcurve"/>
      <point x="37" y="-327" type="line"/>
      <point x="61" y="-303"/>
      <point x="112" y="-245"/>
      <point x="154" y="-176"/>
      <point x="181" y="-97"/>
      <point x="181" y="-52" type="qcurve"/>
      <point x="181" y="-20"/>
      <point x="163" y="41"/>
      <point x="152" y="59" type="qcurve"/>
    </contour>
    <contour>
      <point x="262" y="881" type="qcurve"/>
      <point x="262" y="906"/>
      <point x="276" y="951"/>
      <point x="302" y="984"/>
      <point x="335" y="1004"/>
      <point x="354" y="1004" type="qcurve"/>
      <point x="373" y="1004"/>
      <point x="407" y="984"/>
      <point x="431" y="951"/>
      <point x="446" y="906"/>
      <point x="446" y="881" type="qcurve"/>
      <point x="446" y="855"/>
      <point x="431" y="811"/>
      <point x="407" y="777"/>
      <point x="373" y="758"/>
      <point x="354" y="758" type="qcurve"/>
      <point x="335" y="758"/>
      <point x="302" y="777"/>
      <point x="276" y="811"/>
      <point x="262" y="855"/>
    </contour>
  </outline>
</glyph>
<glyph name="greater" format="2">
  <advance width="864"/>
  <unicode hex="003E"/>
  <outline>
    <contour>
      <point x="679" y="498" type="line"/>
      <point x="238" y="876" type="line"/>
      <point x="272" y="1004" type="line"/>
      <point x="813" y="538" type="line"/>
      <point x="800" y="436" type="line"/>
      <point x="134" y="-30" type="line"/>
      <point x="134" y="98" type="line"/>
      <point x="677" y="478" type="line"/>
    </contour>
  </outline>
</glyph>
<glyph name="question" format="2">
  <advance width="768"/>
  <unicode hex="003F"/>
  <guideline x="0" y="1243" angle="315"/>
  <guideline x="323" y="0" angle="90"/>
  <guideline x="174" y="0" angle="45"/>
  <outline>
    <contour>
      <point x="295" y="1309" type="line" name="hr00"/>
      <point x="434" y="1464"/>
      <point x="599" y="1464" type="qcurve" name="at01"/>
      <point x="638" y="1464"/>
      <point x="712" y="1434"/>
      <point x="770" y="1375"/>
      <point x="806" y="1286"/>
      <point x="806" y="1228" type="qcurve" name="dh04"/>
      <point x="806" y="1152"/>
      <point x="749" y="1029"/>
      <point x="665" y="924"/>
      <point x="566" y="830" name="hr01"/>
      <point x="482" y="737"/>
      <point x="425" y="637"/>
      <point x="425" y="578" type="qcurve" name="dh02"/>
      <point x="425" y="547"/>
      <point x="439" y="505"/>
      <point x="461" y="479"/>
      <point x="486" y="467"/>
      <point x="497" y="467" type="qcurve"/>
      <point x="482" y="365" type="line" name="sh01"/>
      <point x="455" y="365"/>
      <point x="401" y="396"/>
      <point x="359" y="451"/>
      <point x="332" y="528"/>
      <point x="332" y="575" type="qcurve" name="dh01"/>
      <point x="332" y="650"/>
      <point x="385" y="770"/>
      <point x="466" y="873"/>
      <point x="559" y="967"/>
      <point x="640" y="1062"/>
      <point x="693" y="1166"/>
      <point x="693" y="1229" type="qcurve" name="dh03"/>
      <point x="693" y="1260"/>
      <point x="674" y="1309"/>
      <point x="643" y="1343"/>
      <point x="601" y="1362"/>
      <point x="578" y="1362" type="qcurve" name="sv01"/>
      <point x="545" y="1362"/>
      <point x="488" y="1334"/>
      <point x="437" y="1290"/>
      <point x="392" y="1235"/>
      <point x="371" y="1207" type="qcurve" name="ih01"/>
    </contour>
    <contour>
      <point x="313" y="83" type="qcurve"/>
      <point x="313" y="106"/>
      <point x="326" y="147"/>
      <point x="350" y="178"/>
      <point x="380" y="196"/>
      <point x="398" y="196" type="qcurve" name="sv02"/>
      <point x="415" y="196"/>
      <point x="446" y="178"/>
      <point x="469" y="147"/>
      <point x="482" y="106"/>
      <point x="482" y="83" type="qcurve" name="sh02"/>
      <point x="482" y="60"/>
      <point x="469" y="19"/>
      <point x="446" y="-12"/>
      <point x="415" y="-30"/>
      <point x="398" y="-30" type="qcurve" name="ab01"/>
      <point x="380" y="-30"/>
      <point x="350" y="-12"/>
      <point x="326" y="19"/>
      <point x="313" y="60"/>
    </contour>
  </outline>
</glyph>
<glyph name="at" format="2">
  <advance width="1536"/>
  <unicode hex="0040"/>
  <guideline x="0" y="447" angle="0"/>
  <guideline x="1061" y="0" angle="135"/>
  <guideline x="981" y="0" angle="80"/>
  <outline>
    <contour>
      <point x="946" y="1310" type="qcurve" name="dv04"/>
      <point x="1077" y="1310"/>
      <point x="1280" y="1207"/>
      <point x="1417" y="1031"/>
      <point x="1488" y="800"/>
      <point x="1488" y="672" type="qcurve" name="dh06"/>
      <point x="1488" y="595"/>
      <point x="1463" y="436"/>
      <point x="1412" y="287"/>
      <point x="1336" y="155"/>
      <point x="1234" y="57"/>
      <point x="1107" y="0"/>
      <point x="1031" y="0" type="qcurve" name="ab01"/>
      <point x="1011" y="0" name="hr00"/>
      <point x="976" y="18"/>
      <point x="948" y="47"/>
      <point x="928" y="83"/>
      <point x="923" y="102" type="qcurve" name="sv01"/>
      <point x="916" y="102" type="line"/>
      <point x="895" y="81"/>
      <point x="844" y="44"/>
      <point x="788" y="16"/>
      <point x="731" y="0"/>
      <point x="703" y="0" type="qcurve" name="ab02"/>
      <point x="651" y="0"/>
      <point x="574" y="43"/>
      <point x="524" y="121"/>
      <point x="498" y="230"/>
      <point x="498" y="295" type="qcurve" name="dh03"/>
      <point x="498" y="365"/>
      <point x="526" y="507"/>
      <point x="575" y="638"/>
      <point x="645" y="751"/>
      <point x="729" y="834"/>
      <point x="825" y="882"/>
      <point x="876" y="882" type="qcurve" name="dv06"/>
      <point x="942" y="882"/>
      <point x="1029" y="814"/>
      <point x="1057" y="760" type="qcurve"/>
      <point x="1064" y="760" type="line"/>
      <point x="1089" y="852" type="line"/>
      <point x="1192" y="882" type="line" name="sv02"/>
      <point x="1214" y="882" type="line" name="ih01"/>
      <point x="1052" y="271" type="line"/>
      <point x="1049" y="260"/>
      <point x="1042" y="231"/>
      <point x="1035" y="202"/>
      <point x="1031" y="174"/>
      <point x="1031" y="164" type="qcurve"/>
      <point x="1031" y="139"/>
      <point x="1054" y="102"/>
      <point x="1083" y="102" type="qcurve" name="sv03"/>
      <point x="1142" y="102"/>
      <point x="1254" y="187"/>
      <point x="1343" y="336"/>
      <point x="1397" y="540"/>
      <point x="1397" y="659" type="qcurve" name="sh01"/>
      <point x="1397" y="767"/>
      <point x="1339" y="966"/>
      <point x="1223" y="1117"/>
      <point x="1049" y="1208"/>
      <point x="933" y="1208" type="qcurve" name="dv03"/>
      <point x="849" y="1208"/>
      <point x="685" y="1140"/>
      <point x="537" y="1019"/>
      <point x="412" y="852"/>
      <point x="320" y="654"/>
      <point x="269" y="432"/>
      <point x="269" y="317" type="qcurve" name="dh02"/>
      <point x="269" y="186"/>
      <point x="337" y="-43"/>
      <point x="459" y="-212"/>
      <point x="629" y="-310"/>
      <point x="732" y="-310" type="qcurve" name="dv02"/>
      <point x="833" y="-310"/>
      <point x="1024" y="-206"/>
      <point x="1124" y="-105" type="qcurve"/>
      <point x="1178" y="-192" type="line"/>
      <point x="1121" y="-252"/>
      <point x="1001" y="-335"/>
      <point x="882" y="-388"/>
      <point x="769" y="-412"/>
      <point x="719" y="-412" type="qcurve" name="dv01"/>
      <point x="598" y="-412"/>
      <point x="399" y="-303"/>
      <point x="256" y="-111"/>
      <point x="177" y="149"/>
      <point x="177" y="301" type="qcurve" name="dh01"/>
      <point x="177" y="435"/>
      <point x="236" y="690"/>
      <point x="342" y="914"/>
      <point x="488" y="1101"/>
      <point x="659" y="1235"/>
      <point x="848" y="1310"/>
    </contour>
    <contour>
      <point x="869" y="780" type="qcurve" name="dv05"/>
      <point x="834" y="780"/>
      <point x="765" y="743"/>
      <point x="703" y="677"/>
      <point x="650" y="588"/>
      <point x="611" y="485"/>
      <point x="590" y="372"/>
      <point x="590" y="316" type="qcurve" name="dh04"/>
      <point x="590" y="271"/>
      <point x="606" y="192"/>
      <point x="640" y="135"/>
      <point x="691" y="102"/>
      <point x="725" y="102" type="qcurve" name="sv04"/>
      <point x="761" y="102"/>
      <point x="832" y="142"/>
      <point x="894" y="211"/>
      <point x="947" y="303"/>
      <point x="985" y="406"/>
      <point x="1006" y="516"/>
      <point x="1006" y="569" type="qcurve" name="dh05"/>
      <point x="1006" y="611"/>
      <point x="992" y="687"/>
      <point x="959" y="746"/>
      <point x="908" y="780"/>
    </contour>
  </outline>
</glyph>
<glyph name="C" format="2">
  <advance width="1008"/>
  <unicode hex="0043"/>
  <anchor x="500" y="0" name="AccentBelow"/>
  <anchor x="450" y="0" name="AccentCedilla"/>
  <anchor x="550" y="1600" name="AccentDefault"/>
  <anchor x="400" y="712" name="AccentMiddle"/>
  <outline>
    <contour>
      <point x="1030" y="1112" type="line"/>
      <point x="1018" y="1149"/>
      <point x="972" y="1230"/>
      <point x="904" y="1298"/>
      <point x="813" y="1342"/>
      <point x="756" y="1342" type="qcurve"/>
      <point x="704" y="1342"/>
      <point x="595" y="1292"/>
      <point x="491" y="1197"/>
      <point x="399" y="1060"/>
      <point x="330" y="888"/>
      <point x="290" y="684"/>
      <point x="290" y="569" type="qcurve"/>
      <point x="290" y="450"/>
      <point x="341" y="272"/>
      <point x="425" y="152"/>
      <point x="533" y="92"/>
      <point x="591" y="92" type="qcurve"/>
      <point x="648" y="92"/>
      <point x="746" y="137"/>
      <point x="827" y="205"/>
      <point x="890" y="286"/>
      <point x="910" y="322" type="qcurve"/>
      <point x="998" y="204" type="line"/>
      <point x="955" y="153"/>
      <point x="866" y="68"/>
      <point x="765" y="5"/>
      <point x="647" y="-30"/>
      <point x="575" y="-30" type="qcurve"/>
      <point x="487" y="-30"/>
      <point x="331" y="52"/>
      <point x="214" y="206"/>
      <point x="146" y="427"/>
      <point x="146" y="566" type="qcurve"/>
      <point x="146" y="694"/>
      <point x="193" y="927"/>
      <point x="276" y="1127"/>
      <point x="392" y="1288"/>
      <point x="527" y="1402"/>
      <point x="679" y="1464"/>
      <point x="758" y="1464" type="qcurve"/>
      <point x="815" y="1464"/>
      <point x="919" y="1429"/>
      <point x="1009" y="1366"/>
      <point x="1086" y="1281"/>
      <point x="1118" y="1230" type="qcurve"/>
    </contour>
  </outline>
</glyph>
<glyph name="D" format="2">
  <advance width="1128"/>
  <unicode hex="0044"/>
  <outline>
    <contour>
      <point x="296" y="122" type="line"/>
      <point x="466" y="122" type="line"/>
      <point x="592" y="122"/>
      <point x="793" y="240"/>
      <point x="933" y="444"/>
      <point x="1008" y="717"/>
      <point x="1008" y="872" type="qcurve"/>
      <point x="1008" y="986"/>
      <point x="955" y="1152"/>
      <point x="854" y="1260"/>
      <point x="710" y="1312"/>
      <point x="618" y="1312" type="qcurve"/>
      <point x="454" y="1312" type="line"/>
    </contour>
    <contour>
      <point x="333" y="1434" type="line"/>
      <point x="653" y="1434" type="line"/>
      <point x="773" y="1434"/>
      <point x="959" y="1359"/>
      <point x="1086" y="1216"/>
      <point x="1152" y="1009"/>
      <point x="1152" y="877" type="qcurve"/>
      <point x="1152" y="760"/>
      <point x="1106" y="540"/>
      <point x="1019" y="345"/>
      <point x="897" y="182"/>
      <point x="746" y="65"/>
      <point x="569" y="0"/>
      <point x="472" y="0" type="qcurve"/>
      <point x="144" y="0" type="line"/>
    </contour>
  </outline>
</glyph>
<glyph name="F" format="2">
  <advance width="816"/>
  <unicode hex="0046"/>
  <anchor x="300" y="0" name="AccentBelow"/>
  <anchor x="400" y="1600" name="AccentDefault"/>
  <anchor x="350" y="712" name="AccentMiddle"/>
  <outline>
    <contour>
      <point x="326" y="1434" type="line"/>
      <point x="910" y="1434" type="line"/>
      <point x="891" y="1292" type="line"/>
      <point x="446" y="1312" type="line"/>
      <point x="383" y="839" type="line"/>
      <point x="754" y="839" type="line"/>
      <point x="737" y="717" type="line"/>
      <point x="368" y="717" type="line"/>
      <point x="273" y="0" type="line"/>
      <point x="137" y="0" type="line"/>
    </contour>
  </outline>
</glyph>
<glyph name="G" format="2">
  <advance width="1200"/>
  <unicode hex="0047"/>
  <anchor x="600" y="0" name="AccentBelow"/>
  <anchor x="650" y="1600" name="AccentDefault"/>
  <anchor x="500" y="712" name="AccentMiddle"/>
  <outline>
    <contour>
      <point x="759" y="717" type="line"/>
      <point x="1160" y="717" type="line"/>
      <point x="1092" y="206" type="line"/>
      <point x="996" y="86"/>
      <point x="768" y="-30"/>
      <point x="643" y="-30" type="qcurve"/>
      <point x="544" y="-30"/>
      <point x="369" y="57"/>
      <point x="237" y="217"/>
      <point x="161" y="443"/>
      <point x="161" y="582" type="qcurve"/>
      <point x="161" y="705"/>
      <point x="211" y="932"/>
      <point x="302" y="1128"/>
      <point x="428" y="1288"/>
      <point x="577" y="1402"/>
      <point x="746" y="1464"/>
      <point x="834" y="1464" type="qcurve"/>
      <point x="900" y="1464"/>
      <point x="1022" y="1427"/>
      <point x="1124" y="1364"/>
      <point x="1203" y="1279"/>
      <point x="1227" y="1230" type="qcurve"/>
      <point x="1139" y="1112" type="line"/>
      <point x="1117" y="1159"/>
      <point x="1058" y="1243"/>
      <point x="980" y="1306"/>
      <point x="884" y="1342"/>
      <point x="826" y="1342" type="qcurve"/>
      <point x="764" y="1342"/>
      <point x="640" y="1289"/>
      <point x="524" y="1192"/>
      <point x="422" y="1056"/>
      <point x="348" y="891"/>
      <point x="305" y="700"/>
      <point x="305" y="596" type="qcurve"/>
      <point x="305" y="488"/>
      <point x="356" y="303"/>
      <point x="450" y="168"/>
      <point x="581" y="92"/>
      <point x="659" y="92" type="qcurve"/>
      <point x="702" y="92"/>
      <point x="788" y="113"/>
      <point x="866" y="149"/>
      <point x="934" y="198"/>
      <point x="959" y="227" type="qcurve"/>
      <point x="1007" y="595" type="line"/>
      <point x="743" y="595" type="line"/>
    </contour>
  </outline>
</glyph>
<glyph name="K" format="2">
  <advance width="1008"/>
  <unicode hex="004B"/>
  <anchor x="400" y="0" name="AccentBelow"/>
  <anchor x="400" y="1600" name="AccentDefault"/>
  <anchor x="350" y="712" name="AccentMiddle"/>
  <outline>
    <contour>
      <point x="467" y="1464" type="line"/>
      <point x="369" y="729" type="line"/>
      <point x="377" y="729" type="line"/>
      <point x="1025" y="1464" type="line"/>
      <point x="1133" y="1434" type="line"/>
      <point x="602" y="829" type="line"/>
      <point x="977" y="0" type="line"/>
      <point x="816" y="-30" type="line"/>
      <point x="485" y="698" type="line"/>
      <point x="344" y="539" type="line"/>
      <point x="273" y="0" type="line"/>
      <point x="137" y="0" type="line"/>
      <point x="326" y="1434" type="line"/>
    </contour>
  </outline>
</glyph>
<glyph name="L" format="2">
  <advance width="816"/>
  <unicode hex="004C"/>
  <anchor x="350" y="0" name="AccentBelow"/>
  <anchor x="220" y="1600" name="AccentDefault"/>
  <anchor x="150" y="712" name="AccentMiddle"/>
  <outline>
    <contour>
      <point x="467" y="1464" type="line"/>
      <point x="289" y="122" type="line"/>
      <point x="758" y="142" type="line"/>
      <point x="739" y="0" type="line"/>
      <point x="137" y="0" type="line"/>
      <point x="326" y="1434" type="line"/>
    </contour>
  </outline>
</glyph>
<glyph name="N" format="2">
  <advance width="1128"/>
  <unicode hex="004E"/>
  <anchor x="450" y="0" name="AccentBelow"/>
  <anchor x="550" y="1600" name="AccentDefault"/>
  <anchor x="500" y="712" name="AccentMiddle"/>
  <outline>
    <contour>
      <point x="414" y="1464" type="line"/>
      <point x="940" y="306" type="line"/>
      <point x="947" y="306" type="line"/>
      <point x="1100" y="1464" type="line"/>
      <point x="1189" y="1434" type="line"/>
      <point x="999" y="0" type="line"/>
      <point x="907" y="0" type="line"/>
      <point x="381" y="1159" type="line"/>
      <point x="374" y="1159" type="line"/>
      <point x="221" y="0" type="line"/>
      <point x="129" y="0" type="line"/>
      <point x="318" y="1434" type="line"/>
    </contour>
  </outline>
</glyph>
<glyph name="O" format="2">
  <advance width="1200"/>
  <unicode hex="004F"/>
  <anchor x="500" y="0" name="AccentBelow"/>
  <anchor x="600" y="1600" name="AccentDefault"/>
  <anchor x="520" y="712" name="AccentMiddle"/>
  <outline>
    <contour>
      <point x="786" y="1464" type="qcurve"/>
      <point x="874" y="1464"/>
      <point x="1034" y="1381"/>
      <point x="1157" y="1226"/>
      <point x="1229" y="1003"/>
      <point x="1229" y="864" type="qcurve"/>
      <point x="1229" y="736"/>
      <point x="1179" y="504"/>
      <point x="1091" y="305"/>
      <point x="971" y="144"/>
      <point x="832" y="31"/>
      <point x="680" y="-30"/>
      <point x="603" y="-30" type="qcurve"/>
      <point x="515" y="-30"/>
      <point x="355" y="53"/>
      <point x="233" y="208"/>
      <point x="160" y="430"/>
      <point x="160" y="570" type="qcurve"/>
      <point x="160" y="695"/>
      <point x="207" y="925"/>
      <point x="292" y="1124"/>
      <point x="409" y="1286"/>
      <point x="548" y="1401"/>
      <point x="704" y="1464"/>
    </contour>
    <contour>
      <point x="777" y="1342" type="qcurve"/>
      <point x="717" y="1342"/>
      <point x="600" y="1287"/>
      <point x="495" y="1186"/>
      <point x="406" y="1045"/>
      <point x="341" y="872"/>
      <point x="304" y="672"/>
      <point x="304" y="564" type="qcurve"/>
      <point x="304" y="444"/>
      <point x="357" y="266"/>
      <point x="443" y="149"/>
      <point x="554" y="92"/>
      <point x="612" y="92" type="qcurve"/>
      <point x="668" y="92"/>
      <point x="781" y="143"/>
      <point x="886" y="239"/>
      <point x="977" y="377"/>
      <point x="1046" y="549"/>
      <point x="1085" y="755"/>
      <point x="1085" y="870" type="qcurve"/>
      <point x="1085" y="990"/>
      <point x="1032" y="1167"/>
      <point x="946" y="1284"/>
      <point x="835" y="1342"/>
    </contour>
  </outline>
</glyph>
<glyph name="Q" format="2">
  <advance width="1200"/>
  <unicode hex="0051"/>
  <outline>
    <contour>
      <point x="794" y="1464" type="qcurve"/>
      <point x="881" y="1464"/>
      <point x="1040" y="1381"/>
      <point x="1159" y="1226"/>
      <point x="1229" y="1003"/>
      <point x="1229" y="864" type="qcurve"/>
      <point x="1229" y="724"/>
      <point x="1162" y="463"/>
      <point x="1047" y="245"/>
      <point x="897" y="80"/>
      <point x="815" y="36" type="qcurve"/>
      <point x="813" y="26" type="line"/>
      <point x="875" y="5"/>
      <point x="964" y="-54"/>
      <point x="1028" y="-127"/>
      <point x="1070" y="-211"/>
      <point x="1085" y="-257" type="qcurve"/>
      <point x="986" y="-388" type="line"/>
      <point x="974" y="-349"/>
      <point x="944" y="-266"/>
      <point x="902" y="-187"/>
      <point x="845" y="-115"/>
      <point x="766" y="-62"/>
      <point x="663" y="-30"/>
      <point x="596" y="-30" type="qcurve"/>
      <point x="508" y="-30"/>
      <point x="350" y="53"/>
      <point x="230" y="208"/>
      <point x="160" y="430"/>
      <point x="160" y="570" type="qcurve"/>
      <point x="160" y="698"/>
      <point x="210" y="931"/>
      <point x="299" y="1130"/>
      <point x="419" y="1290"/>
      <point x="560" y="1403"/>
      <point x="716" y="1464"/>
    </contour>
    <contour>
      <point x="777" y="1342" type="qcurve"/>
      <point x="720" y="1342"/>
      <point x="605" y="1291"/>
      <point x="500" y="1195"/>
      <point x="410" y="1057"/>
      <point x="342" y="884"/>
      <point x="304" y="679"/>
      <point x="304" y="564" type="qcurve"/>
      <point x="304" y="444"/>
      <point x="357" y="266"/>
      <point x="443" y="149"/>
      <point x="554" y="92"/>
      <point x="612" y="92" type="qcurve"/>
      <point x="665" y="92"/>
      <point x="777" y="143"/>
      <point x="882" y="239"/>
      <point x="975" y="377"/>
      <point x="1045" y="550"/>
      <point x="1085" y="755"/>
      <point x="1085" y="870" type="qcurve"/>
      <point x="1085" y="990"/>
      <point x="1032" y="1167"/>
      <point x="946" y="1284"/>
      <point x="835" y="1342"/>
    </contour>
  </outline>
</glyph>
<glyph name="S" format="2">
  <advance width="864"/>
  <unicode hex="0053"/>
  <anchor x="350" y="0" name="AccentBelow"/>
  <anchor x="300" y="0" name="AccentCedilla"/>
  <anchor x="450" y="1600" name="AccentDefault"/>
  <anchor x="350" y="712" name="AccentMiddle"/>
  <outline>
    <contour>
      <point x="840" y="1112" type="line"/>
      <point x="830" y="1143"/>
      <point x="790" y="1222"/>
      <point x="731" y="1293"/>
      <point x="654" y="1342"/>
      <point x="608" y="1342" type="qcurve"/>
      <point x="566" y="1342"/>
      <point x="498" y="1305"/>
      <point x="449" y="1241"/>
      <point x="422" y="1156"/>
      <point x="422" y="1107" type="qcurve"/>
      <point x="422" y="1071"/>
      <point x="441" y="1000"/>
      <point x="482" y="933"/>
      <point x="548" y="872"/>
      <point x="594" y="848" type="qcurve"/>
      <point x="719" y="782"/>
      <point x="840" y="572"/>
      <point x="840" y="441" type="qcurve"/>
      <point x="840" y="345"/>
      <point x="788" y="174"/>
      <point x="690" y="45"/>
      <point x="552" y="-30"/>
      <point x="466" y="-30" type="qcurve"/>
      <point x="397" y="-30"/>
      <point x="287" y="6"/>
      <point x="197" y="69"/>
      <point x="128" y="154"/>
      <point x="101" y="204" type="qcurve"/>
      <point x="190" y="322" type="line"/>
      <point x="206" y="273"/>
      <point x="259" y="189"/>
      <point x="328" y="127"/>
      <point x="412" y="92"/>
      <point x="460" y="92" type="qcurve"/>
      <point x="518" y="92"/>
      <point x="606" y="139"/>
      <point x="665" y="218"/>
      <point x="696" y="322"/>
      <point x="696" y="378" type="qcurve"/>
      <point x="696" y="466"/>
      <point x="600" y="602"/>
      <point x="495" y="657" type="qcurve"/>
      <point x="444" y="684"/>
      <point x="366" y="763"/>
      <point x="313" y="861"/>
      <point x="286" y="977"/>
      <point x="286" y="1041" type="qcurve"/>
      <point x="286" y="1132"/>
      <point x="335" y="1288"/>
      <point x="423" y="1400"/>
      <point x="545" y="1464"/>
      <point x="618" y="1464" type="qcurve"/>
      <point x="680" y="1464"/>
      <point x="782" y="1412"/>
      <point x="860" y="1338"/>
      <point x="914" y="1258"/>
      <point x="928" y="1230" type="qcurve"/>
    </contour>
  </outline>
</glyph>
<glyph name="U" format="2">
  <advance width="1128"/>
  <unicode hex="0055"/>
  <guideline x="0" y="562" angle="0"/>
  <guideline x="585" y="0" angle="90"/>
  <anchor x="450" y="0" name="AccentBelow"/>
  <anchor x="550" y="1600" name="AccentDefault"/>
  <anchor x="500" y="712" name="AccentMiddle"/>
  <anchor x="300" y="0" name="AccentOgonek"/>
  <outline>
    <contour>
      <point x="467" y="1464" type="line" name="at01"/>
      <point x="347" y="562" type="line" name="sh01"/>
      <point x="344" y="535"/>
      <point x="339" y="495"/>
      <point x="336" y="462"/>
      <point x="335" y="434"/>
      <point x="335" y="418" type="qcurve" name="dh02"/>
      <point x="335" y="324"/>
      <point x="378" y="199"/>
      <point x="449" y="124"/>
      <point x="542" y="92"/>
      <point x="591" y="92" type="qcurve" name="sv01"/>
      <point x="653" y="92"/>
      <point x="774" y="137"/>
      <point x="878" y="242"/>
      <point x="954" y="414"/>
      <point x="971" y="542" type="qcurve"/>
      <point x="1094" y="1464" type="line" name="at02"/>
      <point x="1181" y="1434" type="line"/>
      <point x="1066" y="562" type="line"/>
      <point x="1046" y="410"/>
      <point x="955" y="187"/>
      <point x="824" y="41"/>
      <point x="656" y="-30"/>
      <point x="560" y="-30" type="qcurve" name="ab01"/>
      <point x="476" y="-30"/>
      <point x="343" y="22"/>
      <point x="250" y="129"/>
      <point x="200" y="293"/>
      <point x="200" y="404" type="qcurve" name="dh01"/>
      <point x="200" y="421"/>
      <point x="200" y="454"/>
      <point x="203" y="490"/>
      <point x="207" y="533"/>
      <point x="211" y="562" type="qcurve" name="sh02"/>
      <point x="326" y="1434" type="line" name="sh03"/>
    </contour>
  </outline>
</glyph>
<glyph name="V" format="2">
  <advance width="936"/>
  <unicode hex="0056"/>
  <anchor x="350" y="0" name="AccentBelow"/>
  <anchor x="500" y="1600" name="AccentDefault"/>
  <anchor x="400" y="712" name="AccentMiddle"/>
  <outline>
    <contour>
      <point x="530" y="283" type="line"/>
      <point x="537" y="283" type="line"/>
      <point x="1011" y="1464" type="line"/>
      <point x="1097" y="1434" type="line"/>
      <point x="515" y="0" type="line"/>
      <point x="423" y="0" type="line"/>
      <point x="221" y="1434" type="line"/>
      <point x="375" y="1464" type="line"/>
    </contour>
  </outline>
</glyph>
<glyph name="W" format="2">
  <advance width="1416"/>
  <unicode hex="0057"/>
  <guideline x="0" y="348" angle="0"/>
  <guideline x="341" y="0" angle="106"/>
  <guideline x="1142" y="0" angle="108"/>
  <guideline x="1075" y="0" angle="74"/>
  <guideline x="983" y="0" angle="74"/>
  <guideline x="497" y="0" angle="106"/>
  <guideline x="432" y="0" angle="72"/>
  <guideline x="337" y="0" angle="72"/>
  <guideline x="983" y="0" angle="108"/>
  <guideline x="737" y="0" angle="90"/>
  <anchor x="600" y="0" name="AccentBelow"/>
  <anchor x="700" y="1600" name="AccentDefault"/>
  <anchor x="650" y="712" name="AccentMiddle"/>
  <outline>
    <contour>
      <point x="1103" y="348" type="line" name="hr00"/>
      <point x="1110" y="348" type="line"/>
      <point x="1488" y="1464" type="line" name="at01"/>
      <point x="1574" y="1434" type="line"/>
      <point x="1076" y="0" type="line" name="ab01"/>
      <point x="984" y="0" type="line"/>
      <point x="865" y="1131" type="line"/>
      <point x="857" y="1131" type="line"/>
      <point x="432" y="0" type="line" name="ab02"/>
      <point x="341" y="0" type="line"/>
      <point x="221" y="1434" type="line"/>
      <point x="375" y="1464" type="line" name="at02"/>
      <point x="460" y="348" type="line"/>
      <point x="467" y="348" type="line"/>
      <point x="887" y="1464" type="line" name="at03"/>
      <point x="978" y="1464" type="line"/>
    </contour>
  </outline>
</glyph>
<glyph name="Z" format="2">
  <advance width="936"/>
  <unicode hex="005A"/>
  <outline>
    <contour>
      <point x="315" y="1434" type="line"/>
      <point x="1084" y="1434" type="line"/>
      <point x="1082" y="1414" type="line"/>
      <point x="263" y="132" type="line"/>
      <point x="262" y="122" type="line"/>
      <point x="896" y="143" type="line"/>
      <point x="876" y="0" type="line"/>
      <point x="32" y="0" type="line"/>
      <point x="34" y="20" type="line"/>
      <point x="852" y="1302" type="line"/>
      <point x="854" y="1312" type="line"/>
      <point x="296" y="1292" type="line"/>
    </contour>
  </outline>
</glyph>
<glyph name="asciicircum" format="2">
  <advance width="936"/>
  <unicode hex="005E"/>
  <outline>
    <contour>
      <point x="596" y="1434" type="line"/>
      <point x="718" y="1434" type="line"/>
      <point x="967" y="607" type="line"/>
      <point x="860" y="583" type="line"/>
      <point x="647" y="1301" type="line"/>
      <point x="632" y="1301" type="line"/>
      <point x="229" y="583" type="line"/>
      <point x="130" y="607" type="line"/>
    </contour>
  </outline>
</glyph>
<glyph name="d" format="2">
  <advance width="840"/>
  <unicode hex="0064"/>
  <anchor x="350" y="0" name="AccentBelow"/>
  <anchor x="300" y="0" name="AccentCedilla"/>
  <anchor x="400" y="1600" name="AccentDefault"/>
  <anchor x="550" y="1200" name="AccentMiddle"/>
  <outline>
    <contour>
      <point x="807" y="1464" type="line"/>
      <point x="910" y="1494" type="line"/>
      <point x="932" y="1494" type="line"/>
      <point x="758" y="179" type="line"/>
      <point x="757" y="167"/>
      <point x="755" y="147"/>
      <point x="755" y="138" type="qcurve"/>
      <point x="755" y="105"/>
      <point x="778" y="72"/>
      <point x="803" y="72" type="qcurve"/>
      <point x="789" y="-30" type="line"/>
      <point x="712" y="-30"/>
      <point x="640" y="60"/>
      <point x="640" y="142" type="qcurve"/>
      <point x="632" y="142" type="line"/>
      <point x="614" y="114"/>
      <point x="565" y="54"/>
      <point x="503" y="3"/>
      <point x="428" y="-30"/>
      <point x="382" y="-30" type="qcurve"/>
      <point x="328" y="-30"/>
      <point x="232" y="23"/>
      <point x="160" y="124"/>
      <point x="118" y="271"/>
      <point x="118" y="366" type="qcurve"/>
      <point x="118" y="446"/>
      <point x="149" y="603"/>
      <point x="203" y="745"/>
      <point x="279" y="866"/>
      <point x="370" y="954"/>
      <point x="472" y="1004"/>
      <point x="526" y="1004" type="qcurve"/>
      <point x="558" y="1004"/>
      <point x="617" y="986"/>
      <point x="669" y="957"/>
      <point x="710" y="921"/>
      <point x="725" y="902" type="qcurve"/>
      <point x="733" y="902" type="line"/>
    </contour>
    <contour>
      <point x="717" y="785" type="line"/>
      <point x="706" y="806"/>
      <point x="672" y="848"/>
      <point x="627" y="881"/>
      <point x="570" y="902"/>
      <point x="536" y="902" type="qcurve"/>
      <point x="496" y="902"/>
      <point x="422" y="860"/>
      <point x="358" y="787"/>
      <point x="305" y="685"/>
      <point x="268" y="566"/>
      <point x="247" y="432"/>
      <point x="247" y="363" type="qcurve"/>
      <point x="247" y="285"/>
      <point x="275" y="174"/>
      <point x="323" y="104"/>
      <point x="385" y="72"/>
      <point x="418" y="72" type="qcurve"/>
      <point x="453" y="72"/>
      <point x="518" y="105"/>
      <point x="577" y="158"/>
      <point x="628" y="227"/>
      <point x="648" y="263" type="qcurve"/>
    </contour>
  </outline>
</glyph>
<glyph name="i" format="2">
  <advance width="432"/>
  <unicode hex="0069"/>
  <anchor x="120" y="0" name="AccentBelow"/>
  <anchor x="220" y="1600" name="AccentDefault"/>
  <anchor x="100" y="486" name="AccentMiddle"/>
  <anchor x="-100" y="0" name="AccentOgonek"/>
  <outline>
    <contour>
      <point x="284" y="974" type="line"/>
      <point x="387" y="1004" type="line"/>
      <point x="410" y="1004" type="line"/>
      <point x="277" y="0" type="line"/>
      <point x="155" y="0" type="line"/>
    </contour>
    <contour>
      <point x="311" y="1272" type="qcurve"/>
      <point x="311" y="1312"/>
      <point x="353" y="1368"/>
      <point x="383" y="1368" type="qcurve"/>
      <point x="413" y="1368"/>
      <point x="455" y="1312"/>
      <point x="455" y="1272" type="qcurve"/>
      <point x="455" y="1232"/>
      <point x="413" y="1176"/>
      <point x="383" y="1176" type="qcurve"/>
      <point x="353" y="1176"/>
      <point x="311" y="1232"/>
    </contour>
  </outline>
</glyph>
<glyph name="l" format="2">
  <advance width="432"/>
  <unicode hex="006C"/>
  <outline>
    <contour>
      <point x="349" y="1464" type="line"/>
      <point x="452" y="1494" type="line"/>
      <point x="474" y="1494" type="line"/>
      <point x="316" y="300" type="line"/>
      <point x="313" y="279"/>
      <point x="309" y="225"/>
      <point x="309" y="209" type="qcurve"/>
      <point x="309" y="191"/>
      <point x="318" y="144"/>
      <point x="339" y="102"/>
      <point x="376" y="72"/>
      <point x="408" y="72" type="qcurve"/>
      <point x="395" y="-30" type="line"/>
      <point x="329" y="-30"/>
      <point x="251" y="14"/>
      <point x="206" y="82"/>
      <point x="188" y="165"/>
      <point x="188" y="204" type="qcurve"/>
      <point x="188" y="226"/>
      <point x="192" y="285"/>
      <point x="195" y="307" type="qcurve"/>
    </contour>
  </outline>
</glyph>
<glyph name="m" format="2">
  <advance width="1248"/>
  <unicode hex="006D"/>
  <outline>
    <contour>
      <point x="231" y="944" type="line"/>
      <point x="334" y="974" type="line"/>
      <point x="356" y="974" type="line"/>
      <point x="338" y="838" type="line"/>
      <point x="347" y="838" type="line"/>
      <point x="377" y="882"/>
      <point x="436" y="945"/>
      <point x="497" y="985"/>
      <point x="561" y="1004"/>
      <point x="598" y="1004" type="qcurve"/>
      <point x="638" y="1004"/>
      <point x="699" y="977"/>
      <point x="744" y="930"/>
      <point x="773" y="865"/>
      <point x="780" y="828" type="qcurve"/>
      <point x="788" y="828" type="line"/>
      <point x="819" y="872"/>
      <point x="880" y="938"/>
      <point x="942" y="982"/>
      <point x="1009" y="1004"/>
      <point x="1047" y="1004" type="qcurve"/>
      <point x="1082" y="1004"/>
      <point x="1151" y="976"/>
      <point x="1206" y="918"/>
      <point x="1240" y="831"/>
      <point x="1240" y="772" type="qcurve"/>
      <point x="1240" y="758"/>
      <point x="1238" y="731"/>
      <point x="1236" y="716" type="qcurve"/>
      <point x="1167" y="197" type="line"/>
      <point x="1163" y="165"/>
      <point x="1163" y="141" type="qcurve"/>
      <point x="1163" y="105"/>
      <point x="1185" y="72"/>
      <point x="1209" y="72" type="qcurve"/>
      <point x="1196" y="-30" type="line"/>
      <point x="1044" y="-30"/>
      <point x="1044" y="148" type="qcurve"/>
      <point x="1044" y="166"/>
      <point x="1047" y="205"/>
      <point x="1050" y="227" type="qcurve"/>
      <point x="1112" y="696" type="line"/>
      <point x="1113" y="710"/>
      <point x="1115" y="735"/>
      <point x="1115" y="747" type="qcurve"/>
      <point x="1115" y="820"/>
      <point x="1060" y="902"/>
      <point x="1013" y="902" type="qcurve"/>
      <point x="980" y="902"/>
      <point x="919" y="872"/>
      <point x="862" y="817"/>
      <point x="806" y="742"/>
      <point x="776" y="697" type="qcurve"/>
      <point x="685" y="0" type="line"/>
      <point x="563" y="0" type="line"/>
      <point x="658" y="716" type="line"/>
      <point x="660" y="732"/>
      <point x="660" y="750" type="qcurve"/>
      <point x="660" y="779"/>
      <point x="647" y="834"/>
      <point x="622" y="876"/>
      <point x="585" y="902"/>
      <point x="562" y="902" type="qcurve"/>
      <point x="526" y="902"/>
      <point x="464" y="872"/>
      <point x="405" y="817"/>
      <point x="349" y="741"/>
      <point x="320" y="696" type="qcurve"/>
      <point x="228" y="0" type="line"/>
      <point x="107" y="0" type="line"/>
    </contour>
  </outline>
</glyph>
<glyph name="n" format="2">
  <advance width="840"/>
  <unicode hex="006E"/>
  <anchor x="350" y="0" name="AccentBelow"/>
  <anchor x="400" y="1100" name="AccentDefault"/>
  <anchor x="300" y="486" name="AccentMiddle"/>
  <outline>
    <contour>
      <point x="364" y="974" type="line"/>
      <point x="346" y="837" type="line"/>
      <point x="353" y="837" type="line"/>
      <point x="419" y="925"/>
      <point x="546" y="1004"/>
      <point x="614" y="1004" type="qcurve"/>
      <point x="662" y="1004"/>
      <point x="741" y="972"/>
      <point x="796" y="912"/>
      <point x="826" y="825"/>
      <point x="826" y="769" type="qcurve"/>
      <point x="826" y="755"/>
      <point x="823" y="723"/>
      <point x="821" y="707" type="qcurve"/>
      <point x="753" y="197" type="line"/>
      <point x="749" y="165"/>
      <point x="749" y="141" type="qcurve"/>
      <point x="749" y="105"/>
      <point x="771" y="72"/>
      <point x="795" y="72" type="qcurve"/>
      <point x="782" y="-30" type="line"/>
      <point x="701" y="-30"/>
      <point x="630" y="65"/>
      <point x="630" y="146" type="qcurve"/>
      <point x="630" y="166"/>
      <point x="633" y="206"/>
      <point x="636" y="227" type="qcurve"/>
      <point x="697" y="687" type="line"/>
      <point x="701" y="718"/>
      <point x="701" y="747" type="qcurve"/>
      <point x="701" y="822"/>
      <point x="642" y="902"/>
      <point x="584" y="902" type="qcurve"/>
      <point x="513" y="902"/>
      <point x="389" y="797"/>
      <point x="327" y="697" type="qcurve"/>
      <point x="236" y="0" type="line"/>
      <point x="114" y="0" type="line"/>
      <point x="239" y="944" type="line"/>
      <point x="341" y="974" type="line"/>
    </contour>
  </outline>
</glyph>
<glyph name="p" format="2">
  <advance width="840"/>
  <unicode hex="0070"/>
  <guideline x="442" y="0" angle="90"/>
  <anchor x="350" y="-400" name="AccentBelow"/>
  <anchor x="350" y="1100" name="AccentDefault"/>
  <anchor x="350" y="486" name="AccentMiddle"/>
  <outline>
    <contour>
      <point x="356" y="974" type="line" name="at01"/>
      <point x="347" y="902" type="line" name="sv01"/>
      <point x="355" y="902" type="line"/>
      <point x="374" y="921"/>
      <point x="423" y="958"/>
      <point x="481" y="986" name="hr00"/>
      <point x="543" y="1004"/>
      <point x="576" y="1004" type="qcurve" name="at02"/>
      <point x="637" y="1004"/>
      <point x="737" y="946"/>
      <point x="810" y="840"/>
      <point x="851" y="691"/>
      <point x="851" y="600" type="qcurve" name="dh02"/>
      <point x="851" y="455" name="hr01"/>
      <point x="775" y="222"/>
      <point x="652" y="58"/>
      <point x="496" y="-30" name="hr02"/>
      <point x="416" y="-30" type="qcurve" name="ab02"/>
      <point x="389" y="-30"/>
      <point x="335" y="-13"/>
      <point x="287" y="16"/>
      <point x="248" y="52"/>
      <point x="237" y="72" type="qcurve" name="iv01"/>
      <point x="167" y="-460" type="line"/>
      <point x="64" y="-490" type="line" name="ab01"/>
      <point x="41" y="-490" type="line"/>
      <point x="231" y="944" type="line"/>
      <point x="334" y="974" type="line"/>
    </contour>
    <contour>
      <point x="253" y="190" type="line"/>
      <point x="282" y="139"/>
      <point x="368" y="72"/>
      <point x="422" y="72" type="qcurve" name="sv02"/>
      <point x="452" y="72"/>
      <point x="519" y="104"/>
      <point x="586" y="165"/>
      <point x="647" y="254"/>
      <point x="694" y="371"/>
      <point x="722" y="513"/>
      <point x="722" y="596" type="qcurve" name="dh01"/>
      <point x="722" y="669"/>
      <point x="693" y="783"/>
      <point x="644" y="861"/>
      <point x="577" y="902"/>
      <point x="539" y="902" type="qcurve" name="sv03"/>
      <point x="504" y="902"/>
      <point x="443" y="881"/>
      <point x="392" y="848"/>
      <point x="349" y="806"/>
      <point x="332" y="785" type="qcurve"/>
    </contour>
  </outline>
</glyph>
<glyph name="q" format="2">
  <advance width="840"/>
  <unicode hex="0071"/>
  <outline>
    <contour>
      <point x="719" y="784" type="line"/>
      <point x="695" y="835"/>
      <point x="599" y="902"/>
      <point x="533" y="902" type="qcurve"/>
      <point x="488" y="902"/>
      <point x="387" y="833"/>
      <point x="301" y="701"/>
      <point x="244" y="507"/>
      <point x="244" y="382" type="qcurve"/>
      <point x="244" y="308"/>
      <point x="274" y="192"/>
      <point x="325" y="113"/>
      <point x="392" y="72"/>
      <point x="431" y="72" type="qcurve"/>
      <point x="465" y="72"/>
      <point x="527" y="93"/>
      <point x="579" y="127"/>
      <point x="623" y="168"/>
      <point x="640" y="189" type="qcurve"/>
    </contour>
    <contour>
      <point x="676" y="-460" type="line"/>
      <point x="573" y="-490" type="line"/>
      <point x="551" y="-490" type="line"/>
      <point x="624" y="72" type="line"/>
      <point x="617" y="72" type="line"/>
      <point x="597" y="52"/>
      <point x="548" y="16"/>
      <point x="490" y="-13"/>
      <point x="426" y="-30"/>
      <point x="394" y="-30" type="qcurve"/>
      <point x="333" y="-30"/>
      <point x="231" y="29"/>
      <point x="157" y="136"/>
      <point x="115" y="286"/>
      <point x="115" y="378" type="qcurve"/>
      <point x="115" y="475"/>
      <point x="149" y="643"/>
      <point x="208" y="782"/>
      <point x="288" y="890"/>
      <point x="383" y="965"/>
      <point x="487" y="1004"/>
      <point x="539" y="1004" type="qcurve"/>
      <point x="621" y="1004"/>
      <point x="773" y="900"/>
      <point x="840" y="784" type="qcurve"/>
    </contour>
  </outline>
</glyph>
<glyph name="s" format="2">
  <advance width="648"/>
  <unicode hex="0073"/>
  <anchor x="250" y="0" name="AccentBelow"/>
  <anchor x="200" y="0" name="AccentCedilla"/>
  <anchor x="300" y="1100" name="AccentDefault"/>
  <anchor x="250" y="486" name="AccentMiddle"/>
  <outline>
    <contour>
      <point x="163" y="227" type="line"/>
      <point x="176" y="197"/>
      <point x="215" y="141"/>
      <point x="263" y="98"/>
      <point x="317" y="72"/>
      <point x="347" y="72" type="qcurve"/>
      <point x="376" y="72"/>
      <point x="430" y="93"/>
      <point x="473" y="135"/>
      <point x="498" y="201"/>
      <point x="498" y="246" type="qcurve"/>
      <point x="498" y="274"/>
      <point x="485" y="323"/>
      <point x="453" y="369"/>
      <point x="397" y="413"/>
      <point x="353" y="436" type="qcurve"/>
      <point x="326" y="450"/>
      <point x="272" y="499"/>
      <point x="230" y="566"/>
      <point x="204" y="652"/>
      <point x="204" y="703" type="qcurve"/>
      <point x="204" y="772"/>
      <point x="240" y="883"/>
      <point x="306" y="961"/>
      <point x="398" y="1004"/>
      <point x="455" y="1004" type="qcurve"/>
      <point x="491" y="1004"/>
      <point x="556" y="980"/>
      <point x="613" y="938"/>
      <point x="659" y="882"/>
      <point x="675" y="849" type="qcurve"/>
      <point x="599" y="747" type="line"/>
      <point x="589" y="778"/>
      <point x="558" y="834"/>
      <point x="518" y="877"/>
      <point x="470" y="902"/>
      <point x="442" y="902" type="qcurve"/>
      <point x="419" y="902"/>
      <point x="377" y="879"/>
      <point x="344" y="837"/>
      <point x="326" y="779"/>
      <point x="326" y="743" type="qcurve"/>
      <point x="326" y="683"/>
      <point x="377" y="605"/>
      <point x="434" y="576" type="qcurve"/>
      <point x="530" y="528"/>
      <point x="620" y="383"/>
      <point x="620" y="287" type="qcurve"/>
      <point x="620" y="210"/>
      <point x="578" y="92"/>
      <point x="502" y="12"/>
      <point x="397" y="-30"/>
      <point x="333" y="-30" type="qcurve"/>
      <point x="299" y="-30"/>
      <point x="230" y="-11"/>
      <point x="164" y="28"/>
      <point x="107" y="86"/>
      <point x="86" y="125" type="qcurve"/>
    </contour>
  </outline>
</glyph>
<glyph name="u" format="2">
  <advance width="840"/>
  <unicode hex="0075"/>
  <anchor x="350" y="0" name="AccentBelow"/>
  <anchor x="350" y="1100" name="AccentDefault"/>
  <anchor x="300" y="486" name="AccentMiddle"/>
  <anchor x="400" y="0" name="AccentOgonek"/>
  <outline>
    <contour>
      <point x="368" y="1004" type="line"/>
      <point x="275" y="305" type="line"/>
      <point x="271" y="269"/>
      <point x="271" y="239" type="qcurve"/>
      <point x="271" y="193"/>
      <point x="291" y="129"/>
      <point x="325" y="90"/>
      <point x="369" y="72"/>
      <point x="393" y="72" type="qcurve"/>
      <point x="434" y="72"/>
      <point x="506" y="107"/>
      <point x="569" y="163"/>
      <point x="620" y="230"/>
      <point x="641" y="263" type="qcurve"/>
      <point x="734" y="974" type="line"/>
      <point x="838" y="1004" type="line"/>
      <point x="860" y="1004" type="line"/>
      <point x="752" y="189" type="line"/>
      <point x="750" y="174"/>
      <point x="749" y="149"/>
      <point x="749" y="138" type="qcurve"/>
      <point x="749" y="101"/>
      <point x="772" y="72"/>
      <point x="795" y="72" type="qcurve"/>
      <point x="782" y="-30" type="line"/>
      <point x="728" y="-30"/>
      <point x="676" y="2"/>
      <point x="646" y="52"/>
      <point x="634" y="113"/>
      <point x="632" y="142" type="qcurve"/>
      <point x="625" y="142" type="line"/>
      <point x="608" y="116"/>
      <point x="556" y="56"/>
      <point x="486" y="4"/>
      <point x="402" y="-30"/>
      <point x="355" y="-30" type="qcurve"/>
      <point x="314" y="-30"/>
      <point x="238" y="-3"/>
      <point x="180" y="55"/>
      <point x="146" y="146"/>
      <point x="146" y="210" type="qcurve"/>
      <point x="146" y="227"/>
      <point x="149" y="261"/>
      <point x="151" y="280" type="qcurve"/>
      <point x="242" y="974" type="line"/>
      <point x="346" y="1004" type="line"/>
    </contour>
  </outline>
</glyph>
<glyph name="v" format="2">
  <advance width="768"/>
  <unicode hex="0076"/>
  <guideline x="478" y="0" angle="112"/>
  <guideline x="338" y="0" angle="112"/>
  <guideline x="430" y="0" angle="68"/>
  <guideline x="338" y="0" angle="68"/>
  <guideline x="365" y="0" angle="90"/>
  <anchor x="300" y="0" name="AccentBelow"/>
  <anchor x="300" y="1100" name="AccentDefault"/>
  <anchor x="250" y="486" name="AccentMiddle"/>
  <outline>
    <contour>
      <point x="307" y="1004" type="line" name="at01"/>
      <point x="434" y="230" type="line"/>
      <point x="442" y="230" type="line"/>
      <point x="775" y="1004" type="line" name="at02"/>
      <point x="853" y="974" type="line"/>
      <point x="430" y="0" type="line" name="ab01"/>
      <point x="338" y="0" type="line"/>
      <point x="172" y="974" type="line"/>
    </contour>
  </outline>
</glyph>
<glyph name="x" format="2">
  <advance width="768"/>
  <unicode hex="0078"/>
  <guideline x="0" y="840" angle="0"/>
  <guideline x="0" y="133" angle="0"/>
  <guideline x="67" y="0" angle="55"/>
  <guideline x="165" y="0" angle="55"/>
  <guideline x="714" y="0" angle="125"/>
  <guideline x="566" y="0" angle="125"/>
  <guideline x="379" y="0" angle="90"/>
  <guideline x="67" y="0" angle="90"/>
  <guideline x="698" y="0" angle="90"/>
  <anchor x="300" y="0" name="AccentBelow"/>
  <anchor x="300" y="1100" name="AccentDefault"/>
  <anchor x="250" y="486" name="AccentMiddle"/>
  <outline>
    <contour>
      <point x="320" y="1004" type="line" name="at01"/>
      <point x="468" y="616" type="line"/>
      <point x="476" y="616" type="line"/>
      <point x="727" y="1004" type="line" name="at02"/>
      <point x="805" y="974" type="line"/>
      <point x="509" y="527" type="line"/>
      <point x="508" y="517" type="line"/>
      <point x="713" y="0" type="line"/>
      <point x="578" y="-30" type="line" name="ab01"/>
      <point x="418" y="374" type="line"/>
      <point x="410" y="374" type="line"/>
      <point x="145" y="-30" type="line" name="ab02"/>
      <point x="67" y="0" type="line"/>
      <point x="378" y="470" type="line"/>
      <point x="380" y="480" type="line"/>
      <point x="184" y="974" type="line"/>
    </contour>
  </outline>
</glyph>
<glyph name="z" format="2">
  <advance width="720"/>
  <unicode hex="007A"/>
  <anchor x="300" y="0" name="AccentBelow"/>
  <anchor x="300" y="1100" name="AccentDefault"/>
  <anchor x="250" y="486" name="AccentMiddle"/>
  <outline>
    <contour>
      <point x="57" y="25" type="line"/>
      <point x="615" y="866" type="line"/>
      <point x="617" y="876" type="line"/>
      <point x="228" y="849" type="line"/>
      <point x="245" y="974" type="line"/>
      <point x="791" y="974" type="line"/>
      <point x="788" y="949" type="line"/>
      <point x="229" y="105" type="line"/>
      <point x="227" y="95" type="line"/>
      <point x="680" y="125" type="line"/>
      <point x="663" y="0" type="line"/>
      <point x="54" y="0" type="line"/>
    </contour>
  </outline>
</glyph>
<glyph name="braceleft" format="2">
  <advance width="552"/>
  <unicode hex="007B"/>
  <outline>
    <contour>
      <point x="671" y="1362" type="line"/>
      <point x="610" y="1362"/>
      <point x="551" y="1337"/>
      <point x="515" y="1283"/>
      <point x="496" y="1196"/>
      <point x="488" y="1135" type="qcurve"/>
      <point x="466" y="972" type="line"/>
      <point x="457" y="904"/>
      <point x="428" y="780"/>
      <point x="376" y="679"/>
      <point x="297" y="608"/>
      <point x="238" y="593" type="qcurve"/>
      <point x="278" y="582"/>
      <point x="332" y="538"/>
      <point x="363" y="476"/>
      <point x="377" y="399"/>
      <point x="377" y="355" type="qcurve"/>
      <point x="377" y="322"/>
      <point x="371" y="251"/>
      <point x="365" y="214" type="qcurve"/>
      <point x="342" y="39" type="line"/>
      <point x="338" y="6"/>
      <point x="332" y="-47"/>
      <point x="332" y="-69" type="qcurve"/>
      <point x="332" y="-99"/>
      <point x="344" y="-140"/>
      <point x="372" y="-165"/>
      <point x="419" y="-176"/>
      <point x="467" y="-176" type="qcurve"/>
      <point x="453" y="-278" type="line"/>
      <point x="398" y="-278"/>
      <point x="314" y="-259"/>
      <point x="257" y="-212"/>
      <point x="227" y="-132"/>
      <point x="227" y="-72" type="qcurve"/>
      <point x="227" y="-32"/>
      <point x="233" y="19" type="qcurve"/>
      <point x="257" y="194" type="line"/>
      <point x="263" y="245"/>
      <point x="272" y="332"/>
      <point x="272" y="370" type="qcurve"/>
      <point x="272" y="410"/>
      <point x="259" y="473"/>
      <point x="225" y="518"/>
      <point x="169" y="542"/>
      <point x="125" y="542" type="qcurve"/>
      <point x="139" y="644" type="line"/>
      <point x="203" y="644"/>
      <point x="281" y="696"/>
      <point x="328" y="788"/>
      <point x="351" y="916"/>
      <point x="362" y="992" type="qcurve"/>
      <point x="384" y="1157" type="line"/>
      <point x="396" y="1245"/>
      <point x="445" y="1364"/>
      <point x="519" y="1434"/>
      <point x="620" y="1464"/>
      <point x="684" y="1464" type="qcurve"/>
    </contour>
  </outline>
</glyph>
<glyph name="braceright" format="2">
  <advance width="552"/>
  <unicode hex="007D"/>
  <outline>
    <contour>
      <point x="248" y="1464" type="line" name="at01"/>
      <point x="302" y="1464"/>
      <point x="386" y="1442"/>
      <point x="443" y="1391"/>
      <point x="473" y="1308"/>
      <point x="473" y="1246" type="qcurve" name="sh01"/>
      <point x="473" y="1226"/>
      <point x="470" y="1182"/>
      <point x="467" y="1157" type="qcurve" name="sh02"/>
      <point x="444" y="992" type="line"/>
      <point x="437" y="941"/>
      <point x="427" y="850"/>
      <point x="427" y="811" type="qcurve" name="dh02"/>
      <point x="427" y="772"/>
      <point x="440" y="711"/>
      <point x="474" y="667"/>
      <point x="531" y="644"/>
      <point x="575" y="644" type="qcurve" name="dv02"/>
      <point x="562" y="542" type="line" name="dv01"/>
      <point x="498" y="542" name="hr00"/>
      <point x="420" y="490"/>
      <point x="374" y="398"/>
      <point x="349" y="270"/>
      <point x="339" y="194" type="qcurve"/>
      <point x="316" y="19" type="line" name="sh03"/>
      <point x="304" y="-70"/>
      <point x="256" y="-184"/>
      <point x="182" y="-252"/>
      <point x="80" y="-278"/>
      <point x="17" y="-278" type="qcurve" name="av01"/>
      <point x="30" y="-176" type="line"/>
      <point x="91" y="-176"/>
      <point x="149" y="-155"/>
      <point x="185" y="-105"/>
      <point x="203" y="-23"/>
      <point x="212" y="39" type="qcurve"/>
      <point x="235" y="214" type="line"/>
      <point x="244" y="282"/>
      <point x="273" y="406"/>
      <point x="325" y="507"/>
      <point x="404" y="578"/>
      <point x="463" y="593" type="qcurve" name="ih02"/>
      <point x="422" y="604"/>
      <point x="369" y="648"/>
      <point x="338" y="710"/>
      <point x="324" y="787"/>
      <point x="324" y="831" type="qcurve" name="dh01"/>
      <point x="324" y="864"/>
      <point x="330" y="935"/>
      <point x="335" y="972" type="qcurve" name="sh04"/>
      <point x="357" y="1135" type="line" name="sh05"/>
      <point x="362" y="1169"/>
      <point x="367" y="1225"/>
      <point x="367" y="1248" type="qcurve" name="ih01"/>
      <point x="367" y="1278"/>
      <point x="356" y="1322"/>
      <point x="328" y="1349"/>
      <point x="282" y="1362"/>
      <point x="234" y="1362" type="qcurve"/>
    </contour>
  </outline>
</glyph>
<glyph name="cent" format="2">
  <advance width="840"/>
  <unicode hex="00A2"/>
  <outline>
    <contour>
      <point x="803" y="1206" type="line"/>
      <point x="867" y="1191" type="line"/>
      <point x="745" y="939" type="line"/>
      <point x="769" y="919"/>
      <point x="805" y="872"/>
      <point x="818" y="849" type="qcurve"/>
      <point x="742" y="747" type="line"/>
      <point x="736" y="764"/>
      <point x="709" y="812"/>
      <point x="693" y="831" type="qcurve"/>
      <point x="345" y="109" type="line"/>
      <point x="385" y="72"/>
      <point x="444" y="72" type="qcurve"/>
      <point x="482" y="72"/>
      <point x="550" y="105"/>
      <point x="605" y="152"/>
      <point x="647" y="206"/>
      <point x="660" y="227" type="qcurve"/>
      <point x="737" y="125" type="line"/>
      <point x="713" y="96"/>
      <point x="652" y="41"/>
      <point x="576" y="-3"/>
      <point x="485" y="-30"/>
      <point x="431" y="-30" type="qcurve"/>
      <point x="392" y="-30"/>
      <point x="326" y="-12"/>
      <point x="294" y="5" type="qcurve"/>
      <point x="181" y="-232" type="line"/>
      <point x="117" y="-217" type="line"/>
      <point x="242" y="43" type="line"/>
      <point x="184" y="97"/>
      <point x="119" y="272"/>
      <point x="119" y="384" type="qcurve"/>
      <point x="119" y="468"/>
      <point x="152" y="626"/>
      <point x="212" y="764"/>
      <point x="296" y="878"/>
      <point x="395" y="959"/>
      <point x="509" y="1004"/>
      <point x="568" y="1004" type="qcurve"/>
      <point x="604" y="1004"/>
      <point x="665" y="989"/>
      <point x="692" y="975" type="qcurve"/>
    </contour>
    <contour>
      <point x="643" y="874" type="line"/>
      <point x="608" y="902"/>
      <point x="554" y="902" type="qcurve"/>
      <point x="491" y="902"/>
      <point x="379" y="812"/>
      <point x="296" y="666"/>
      <point x="248" y="480"/>
      <point x="248" y="384" type="qcurve"/>
      <point x="248" y="317"/>
      <point x="274" y="204"/>
      <point x="300" y="162" type="qcurve"/>
    </contour>
  </outline>
</glyph>
<glyph name="currency" format="2">
  <advance width="768"/>
  <unicode hex="00A4"/>
  <outline>
    <contour>
      <point x="480" y="974" type="qcurve"/>
      <point x="444" y="974"/>
      <point x="380" y="935"/>
      <point x="332" y="869"/>
      <point x="303" y="783"/>
      <point x="303" y="736" type="qcurve"/>
      <point x="303" y="689"/>
      <point x="332" y="603"/>
      <point x="380" y="538"/>
      <point x="444" y="499"/>
      <point x="480" y="499" type="qcurve"/>
      <point x="515" y="499"/>
      <point x="580" y="537"/>
      <point x="629" y="601"/>
      <point x="658" y="688"/>
      <point x="658" y="736" type="qcurve"/>
      <point x="658" y="783"/>
      <point x="629" y="869"/>
      <point x="580" y="935"/>
      <point x="515" y="974"/>
    </contour>
    <contour>
      <point x="637" y="445" type="line"/>
      <point x="563" y="377"/>
      <point x="480" y="377" type="qcurve"/>
      <point x="398" y="377"/>
      <point x="328" y="441" type="qcurve"/>
      <point x="212" y="287" type="line"/>
      <point x="147" y="373" type="line"/>
      <point x="262" y="527" type="line"/>
      <point x="236" y="573"/>
      <point x="212" y="679"/>
      <point x="212" y="736" type="qcurve"/>
      <point x="212" y="851"/>
      <point x="262" y="945" type="qcurve"/>
      <point x="147" y="1098" type="line"/>
      <point x="212" y="1184" type="line"/>
      <point x="326" y="1031" type="line"/>
      <point x="398" y="1096"/>
      <point x="480" y="1096" type="qcurve"/>
      <point x="563" y="1096"/>
      <point x="637" y="1027" type="qcurve"/>
      <point x="755" y="1184" type="line"/>
      <point x="820" y="1098" type="line"/>
      <point x="701" y="941" type="line"/>
      <point x="725" y="893"/>
      <point x="749" y="790"/>
      <point x="749" y="738" type="qcurve"/>
      <point x="749" y="684"/>
      <point x="724" y="579"/>
      <point x="700" y="533" type="qcurve"/>
      <point x="820" y="373" type="line"/>
      <point x="755" y="287" type="line"/>
    </contour>
  </outline>
</glyph>
<glyph name="section" format="2">
  <advance width="768"/>
  <unicode hex="00A7"/>
  <guideline x="394" y="0" angle="90"/>
  <outline>
    <contour>
      <point x="329" y="-490" type="qcurve" name="ab01"/>
      <point x="292" y="-490"/>
      <point x="227" y="-465"/>
      <point x="171" y="-423"/>
      <point x="128" y="-367"/>
      <point x="111" y="-335" type="qcurve"/>
      <point x="188" y="-233" type="line" name="iv01"/>
      <point x="202" y="-265"/>
      <point x="234" y="-321"/>
      <point x="272" y="-363"/>
      <point x="317" y="-388"/>
      <point x="343" y="-388" type="qcurve" name="sv01"/>
      <point x="376" y="-388"/>
      <point x="427" y="-347"/>
      <point x="461" y="-284"/>
      <point x="479" y="-207"/>
      <point x="479" y="-170" type="qcurve" name="sh01"/>
      <point x="479" y="-121"/>
      <point x="455" y="-44"/>
      <point x="414" y="21"/>
      <point x="362" y="78"/>
      <point x="308" y="136"/>
      <point x="257" y="199"/>
      <point x="216" y="276"/>
      <point x="191" y="371"/>
      <point x="191" y="432" type="qcurve" name="dh01"/>
      <point x="191" y="505"/>
      <point x="224" y="627"/>
      <point x="281" y="728"/>
      <point x="358" y="809"/>
      <point x="403" y="842" type="qcurve"/>
      <point x="377" y="884"/>
      <point x="344" y="998"/>
      <point x="344" y="1070" type="qcurve" name="dh03"/>
      <point x="344" y="1150"/>
      <point x="383" y="1293"/>
      <point x="454" y="1401"/>
      <point x="554" y="1464"/>
      <point x="615" y="1464" type="qcurve" name="at01"/>
      <point x="692" y="1464"/>
      <point x="798" y="1378"/>
      <point x="833" y="1309" type="qcurve"/>
      <point x="756" y="1207" type="line" name="iv02"/>
      <point x="749" y="1234"/>
      <point x="719" y="1289"/>
      <point x="679" y="1334"/>
      <point x="629" y="1362"/>
      <point x="602" y="1362" type="qcurve" name="sv02"/>
      <point x="568" y="1362"/>
      <point x="517" y="1321"/>
      <point x="483" y="1257"/>
      <point x="466" y="1179"/>
      <point x="466" y="1142" type="qcurve" name="dh04"/>
      <point x="466" y="1093"/>
      <point x="491" y="1017"/>
      <point x="531" y="952"/>
      <point x="582" y="896"/>
      <point x="636" y="838"/>
      <point x="687" y="775"/>
      <point x="728" y="699"/>
      <point x="752" y="605"/>
      <point x="752" y="545" type="qcurve" name="dh06"/>
      <point x="752" y="470"/>
      <point x="721" y="347"/>
      <point x="665" y="246"/>
      <point x="587" y="164"/>
      <point x="541" y="131" type="qcurve"/>
      <point x="567" y="89"/>
      <point x="601" y="-24"/>
      <point x="601" y="-97" type="qcurve" name="sh02"/>
      <point x="601" y="-178"/>
      <point x="563" y="-321"/>
      <point x="492" y="-428"/>
      <point x="392" y="-490"/>
    </contour>
    <contour>
      <point x="320" y="502" type="qcurve" name="dh02"/>
      <point x="320" y="450"/>
      <point x="351" y="369"/>
      <point x="400" y="300"/>
      <point x="461" y="236"/>
      <point x="491" y="200" type="qcurve"/>
      <point x="551" y="242"/>
      <point x="623" y="385"/>
      <point x="623" y="472" type="qcurve" name="dh05"/>
      <point x="623" y="524"/>
      <point x="593" y="605"/>
      <point x="544" y="674"/>
      <point x="484" y="738"/>
      <point x="454" y="774" type="qcurve"/>
      <point x="393" y="732"/>
      <point x="320" y="589"/>
    </contour>
  </outline>
</glyph>
<glyph name="plusminus" format="2">
  <advance width="864"/>
  <unicode hex="00B1"/>
  <outline>
    <contour>
      <point x="180" y="653" type="line"/>
      <point x="196" y="775" type="line"/>
      <point x="488" y="775" type="line"/>
      <point x="540" y="1165" type="line"/>
      <point x="632" y="1165" type="line"/>
      <point x="580" y="775" type="line"/>
      <point x="872" y="775" type="line"/>
      <point x="857" y="653" type="line"/>
      <point x="564" y="653" type="line"/>
      <point x="512" y="263" type="line"/>
      <point x="421" y="263" type="line"/>
      <point x="473" y="653" type="line"/>
    </contour>
    <contour>
      <point x="94" y="0" type="line"/>
      <point x="110" y="122" type="line"/>
      <point x="786" y="122" type="line"/>
      <point x="770" y="0" type="line"/>
    </contour>
  </outline>
</glyph>
<glyph name="paragraph" format="2">
  <advance width="768"/>
  <unicode hex="00B6"/>
  <outline>
    <contour>
      <point x="881" y="1434" type="line"/>
      <point x="867" y="1332" type="line"/>
      <point x="782" y="1332" type="line"/>
      <point x="606" y="0" type="line"/>
      <point x="530" y="0" type="line"/>
      <point x="705" y="1332" type="line"/>
      <point x="596" y="1332" type="line"/>
      <point x="420" y="0" type="line"/>
      <point x="344" y="0" type="line"/>
      <point x="443" y="750" type="line"/>
      <point x="389" y="750"/>
      <point x="305" y="789"/>
      <point x="247" y="861"/>
      <point x="216" y="962"/>
      <point x="216" y="1023" type="qcurve"/>
      <point x="216" y="1116"/>
      <point x="271" y="1268"/>
      <point x="363" y="1375"/>
      <point x="482" y="1434"/>
      <point x="548" y="1434" type="qcurve"/>
    </contour>
  </outline>
</glyph>
<glyph name="periodcentered" format="2">
  <advance width="432"/>
  <unicode hex="00B7"/>
  <outline>
    <contour>
      <point x="174" y="488" type="qcurve"/>
      <point x="174" y="516"/>
      <point x="191" y="567"/>
      <point x="218" y="604"/>
      <point x="256" y="626"/>
      <point x="278" y="626" type="qcurve"/>
      <point x="299" y="626"/>
      <point x="337" y="604"/>
      <point x="365" y="567"/>
      <point x="381" y="516"/>
      <point x="381" y="488" type="qcurve"/>
      <point x="381" y="459"/>
      <point x="365" y="409"/>
      <point x="337" y="372"/>
      <point x="299" y="350"/>
      <point x="278" y="350" type="qcurve"/>
      <point x="256" y="350"/>
      <point x="218" y="372"/>
      <point x="191" y="409"/>
      <point x="174" y="459"/>
    </contour>
  </outline>
</glyph>
<glyph name="ordmasculine" format="2">
  <advance width="648"/>
  <unicode hex="00BA"/>
  <outline>
    <contour>
      <point x="518" y="1464" type="qcurve"/>
      <point x="573" y="1464"/>
      <point x="659" y="1418"/>
      <point x="719" y="1334"/>
      <point x="750" y="1217"/>
      <point x="750" y="1146" type="qcurve"/>
      <point x="750" y="1050"/>
      <point x="699" y="871"/>
      <point x="608" y="732"/>
      <point x="483" y="649"/>
      <point x="410" y="649" type="qcurve"/>
      <point x="354" y="649"/>
      <point x="268" y="694"/>
      <point x="207" y="776"/>
      <point x="176" y="892"/>
      <point x="176" y="963" type="qcurve"/>
      <point x="176" y="1061"/>
      <point x="226" y="1242"/>
      <point x="317" y="1381"/>
      <point x="442" y="1464"/>
    </contour>
    <contour>
      <point x="504" y="1362" type="qcurve"/>
      <point x="449" y="1362"/>
      <point x="360" y="1291"/>
      <point x="299" y="1180"/>
      <point x="267" y="1046"/>
      <point x="267" y="984" type="qcurve"/>
      <point x="267" y="932"/>
      <point x="288" y="846"/>
      <point x="329" y="785"/>
      <point x="386" y="751"/>
      <point x="423" y="751" type="qcurve"/>
      <point x="479" y="751"/>
      <point x="566" y="823"/>
      <point x="627" y="935"/>
      <point x="659" y="1069"/>
      <point x="659" y="1131" type="qcurve"/>
      <point x="659" y="1182"/>
      <point x="638" y="1266"/>
      <point x="598" y="1328"/>
      <point x="540" y="1362"/>
    </contour>
  </outline>
</glyph>
<glyph name="guillemotright" format="2">
  <advance width="768"/>
  <unicode hex="00BB"/>
  <outline>
    <contour>
      <point x="457" y="487" type="line"/>
      <point x="155" y="68" type="line"/>
      <point x="83" y="98" type="line"/>
      <point x="334" y="487" type="line"/>
      <point x="186" y="876" type="line"/>
      <point x="266" y="906" type="line"/>
    </contour>
    <contour>
      <point x="755" y="487" type="line"/>
      <point x="454" y="68" type="line"/>
      <point x="382" y="98" type="line"/>
      <point x="632" y="487" type="line"/>
      <point x="485" y="876" type="line"/>
      <point x="565" y="906" type="line"/>
    </contour>
  </outline>
</glyph>
<glyph name="AE" format="2">
  <advance width="1320"/>
  <unicode hex="00C6"/>
  <outline>
    <contour>
      <point x="849" y="1434" type="line"/>
      <point x="1433" y="1434" type="line"/>
      <point x="1415" y="1292" type="line"/>
      <point x="970" y="1312" type="line"/>
      <point x="907" y="839" type="line"/>
      <point x="1277" y="839" type="line"/>
      <point x="1261" y="717" type="line"/>
      <point x="891" y="717" type="line"/>
      <point x="812" y="122" type="line"/>
      <point x="1282" y="142" type="line"/>
      <point x="1263" y="0" type="line"/>
      <point x="660" y="0" type="line"/>
      <point x="708" y="365" type="line"/>
      <point x="348" y="365" type="line"/>
      <point x="125" y="-30" type="line"/>
      <point x="39" y="0" type="line"/>
    </contour>
    <contour>
      <point x="799" y="1163" type="line"/>
      <point x="417" y="487" type="line"/>
      <point x="724" y="487" type="line"/>
      <point x="814" y="1163" type="line"/>
    </contour>
  </outline>
</glyph>
<glyph name="Eth" format="2">
  <advance width="1128"/>
  <unicode hex="00D0"/>
  <outline>
    <contour>
      <point x="333" y="1434" type="line"/>
      <point x="653" y="1434" type="line"/>
      <point x="790" y="1434"/>
      <point x="994" y="1336"/>
      <point x="1119" y="1151"/>
      <point x="1164" y="885"/>
      <point x="1142" y="717" type="qcurve"/>
      <point x="1129" y="619"/>
      <point x="1067" y="436"/>
      <point x="974" y="277"/>
      <point x="855" y="145"/>
      <point x="716" y="52"/>
      <point x="557" y="0"/>
      <point x="472" y="0" type="qcurve"/>
      <point x="144" y="0" type="line"/>
      <point x="237" y="707" type="line"/>
      <point x="134" y="707" type="line"/>
      <point x="167" y="829" type="line"/>
      <point x="254" y="829" type="line"/>
    </contour>
    <contour>
      <point x="296" y="122" type="line"/>
      <point x="466" y="122" type="line"/>
      <point x="575" y="122"/>
      <point x="755" y="210"/>
      <point x="891" y="368"/>
      <point x="980" y="586"/>
      <point x="998" y="717" type="qcurve"/>
      <point x="1018" y="873"/>
      <point x="984" y="1097"/>
      <point x="884" y="1243"/>
      <point x="724" y="1312"/>
      <point x="618" y="1312" type="qcurve"/>
      <point x="454" y="1312" type="line"/>
      <point x="390" y="829" type="line"/>
      <point x="710" y="829" type="line"/>
      <point x="677" y="707" type="line"/>
      <point x="374" y="707" type="line"/>
    </contour>
  </outline>
</glyph>
<glyph name="multiply" format="2">
  <advance width="864"/>
  <unicode hex="00D7"/>
  <guideline x="0" y="715" angle="0"/>
  <guideline x="384" y="0" angle="90"/>
  <outline>
    <contour>
      <point x="259" y="888" type="line" name="hr00"/>
      <point x="335" y="974" type="line" name="at01"/>
      <point x="521" y="673" type="line" name="iv01"/>
      <point x="786" y="974" type="line" name="at02"/>
      <point x="839" y="888" type="line"/>
      <point x="574" y="587" type="line"/>
      <point x="760" y="286" type="line"/>
      <point x="684" y="200" type="line" name="av01"/>
      <point x="498" y="501" type="line" name="iv02"/>
      <point x="233" y="200" type="line" name="av02"/>
      <point x="179" y="286" type="line"/>
      <point x="445" y="587" type="line"/>
    </contour>
  </outline>
</glyph>
<glyph name="Thorn" format="2">
  <advance width="864"/>
  <unicode hex="00DE"/>
  <outline>
    <contour>
      <point x="326" y="1434" type="line"/>
      <point x="462" y="1434" type="line"/>
      <point x="422" y="1126" type="line"/>
      <point x="569" y="1126" type="line"/>
      <point x="676" y="1126"/>
      <point x="819" y="1062"/>
      <point x="899" y="951"/>
      <point x="923" y="802"/>
      <point x="912" y="717" type="qcurve"/>
      <point x="901" y="632"/>
      <point x="838" y="483"/>
      <point x="728" y="372"/>
      <point x="568" y="308"/>
      <point x="461" y="308" type="qcurve"/>
      <point x="314" y="308" type="line"/>
      <point x="273" y="0" type="line"/>
      <point x="137" y="0" type="line"/>
    </contour>
    <contour>
      <point x="408" y="1024" type="line"/>
      <point x="327" y="410" type="line"/>
      <point x="455" y="410" type="line"/>
      <point x="524" y="410"/>
      <point x="633" y="455"/>
      <point x="711" y="536"/>
      <point x="759" y="649"/>
      <point x="768" y="717" type="qcurve"/>
      <point x="777" y="785"/>
      <point x="759" y="898"/>
      <point x="702" y="979"/>
      <point x="605" y="1024"/>
      <point x="536" y="1024" type="qcurve"/>
    </contour>
  </outline>
</glyph>
<glyph name="germandbls" format="2">
  <advance width="864"/>
  <unicode hex="00DF"/>
  <guideline x="452" y="0" angle="90"/>
  <outline>
    <contour>
      <point x="404" y="72" type="line" name="sv01"/>
      <point x="476" y="72"/>
      <point x="598" y="114"/>
      <point x="686" y="195"/>
      <point x="737" y="315"/>
      <point x="737" y="392" type="qcurve" name="ah01"/>
      <point x="737" y="443"/>
      <point x="702" y="518" name="hr00"/>
      <point x="651" y="579"/>
      <point x="591" y="633"/>
      <point x="540" y="695"/>
      <point x="506" y="771"/>
      <point x="506" y="824" type="qcurve" name="sh01"/>
      <point x="506" y="878"/>
      <point x="540" y="965" name="hr01"/>
      <point x="591" y="1042"/>
      <point x="651" y="1114"/>
      <point x="702" y="1191"/>
      <point x="737" y="1278"/>
      <point x="737" y="1332" type="qcurve" name="sh02"/>
      <point x="737" y="1359"/>
      <point x="721" y="1407"/>
      <point x="692" y="1443"/>
      <point x="651" y="1464"/>
      <point x="626" y="1464" type="qcurve" name="dv01"/>
      <point x="586" y="1464"/>
      <point x="504" y="1407"/>
      <point x="432" y="1292"/>
      <point x="376" y="1118"/>
      <point x="360" y="1001" type="qcurve"/>
      <point x="228" y="0" type="line" name="ab01"/>
      <point x="107" y="0" type="line"/>
      <point x="244" y="1039" type="line"/>
      <point x="259" y="1153"/>
      <point x="339" y="1347"/>
      <point x="449" y="1487"/>
      <point x="579" y="1566"/>
      <point x="644" y="1566" type="qcurve" name="dv02"/>
      <point x="691" y="1566"/>
      <point x="764" y="1529"/>
      <point x="816" y="1468"/>
      <point x="844" y="1389"/>
      <point x="844" y="1347" type="qcurve"/>
      <point x="844" y="1286"/>
      <point x="808" y="1191"/>
      <point x="755" y="1113"/>
      <point x="692" y="1047"/>
      <point x="639" y="985"/>
      <point x="603" y="922"/>
      <point x="603" y="886" type="qcurve" name="sh03"/>
      <point x="603" y="850"/>
      <point x="641" y="788"/>
      <point x="698" y="727"/>
      <point x="764" y="662"/>
      <point x="821" y="581"/>
      <point x="859" y="480"/>
      <point x="859" y="415" type="qcurve" name="sh04"/>
      <point x="859" y="322"/>
      <point x="808" y="162"/>
      <point x="749" y="101" type="qcurve" name="sh05"/>
      <point x="692" y="40"/>
      <point x="509" y="-30"/>
      <point x="390" y="-30" type="qcurve" name="ab02"/>
    </contour>
  </outline>
</glyph>
<glyph name="eth" format="2">
  <advance width="840"/>
  <unicode hex="00F0"/>
  <outline>
    <contour>
      <point x="397" y="-32" type="qcurve"/>
      <point x="341" y="-32"/>
      <point x="243" y="15"/>
      <point x="170" y="105"/>
      <point x="128" y="234"/>
      <point x="128" y="317" type="qcurve"/>
      <point x="128" y="424"/>
      <point x="188" y="617"/>
      <point x="293" y="763"/>
      <point x="433" y="849"/>
      <point x="513" y="849" type="qcurve"/>
      <point x="545" y="849"/>
      <point x="606" y="826"/>
      <point x="660" y="779"/>
      <point x="704" y="707"/>
      <point x="717" y="659" type="qcurve"/>
      <point x="725" y="659" type="line"/>
      <point x="730" y="701"/>
      <point x="740" y="806"/>
      <point x="740" y="864" type="qcurve"/>
      <point x="740" y="936"/>
      <point x="717" y="1080"/>
      <point x="686" y="1143" type="qcurve"/>
      <point x="544" y="1005" type="line"/>
      <point x="496" y="1099" type="line"/>
      <point x="639" y="1238" type="line"/>
      <point x="567" y="1381" type="line"/>
      <point x="652" y="1464" type="line"/>
      <point x="724" y="1321" type="line"/>
      <point x="871" y="1464" type="line"/>
      <point x="917" y="1369" type="line"/>
      <point x="772" y="1227" type="line"/>
      <point x="788" y="1192"/>
      <point x="818" y="1098"/>
      <point x="839" y="987"/>
      <point x="851" y="861"/>
      <point x="851" y="794" type="qcurve"/>
      <point x="851" y="677"/>
      <point x="815" y="465"/>
      <point x="751" y="281"/>
      <point x="664" y="132"/>
      <point x="563" y="26"/>
      <point x="452" y="-32"/>
    </contour>
    <contour>
      <point x="500" y="747" type="qcurve"/>
      <point x="449" y="747"/>
      <point x="361" y="673"/>
      <point x="296" y="553"/>
      <point x="258" y="400"/>
      <point x="258" y="321" type="qcurve"/>
      <point x="258" y="264"/>
      <point x="279" y="172"/>
      <point x="318" y="106"/>
      <point x="375" y="70"/>
      <point x="410" y="70" type="qcurve"/>
      <point x="449" y="70"/>
      <point x="518" y="107"/>
      <point x="577" y="170"/>
      <point x="624" y="254"/>
      <point x="657" y="346"/>
      <point x="675" y="441"/>
      <point x="675" y="485" type="qcurve"/>
      <point x="675" y="534"/>
      <point x="652" y="629"/>
      <point x="607" y="702"/>
      <point x="542" y="747"/>
    </contour>
  </outline>
</glyph>
<glyph name="oslash" format="2">
  <advance width="840"/>
  <unicode hex="00F8"/>
  <guideline x="395" y="0" angle="90"/>
  <outline>
    <contour>
      <point x="553" y="1004" type="qcurve" name="at01"/>
      <point x="622" y="1004"/>
      <point x="678" y="974" type="qcurve"/>
      <point x="740" y="1099" type="line" name="sh01"/>
      <point x="813" y="1069" type="line"/>
      <point x="743" y="926" type="line"/>
      <point x="803" y="867"/>
      <point x="857" y="692"/>
      <point x="857" y="596" type="qcurve" name="sh02"/>
      <point x="857" y="469"/>
      <point x="788" y="242"/>
      <point x="667" y="71"/>
      <point x="506" y="-30"/>
      <point x="416" y="-30" type="qcurve" name="ab01"/>
      <point x="345" y="-30"/>
      <point x="289" y="0" type="qcurve"/>
      <point x="228" y="-125" type="line" name="sh05"/>
      <point x="155" y="-95" type="line"/>
      <point x="224" y="46" type="line"/>
      <point x="166" y="110"/>
      <point x="111" y="284"/>
      <point x="111" y="381" type="qcurve" name="sh03"/>
      <point x="111" y="507"/>
      <point x="182" y="734"/>
      <point x="302" y="904"/>
      <point x="463" y="1004"/>
    </contour>
    <contour>
      <point x="339" y="101" type="line"/>
      <point x="386" y="72"/>
      <point x="429" y="72" type="qcurve" name="sv01"/>
      <point x="471" y="72"/>
      <point x="548" y="113"/>
      <point x="614" y="185"/>
      <point x="668" y="284"/>
      <point x="707" y="398"/>
      <point x="728" y="524"/>
      <point x="728" y="588" type="qcurve" name="ah01"/>
      <point x="728" y="648"/>
      <point x="707" y="756"/>
      <point x="683" y="804" type="qcurve" name="ih01"/>
    </contour>
    <contour>
      <point x="539" y="902" type="qcurve" name="sv02"/>
      <point x="476" y="902"/>
      <point x="366" y="811"/>
      <point x="286" y="663"/>
      <point x="240" y="477"/>
      <point x="240" y="381" type="qcurve" name="sh04"/>
      <point x="240" y="321"/>
      <point x="261" y="213"/>
      <point x="284" y="168" type="qcurve" name="ih02"/>
      <point x="628" y="871" type="line"/>
      <point x="608" y="888"/>
      <point x="562" y="902"/>
    </contour>
  </outline>
</glyph>
<glyph name="Aogonek" format="2">
  <advance width="1008"/>
  <unicode hex="0104"/>
  <anchor x="500" y="1600" name="AccentDefault"/>
  <outline>
    <contour>
      <point x="948" y="0" type="line"/>
      <point x="913" y="-30"/>
      <point x="855" y="-87"/>
      <point x="815" y="-145"/>
      <point x="792" y="-207"/>
      <point x="792" y="-241" type="qcurve"/>
      <point x="792" y="-279"/>
      <point x="825" y="-328"/>
      <point x="849" y="-328" type="qcurve"/>
      <point x="866" y="-328"/>
      <point x="890" y="-318"/>
      <point x="908" y="-302" type="qcurve"/>
      <point x="923" y="-412" type="line"/>
      <point x="891" y="-429"/>
      <point x="850" y="-440"/>
      <point x="828" y="-440" type="qcurve"/>
      <point x="800" y="-440"/>
      <point x="753" y="-417"/>
      <point x="719" y="-373"/>
      <point x="701" y="-311"/>
      <point x="701" y="-272" type="qcurve"/>
      <point x="701" y="-230"/>
      <point x="726" y="-155"/>
      <point x="767" y="-91"/>
      <point x="815" y="-39"/>
      <point x="839" y="-21" type="qcurve"/>
      <point x="794" y="-30" type="line"/>
      <point x="731" y="365" type="line"/>
      <point x="302" y="365" type="line"/>
      <point x="130" y="-30" type="line"/>
      <point x="44" y="0" type="line"/>
      <point x="681" y="1464" type="line"/>
      <point x="714" y="1464" type="line"/>
    </contour>
    <contour>
      <point x="611" y="1090" type="line"/>
      <point x="355" y="487" type="line"/>
      <point x="712" y="487" type="line"/>
      <point x="618" y="1090" type="line"/>
    </contour>
  </outline>
</glyph>
<glyph name="aogonek" format="2">
  <advance width="840"/>
  <unicode hex="0105"/>
  <outline>
    <contour>
      <point x="227" y="849" type="line"/>
      <point x="299" y="925"/>
      <point x="459" y="1004"/>
      <point x="557" y="1004" type="qcurve"/>
      <point x="606" y="1004"/>
      <point x="699" y="969"/>
      <point x="770" y="894"/>
      <point x="812" y="775"/>
      <point x="812" y="690" type="qcurve"/>
      <point x="812" y="668"/>
      <point x="810" y="622"/>
      <point x="806" y="597" type="qcurve"/>
      <point x="750" y="174" type="line"/>
      <point x="748" y="154"/>
      <point x="748" y="139" type="qcurve"/>
      <point x="748" y="72"/>
      <point x="795" y="72" type="qcurve"/>
      <point x="782" y="-30" type="line"/>
      <point x="773" y="-30"/>
      <point x="758" y="-29"/>
      <point x="751" y="-28" type="qcurve"/>
      <point x="731" y="-46"/>
      <point x="687" y="-91"/>
      <point x="652" y="-144"/>
      <point x="629" y="-205"/>
      <point x="629" y="-241" type="qcurve"/>
      <point x="629" y="-279"/>
      <point x="662" y="-328"/>
      <point x="686" y="-328" type="qcurve"/>
      <point x="702" y="-328"/>
      <point x="726" y="-318"/>
      <point x="745" y="-302" type="qcurve"/>
      <point x="759" y="-412" type="line"/>
      <point x="728" y="-429"/>
      <point x="686" y="-440"/>
      <point x="665" y="-440" type="qcurve"/>
      <point x="634" y="-440"/>
      <point x="586" y="-414"/>
      <point x="554" y="-369"/>
      <point x="537" y="-307"/>
      <point x="537" y="-272" type="qcurve"/>
      <point x="537" y="-225"/>
      <point x="566" y="-145"/>
      <point x="611" y="-78"/>
      <point x="666" y="-26"/>
      <point x="693" y="-6" type="qcurve"/>
      <point x="677" y="4"/>
      <point x="654" y="36"/>
      <point x="641" y="75"/>
      <point x="633" y="120"/>
      <point x="632" y="142" type="qcurve"/>
      <point x="625" y="142" type="line"/>
      <point x="603" y="115"/>
      <point x="538" y="55"/>
      <point x="458" y="4"/>
      <point x="368" y="-30"/>
      <point x="322" y="-30" type="qcurve"/>
      <point x="279" y="-30"/>
      <point x="205" y="4"/>
      <point x="150" y="65"/>
      <point x="119" y="149"/>
      <point x="119" y="199" type="qcurve"/>
      <point x="119" y="303"/>
      <point x="204" y="451"/>
      <point x="355" y="545"/>
      <point x="562" y="589"/>
      <point x="683" y="589" type="qcurve"/>
      <point x="690" y="637" type="line"/>
      <point x="693" y="656"/>
      <point x="695" y="691"/>
      <point x="695" y="707" type="qcurve"/>
      <point x="695" y="765"/>
      <point x="667" y="840"/>
      <point x="623" y="884"/>
      <point x="569" y="902"/>
      <point x="543" y="902" type="qcurve"/>
      <point x="507" y="902"/>
      <point x="443" y="879"/>
      <point x="384" y="838"/>
      <point x="329" y="781"/>
      <point x="303" y="747" type="qcurve"/>
    </contour>
    <contour>
      <point x="673" y="507" type="line"/>
      <point x="632" y="507"/>
      <point x="536" y="500"/>
      <point x="441" y="479"/>
      <point x="353" y="440"/>
      <point x="284" y="376"/>
      <point x="243" y="282"/>
      <point x="243" y="217" type="qcurve"/>
      <point x="243" y="153"/>
      <point x="305" y="72"/>
      <point x="363" y="72" type="qcurve"/>
      <point x="401" y="72"/>
      <point x="478" y="104"/>
      <point x="549" y="157"/>
      <point x="614" y="226"/>
      <point x="641" y="263" type="qcurve"/>
    </contour>
  </outline>
</glyph>
<glyph name="Dcroat" format="2">
  <advance width="1128"/>
  <unicode hex="0110"/>
  <outline>
    <contour>
      <point x="333" y="1434" type="line"/>
      <point x="653" y="1434" type="line"/>
      <point x="773" y="1434"/>
      <point x="959" y="1359"/>
      <point x="1086" y="1216"/>
      <point x="1152" y="1009"/>
      <point x="1152" y="877" type="qcurve"/>
      <point x="1152" y="760"/>
      <point x="1106" y="540"/>
      <point x="1019" y="345"/>
      <point x="897" y="182"/>
      <point x="746" y="65"/>
      <point x="569" y="0"/>
      <point x="472" y="0" type="qcurve"/>
      <point x="144" y="0" type="line"/>
      <point x="237" y="707" type="line"/>
      <point x="125" y="707" type="line"/>
      <point x="140" y="829" type="line"/>
      <point x="253" y="829" type="line"/>
    </contour>
    <contour>
      <point x="296" y="122" type="line"/>
      <point x="466" y="122" type="line"/>
      <point x="592" y="122"/>
      <point x="793" y="240"/>
      <point x="933" y="444"/>
      <point x="1008" y="717"/>
      <point x="1008" y="872" type="qcurve"/>
      <point x="1008" y="986"/>
      <point x="955" y="1152"/>
      <point x="854" y="1260"/>
      <point x="710" y="1312"/>
      <point x="618" y="1312" type="qcurve"/>
      <point x="454" y="1312" type="line"/>
      <point x="389" y="829" type="line"/>
      <point x="693" y="829" type="line"/>
      <point x="677" y="707" type="line"/>
      <point x="374" y="707" type="line"/>
    </contour>
  </outline>
</glyph>
<glyph name="eogonek" format="2">
  <advance width="768"/>
  <unicode hex="0119"/>
  <anchor x="400" y="1100" name="AccentDefault"/>
  <outline>
    <contour>
      <point x="249" y="487" type="line"/>
      <point x="245" y="455"/>
      <point x="241" y="396"/>
      <point x="241" y="369" type="qcurve"/>
      <point x="241" y="288"/>
      <point x="273" y="175"/>
      <point x="328" y="104"/>
      <point x="401" y="72"/>
      <point x="440" y="72" type="qcurve"/>
      <point x="477" y="72"/>
      <point x="542" y="103"/>
      <point x="596" y="149"/>
      <point x="639" y="204"/>
      <point x="653" y="227" type="qcurve"/>
      <point x="730" y="125" type="line"/>
      <point x="715" y="106"/>
      <point x="656" y="53"/>
      <point x="590" y="12"/>
      <point x="560" y="0" type="qcurve"/>
      <point x="528" y="-26"/>
      <point x="471" y="-82"/>
      <point x="429" y="-142"/>
      <point x="404" y="-207"/>
      <point x="404" y="-241" type="qcurve"/>
      <point x="404" y="-279"/>
      <point x="437" y="-328"/>
      <point x="461" y="-328" type="qcurve"/>
      <point x="478" y="-328"/>
      <point x="502" y="-318"/>
      <point x="521" y="-302" type="qcurve"/>
      <point x="535" y="-412" type="line"/>
      <point x="503" y="-429"/>
      <point x="462" y="-440"/>
      <point x="440" y="-440" type="qcurve"/>
      <point x="410" y="-440"/>
      <point x="362" y="-414"/>
      <point x="329" y="-369"/>
      <point x="313" y="-307"/>
      <point x="313" y="-272" type="qcurve"/>
      <point x="313" y="-193"/>
      <point x="361" y="-116" type="qcurve"/>
      <point x="390" y="-70"/>
      <point x="438" y="-30" type="qcurve"/>
      <point x="351" y="-30"/>
      <point x="236" y="21"/>
      <point x="155" y="122"/>
      <point x="112" y="272"/>
      <point x="112" y="371" type="qcurve"/>
      <point x="112" y="499"/>
      <point x="179" y="729"/>
      <point x="294" y="902"/>
      <point x="449" y="1004"/>
      <point x="536" y="1004" type="qcurve"/>
      <point x="590" y="1004"/>
      <point x="684" y="960"/>
      <point x="755" y="868"/>
      <point x="795" y="726"/>
      <point x="795" y="629" type="qcurve"/>
      <point x="795" y="597"/>
      <point x="791" y="525"/>
      <point x="785" y="487" type="qcurve"/>
    </contour>
    <contour>
      <point x="684" y="589" type="line"/>
      <point x="689" y="620"/>
      <point x="689" y="652" type="qcurve"/>
      <point x="689" y="703"/>
      <point x="666" y="793"/>
      <point x="623" y="862"/>
      <point x="558" y="902"/>
      <point x="516" y="902" type="qcurve"/>
      <point x="470" y="902"/>
      <point x="388" y="853"/>
      <point x="322" y="769"/>
      <point x="275" y="655"/>
      <point x="263" y="589" type="qcurve"/>
    </contour>
  </outline>
</glyph>
<glyph name="Iogonek" format="2">
  <advance width="432"/>
  <unicode hex="012E"/>
  <outline>
    <contour>
      <point x="478" y="1464" type="line"/>
      <point x="284" y="0" type="line"/>
      <point x="249" y="-30"/>
      <point x="191" y="-87"/>
      <point x="151" y="-145"/>
      <point x="128" y="-207"/>
      <point x="128" y="-241" type="qcurve"/>
      <point x="128" y="-279"/>
      <point x="161" y="-328"/>
      <point x="185" y="-328" type="qcurve"/>
      <point x="202" y="-328"/>
      <point x="226" y="-318"/>
      <point x="245" y="-302" type="qcurve"/>
      <point x="259" y="-412" type="line"/>
      <point x="227" y="-429"/>
      <point x="186" y="-440"/>
      <point x="164" y="-440" type="qcurve"/>
      <point x="136" y="-440"/>
      <point x="89" y="-417"/>
      <point x="56" y="-373"/>
      <point x="37" y="-311"/>
      <point x="37" y="-272" type="qcurve"/>
      <point x="37" y="-239"/>
      <point x="56" y="-170"/>
      <point x="96" y="-99"/>
      <point x="159" y="-31"/>
      <point x="204" y="0" type="qcurve"/>
      <point x="148" y="0" type="line"/>
      <point x="337" y="1434" type="line"/>
    </contour>
  </outline>
</glyph>
<glyph name="iogonek" format="2">
  <advance width="432"/>
  <unicode hex="012F"/>
  <anchor x="220" y="1450" name="AccentDefault"/>
  <outline>
    <contour>
      <point x="410" y="1004" type="line"/>
      <point x="303" y="197" type="line"/>
      <point x="302" y="186"/>
      <point x="299" y="151"/>
      <point x="299" y="140" type="qcurve"/>
      <point x="299" y="128"/>
      <point x="303" y="104"/>
      <point x="313" y="84"/>
      <point x="331" y="72"/>
      <point x="344" y="72" type="qcurve"/>
      <point x="331" y="-30" type="line"/>
      <point x="323" y="-30"/>
      <point x="308" y="-29"/>
      <point x="300" y="-28" type="qcurve"/>
      <point x="281" y="-46"/>
      <point x="239" y="-90"/>
      <point x="203" y="-143"/>
      <point x="179" y="-205"/>
      <point x="179" y="-241" type="qcurve"/>
      <point x="179" y="-279"/>
      <point x="212" y="-328"/>
      <point x="236" y="-328" type="qcurve"/>
      <point x="252" y="-328"/>
      <point x="276" y="-318"/>
      <point x="295" y="-302" type="qcurve"/>
      <point x="309" y="-412" type="line"/>
      <point x="278" y="-429"/>
      <point x="236" y="-440"/>
      <point x="215" y="-440" type="qcurve"/>
      <point x="184" y="-440"/>
      <point x="136" y="-414"/>
      <point x="104" y="-369"/>
      <point x="87" y="-307"/>
      <point x="87" y="-272" type="qcurve"/>
      <point x="87" y="-226"/>
      <point x="115" y="-146"/>
      <point x="159" y="-80"/>
      <point x="214" y="-28"/>
      <point x="240" y="-8" type="qcurve"/>
      <point x="205" y="15"/>
      <point x="179" y="98"/>
      <point x="179" y="146" type="qcurve"/>
      <point x="179" y="165"/>
      <point x="182" y="204"/>
      <point x="185" y="226" type="qcurve"/>
      <point x="284" y="974" type="line"/>
      <point x="386" y="1004" type="line"/>
    </contour>
    <contour>
      <point x="311" y="1272" type="qcurve"/>
      <point x="311" y="1312"/>
      <point x="353" y="1368"/>
      <point x="383" y="1368" type="qcurve"/>
      <point x="413" y="1368"/>
      <point x="455" y="1312"/>
      <point x="455" y="1272" type="qcurve"/>
      <point x="455" y="1232"/>
      <point x="413" y="1176"/>
      <point x="383" y="1176" type="qcurve"/>
      <point x="353" y="1176"/>
      <point x="311" y="1232"/>
    </contour>
  </outline>
</glyph>
<glyph name="dotlessi" format="2">
  <advance width="432"/>
  <unicode hex="0131"/>
  <anchor x="120" y="0" name="AccentBelow"/>
  <anchor x="140" y="1100" name="AccentDefault"/>
  <anchor x="100" y="486" name="AccentMiddle"/>
  <anchor x="-100" y="0" name="AccentOgonek"/>
  <outline>
    <contour>
      <point x="155" y="0" type="line" name="ab01"/>
      <point x="284" y="974" type="line"/>
      <point x="387" y="1004" type="line" name="at01"/>
      <point x="410" y="1004" type="line"/>
      <point x="277" y="0" type="line"/>
    </contour>
  </outline>
</glyph>
<glyph name="Lslash" format="2">
  <advance width="816"/>
  <unicode hex="0141"/>
  <outline>
    <contour>
      <point x="467" y="1464" type="line"/>
      <point x="389" y="885" type="line"/>
      <point x="518" y="1004" type="line"/>
      <point x="533" y="896" type="line"/>
      <point x="371" y="746" type="line"/>
      <point x="289" y="122" type="line"/>
      <point x="758" y="142" type="line"/>
      <point x="739" y="0" type="line"/>
      <point x="137" y="0" type="line"/>
      <point x="215" y="601" type="line"/>
      <point x="113" y="505" type="line"/>
      <point x="98" y="613" type="line"/>
      <point x="233" y="739" type="line"/>
      <point x="326" y="1434" type="line"/>
    </contour>
  </outline>
</glyph>
<glyph name="lslash" format="2">
  <advance width="432"/>
  <unicode hex="0142"/>
  <outline>
    <contour>
      <point x="349" y="1464" type="line"/>
      <point x="452" y="1494" type="line"/>
      <point x="474" y="1494" type="line"/>
      <point x="398" y="921" type="line"/>
      <point x="474" y="1004" type="line"/>
      <point x="491" y="880" type="line"/>
      <point x="376" y="755" type="line"/>
      <point x="316" y="300" type="line"/>
      <point x="313" y="279"/>
      <point x="309" y="225"/>
      <point x="309" y="209" type="qcurve"/>
      <point x="309" y="191"/>
      <point x="318" y="144"/>
      <point x="339" y="102"/>
      <point x="376" y="72"/>
      <point x="408" y="72" type="qcurve"/>
      <point x="395" y="-30" type="line"/>
      <point x="329" y="-30"/>
      <point x="251" y="14"/>
      <point x="206" y="82"/>
      <point x="188" y="165"/>
      <point x="188" y="204" type="qcurve"/>
      <point x="188" y="226"/>
      <point x="192" y="285"/>
      <point x="195" y="307" type="qcurve"/>
      <point x="234" y="600" type="line"/>
      <point x="153" y="512" type="line"/>
      <point x="137" y="636" type="line"/>
      <point x="256" y="766" type="line"/>
    </contour>
  </outline>
</glyph>
<glyph name="Eng" format="2">
  <advance width="1128"/>
  <unicode hex="014A"/>
  <guideline x="716" y="0" angle="90"/>
  <outline>
    <contour>
      <point x="417" y="1464" type="line" name="at01"/>
      <point x="943" y="306" type="line"/>
      <point x="950" y="306" type="line"/>
      <point x="1103" y="1464" type="line" name="at02"/>
      <point x="1192" y="1434" type="line"/>
      <point x="992" y="-77" type="line"/>
      <point x="976" y="-196"/>
      <point x="918" y="-354"/>
      <point x="837" y="-450"/>
      <point x="733" y="-490"/>
      <point x="671" y="-490" type="qcurve" name="ab02"/>
      <point x="685" y="-388" type="line" name="sv01"/>
      <point x="761" y="-388"/>
      <point x="845" y="-270"/>
      <point x="860" y="-152" type="qcurve"/>
      <point x="887" y="52" type="line"/>
      <point x="384" y="1159" type="line"/>
      <point x="377" y="1159" type="line"/>
      <point x="224" y="0" type="line" name="ab01"/>
      <point x="132" y="0" type="line"/>
      <point x="321" y="1434" type="line"/>
    </contour>
  </outline>
</glyph>
<glyph name="eng" format="2">
  <advance width="840"/>
  <unicode hex="014B"/>
  <outline>
    <contour>
      <point x="410" y="-388" type="line"/>
      <point x="487" y="-388"/>
      <point x="569" y="-273"/>
      <point x="584" y="-163" type="qcurve"/>
      <point x="697" y="687" type="line"/>
      <point x="701" y="718"/>
      <point x="701" y="747" type="qcurve"/>
      <point x="701" y="822"/>
      <point x="642" y="902"/>
      <point x="584" y="902" type="qcurve"/>
      <point x="513" y="902"/>
      <point x="389" y="797"/>
      <point x="327" y="697" type="qcurve"/>
      <point x="236" y="0" type="line"/>
      <point x="114" y="0" type="line"/>
      <point x="239" y="944" type="line"/>
      <point x="341" y="974" type="line"/>
      <point x="364" y="974" type="line"/>
      <point x="346" y="837" type="line"/>
      <point x="353" y="837" type="line"/>
      <point x="419" y="925"/>
      <point x="546" y="1004"/>
      <point x="614" y="1004" type="qcurve"/>
      <point x="662" y="1004"/>
      <point x="740" y="972"/>
      <point x="795" y="911"/>
      <point x="824" y="823"/>
      <point x="824" y="767" type="qcurve"/>
      <point x="824" y="753"/>
      <point x="823" y="723"/>
      <point x="821" y="707" type="qcurve"/>
      <point x="718" y="-69" type="line"/>
      <point x="704" y="-175"/>
      <point x="654" y="-333"/>
      <point x="577" y="-438"/>
      <point x="470" y="-490"/>
      <point x="398" y="-490" type="qcurve"/>
    </contour>
  </outline>
</glyph>
<glyph name="OE" format="2">
  <advance width="1416"/>
  <unicode hex="0152"/>
  <outline>
    <contour>
      <point x="603" y="-30" type="qcurve"/>
      <point x="515" y="-30"/>
      <point x="355" y="53"/>
      <point x="233" y="208"/>
      <point x="160" y="430"/>
      <point x="160" y="570" type="qcurve"/>
      <point x="160" y="695"/>
      <point x="207" y="925"/>
      <point x="292" y="1124"/>
      <point x="409" y="1286"/>
      <point x="548" y="1401"/>
      <point x="704" y="1464"/>
      <point x="786" y="1464" type="qcurve"/>
      <point x="824" y="1464"/>
      <point x="896" y="1448"/>
      <point x="929" y="1434" type="qcurve"/>
      <point x="1507" y="1434" type="line"/>
      <point x="1488" y="1292" type="line"/>
      <point x="1043" y="1312" type="line"/>
      <point x="980" y="839" type="line"/>
      <point x="1351" y="839" type="line"/>
      <point x="1334" y="717" type="line"/>
      <point x="965" y="717" type="line"/>
      <point x="886" y="122" type="line"/>
      <point x="1355" y="142" type="line"/>
      <point x="1337" y="0" type="line"/>
      <point x="755" y="0" type="line"/>
      <point x="716" y="-14"/>
      <point x="641" y="-30"/>
    </contour>
    <contour>
      <point x="777" y="1342" type="qcurve"/>
      <point x="717" y="1342"/>
      <point x="600" y="1287"/>
      <point x="495" y="1186"/>
      <point x="406" y="1045"/>
      <point x="341" y="872"/>
      <point x="304" y="672"/>
      <point x="304" y="564" type="qcurve"/>
      <point x="304" y="444"/>
      <point x="357" y="266"/>
      <point x="443" y="149"/>
      <point x="554" y="92"/>
      <point x="612" y="92" type="qcurve"/>
      <point x="682" y="92"/>
      <point x="751" y="131" type="qcurve"/>
      <point x="905" y="1304" type="line"/>
      <point x="875" y="1324"/>
      <point x="810" y="1342"/>
    </contour>
  </outline>
</glyph>
<glyph name="scedilla" format="2">
  <advance width="648"/>
  <unicode hex="015F"/>
  <outline>
    <contour>
      <point x="163" y="227" type="line"/>
      <point x="176" y="193"/>
      <point x="217" y="136"/>
      <point x="266" y="95"/>
      <point x="320" y="72"/>
      <point x="347" y="72" type="qcurve"/>
      <point x="376" y="72"/>
      <point x="430" y="93"/>
      <point x="473" y="135"/>
      <point x="498" y="201"/>
      <point x="498" y="246" type="qcurve"/>
      <point x="498" y="274"/>
      <point x="485" y="323"/>
      <point x="453" y="369"/>
      <point x="397" y="413"/>
      <point x="353" y="436" type="qcurve"/>
      <point x="326" y="450"/>
      <point x="272" y="499"/>
      <point x="230" y="566"/>
      <point x="204" y="652"/>
      <point x="204" y="703" type="qcurve"/>
      <point x="204" y="772"/>
      <point x="245" y="883"/>
      <point x="314" y="961"/>
      <point x="404" y="1004"/>
      <point x="455" y="1004" type="qcurve"/>
      <point x="491" y="1004"/>
      <point x="556" y="980"/>
      <point x="613" y="938"/>
      <point x="659" y="882"/>
      <point x="675" y="849" type="qcurve"/>
      <point x="599" y="747" type="line"/>
      <point x="592" y="778"/>
      <point x="561" y="834"/>
      <point x="520" y="877"/>
      <point x="470" y="902"/>
      <point x="442" y="902" type="qcurve"/>
      <point x="419" y="902"/>
      <point x="377" y="879"/>
      <point x="344" y="837"/>
      <point x="326" y="779"/>
      <point x="326" y="743" type="qcurve"/>
      <point x="326" y="683"/>
      <point x="377" y="604"/>
      <point x="434" y="575" type="qcurve"/>
      <point x="530" y="527"/>
      <point x="620" y="394"/>
      <point x="620" y="297" type="qcurve"/>
      <point x="620" y="228"/>
      <point x="584" y="117"/>
      <point x="521" y="34"/>
      <point x="434" y="-17"/>
      <point x="383" y="-26" type="qcurve"/>
      <point x="354" y="-110" type="line"/>
      <point x="372" y="-110"/>
      <point x="408" y="-132"/>
      <point x="438" y="-175"/>
      <point x="457" y="-240"/>
      <point x="457" y="-283" type="qcurve"/>
      <point x="457" y="-334"/>
      <point x="425" y="-411"/>
      <point x="377" y="-463"/>
      <point x="317" y="-490"/>
      <point x="290" y="-490" type="qcurve"/>
      <point x="263" y="-490"/>
      <point x="221" y="-476"/>
      <point x="190" y="-456"/>
      <point x="168" y="-433"/>
      <point x="161" y="-423" type="qcurve"/>
      <point x="202" y="-347" type="line"/>
      <point x="214" y="-373"/>
      <point x="257" y="-408"/>
      <point x="278" y="-408" type="qcurve"/>
      <point x="319" y="-408"/>
      <point x="365" y="-342"/>
      <point x="365" y="-288" type="qcurve"/>
      <point x="365" y="-266"/>
      <point x="352" y="-229"/>
      <point x="331" y="-204"/>
      <point x="304" y="-190"/>
      <point x="290" y="-190" type="qcurve"/>
      <point x="271" y="-190"/>
      <point x="237" y="-201"/>
      <point x="228" y="-206" type="qcurve"/>
      <point x="292" y="-26" type="line"/>
      <point x="264" y="-21"/>
      <point x="206" y="3"/>
      <point x="152" y="40"/>
      <point x="104" y="92"/>
      <point x="86" y="125" type="qcurve"/>
    </contour>
  </outline>
</glyph>
<glyph name="Uogonek" format="2">
  <advance width="1128"/>
  <unicode hex="0172"/>
  <anchor x="550" y="1600" name="AccentDefault"/>
  <outline>
    <contour>
      <point x="467" y="1464" type="line"/>
      <point x="347" y="562" type="line"/>
      <point x="344" y="535"/>
      <point x="339" y="495"/>
      <point x="336" y="462"/>
      <point x="335" y="434"/>
      <point x="335" y="418" type="qcurve"/>
      <point x="335" y="324"/>
      <point x="378" y="199"/>
      <point x="449" y="124"/>
      <point x="542" y="92"/>
      <point x="591" y="92" type="qcurve"/>
      <point x="653" y="92"/>
      <point x="774" y="137"/>
      <point x="878" y="242"/>
      <point x="954" y="414"/>
      <point x="971" y="542" type="qcurve"/>
      <point x="1094" y="1464" type="line"/>
      <point x="1181" y="1434" type="line"/>
      <point x="1066" y="562" type="line"/>
      <point x="1050" y="445"/>
      <point x="989" y="259"/>
      <point x="902" y="119"/>
      <point x="791" y="25"/>
      <point x="725" y="0" type="qcurve"/>
      <point x="702" y="-19"/>
      <point x="647" y="-69"/>
      <point x="601" y="-131"/>
      <point x="570" y="-202"/>
      <point x="570" y="-241" type="qcurve"/>
      <point x="570" y="-279"/>
      <point x="603" y="-328"/>
      <point x="627" y="-328" type="qcurve"/>
      <point x="644" y="-328"/>
      <point x="668" y="-318"/>
      <point x="686" y="-302" type="qcurve"/>
      <point x="701" y="-412" type="line"/>
      <point x="669" y="-429"/>
      <point x="628" y="-440"/>
      <point x="606" y="-440" type="qcurve"/>
      <point x="575" y="-440"/>
      <point x="527" y="-414"/>
      <point x="495" y="-369"/>
      <point x="479" y="-307"/>
      <point x="479" y="-272" type="qcurve"/>
      <point x="479" y="-232"/>
      <point x="500" y="-161"/>
      <point x="536" y="-100"/>
      <point x="581" y="-49"/>
      <point x="604" y="-30" type="qcurve"/>
      <point x="560" y="-30" type="line"/>
      <point x="476" y="-30"/>
      <point x="343" y="22"/>
      <point x="250" y="129"/>
      <point x="200" y="293"/>
      <point x="200" y="404" type="qcurve"/>
      <point x="200" y="422"/>
      <point x="200" y="454"/>
      <point x="203" y="490"/>
      <point x="207" y="533"/>
      <point x="211" y="562" type="qcurve"/>
      <point x="326" y="1434" type="line"/>
    </contour>
  </outline>
</glyph>
<glyph name="uogonek" format="2">
  <advance width="840"/>
  <unicode hex="0173"/>
  <outline>
    <contour>
      <point x="368" y="1004" type="line"/>
      <point x="275" y="305" type="line"/>
      <point x="271" y="269"/>
      <point x="271" y="239" type="qcurve"/>
      <point x="271" y="193"/>
      <point x="291" y="129"/>
      <point x="325" y="90"/>
      <point x="369" y="72"/>
      <point x="393" y="72" type="qcurve"/>
      <point x="434" y="72"/>
      <point x="506" y="107"/>
      <point x="569" y="163"/>
      <point x="620" y="230"/>
      <point x="641" y="263" type="qcurve"/>
      <point x="734" y="974" type="line"/>
      <point x="838" y="1004" type="line"/>
      <point x="860" y="1004" type="line"/>
      <point x="752" y="189" type="line"/>
      <point x="750" y="174"/>
      <point x="749" y="149"/>
      <point x="749" y="138" type="qcurve"/>
      <point x="749" y="101"/>
      <point x="772" y="72"/>
      <point x="795" y="72" type="qcurve"/>
      <point x="782" y="-30" type="line"/>
      <point x="773" y="-30"/>
      <point x="758" y="-29"/>
      <point x="751" y="-28" type="qcurve"/>
      <point x="731" y="-47"/>
      <point x="689" y="-91"/>
      <point x="653" y="-144"/>
      <point x="629" y="-205"/>
      <point x="629" y="-241" type="qcurve"/>
      <point x="629" y="-279"/>
      <point x="662" y="-328"/>
      <point x="686" y="-328" type="qcurve"/>
      <point x="703" y="-328"/>
      <point x="727" y="-318"/>
      <point x="746" y="-302" type="qcurve"/>
      <point x="760" y="-412" type="line"/>
      <point x="728" y="-429"/>
      <point x="687" y="-440"/>
      <point x="665" y="-440" type="qcurve"/>
      <point x="635" y="-440"/>
      <point x="587" y="-414"/>
      <point x="554" y="-369"/>
      <point x="538" y="-307"/>
      <point x="538" y="-272" type="qcurve"/>
      <point x="538" y="-226"/>
      <point x="566" y="-146"/>
      <point x="611" y="-80"/>
      <point x="665" y="-27"/>
      <point x="692" y="-7" type="qcurve"/>
      <point x="661" y="16"/>
      <point x="635" y="97"/>
      <point x="632" y="142" type="qcurve"/>
      <point x="625" y="142" type="line"/>
      <point x="608" y="116"/>
      <point x="556" y="56"/>
      <point x="486" y="4"/>
      <point x="402" y="-30"/>
      <point x="355" y="-30" type="qcurve"/>
      <point x="314" y="-30"/>
      <point x="238" y="-3"/>
      <point x="180" y="55"/>
      <point x="146" y="146"/>
      <point x="146" y="210" type="qcurve"/>
      <point x="146" y="227"/>
      <point x="149" y="261"/>
      <point x="151" y="280" type="qcurve"/>
      <point x="242" y="974" type="line"/>
      <point x="346" y="1004" type="line"/>
    </contour>
  </outline>
</glyph>
<glyph name="longs" format="2">
  <advance width="432"/>
  <unicode hex="017F"/>
  <outline>
    <contour>
      <point x="253" y="0" type="line"/>
      <point x="131" y="0" type="line"/>
      <point x="278" y="1108" type="line"/>
      <point x="290" y="1198"/>
      <point x="335" y="1331"/>
      <point x="413" y="1420"/>
      <point x="527" y="1464"/>
      <point x="608" y="1464" type="qcurve"/>
      <point x="595" y="1362" type="line"/>
      <point x="547" y="1361"/>
      <point x="480" y="1327"/>
      <point x="435" y="1268"/>
      <point x="410" y="1186"/>
      <point x="403" y="1137" type="qcurve"/>
    </contour>
  </outline>
</glyph>
<glyph name="uni019E" format="2">
  <advance width="840"/>
  <unicode hex="019E"/>
  <outline>
    <contour>
      <point x="666" y="-460" type="line"/>
      <point x="563" y="-490" type="line"/>
      <point x="541" y="-490" type="line"/>
      <point x="697" y="687" type="line"/>
      <point x="710" y="790"/>
      <point x="652" y="902"/>
      <point x="584" y="902" type="qcurve"/>
      <point x="513" y="902"/>
      <point x="389" y="797"/>
      <point x="327" y="697" type="qcurve"/>
      <point x="236" y="0" type="line"/>
      <point x="114" y="0" type="line"/>
      <point x="239" y="944" type="line"/>
      <point x="341" y="974" type="line"/>
      <point x="364" y="974" type="line"/>
      <point x="346" y="837" type="line"/>
      <point x="353" y="837" type="line"/>
      <point x="418" y="925"/>
      <point x="546" y="1004"/>
      <point x="614" y="1004" type="qcurve"/>
      <point x="669" y="1004"/>
      <point x="753" y="963"/>
      <point x="809" y="887"/>
      <point x="830" y="776"/>
      <point x="821" y="707" type="qcurve"/>
    </contour>
  </outline>
</glyph>
<glyph name="uni0250" format="2">
  <advance width="768"/>
  <unicode hex="0250"/>
  <outline>
    <contour>
      <point x="708" y="125" type="line"/>
      <point x="647" y="49"/>
      <point x="502" y="-30"/>
      <point x="416" y="-30" type="qcurve"/>
      <point x="365" y="-30"/>
      <point x="275" y="6"/>
      <point x="206" y="80"/>
      <point x="167" y="189"/>
      <point x="167" y="263" type="qcurve"/>
      <point x="167" y="280"/>
      <point x="169" y="317"/>
      <point x="172" y="337" type="qcurve"/>
      <point x="233" y="800" type="line"/>
      <point x="236" y="819"/>
      <point x="236" y="835" type="qcurve"/>
      <point x="236" y="902"/>
      <point x="188" y="902" type="qcurve"/>
      <point x="202" y="1004" type="line"/>
      <point x="256" y="1004"/>
      <point x="308" y="971"/>
      <point x="338" y="920"/>
      <point x="350" y="859"/>
      <point x="351" y="832" type="qcurve"/>
      <point x="359" y="832" type="line"/>
      <point x="381" y="861"/>
      <point x="440" y="922"/>
      <point x="512" y="972"/>
      <point x="599" y="1004"/>
      <point x="650" y="1004" type="qcurve"/>
      <point x="689" y="1004"/>
      <point x="753" y="973"/>
      <point x="797" y="916"/>
      <point x="821" y="835"/>
      <point x="821" y="786" type="qcurve"/>
      <point x="821" y="682"/>
      <point x="751" y="529"/>
      <point x="617" y="428"/>
      <point x="423" y="377"/>
      <point x="299" y="375" type="qcurve"/>
      <point x="288" y="297" type="line"/>
      <point x="287" y="283"/>
      <point x="284" y="259"/>
      <point x="284" y="247" type="qcurve"/>
      <point x="284" y="200"/>
      <point x="310" y="134"/>
      <point x="351" y="92"/>
      <point x="403" y="72"/>
      <point x="429" y="72" type="qcurve"/>
      <point x="495" y="72"/>
      <point x="602" y="158"/>
      <point x="645" y="227" type="qcurve"/>
    </contour>
    <contour>
      <point x="307" y="437" type="line"/>
      <point x="398" y="438"/>
      <point x="543" y="481"/>
      <point x="644" y="562"/>
      <point x="698" y="680"/>
      <point x="698" y="756" type="qcurve"/>
      <point x="698" y="794"/>
      <point x="677" y="849"/>
      <point x="647" y="885"/>
      <point x="610" y="902"/>
      <point x="594" y="902" type="qcurve"/>
      <point x="524" y="902"/>
      <point x="401" y="810"/>
      <point x="345" y="731" type="qcurve"/>
    </contour>
  </outline>
</glyph>
<glyph name="uni0253" format="2">
  <advance width="840"/>
  <unicode hex="0253"/>
  <outline>
    <contour>
      <point x="566" y="1464" type="qcurve" name="at01"/>
      <point x="539" y="1362" type="line"/>
      <point x="512" y="1362"/>
      <point x="461" y="1339"/>
      <point x="419" y="1284"/>
      <point x="386" y="1193"/>
      <point x="377" y="1126" type="qcurve"/>
      <point x="347" y="902" type="line" name="sv01"/>
      <point x="355" y="902" type="line"/>
      <point x="374" y="921"/>
      <point x="424" y="958"/>
      <point x="482" y="987"/>
      <point x="545" y="1004"/>
      <point x="578" y="1004" type="qcurve" name="at02"/>
      <point x="638" y="1004"/>
      <point x="741" y="945"/>
      <point x="816" y="838"/>
      <point x="858" y="687"/>
      <point x="858" y="596" type="qcurve" name="dh02"/>
      <point x="858" y="471"/>
      <point x="791" y="245"/>
      <point x="673" y="72"/>
      <point x="512" y="-30"/>
      <point x="417" y="-30" type="qcurve" name="ab01"/>
      <point x="385" y="-30"/>
      <point x="317" y="-12"/>
      <point x="247" y="37"/>
      <point x="172" y="123"/>
      <point x="131" y="190" type="qcurve"/>
      <point x="245" y="1051" type="line"/>
      <point x="261" y="1169"/>
      <point x="319" y="1328"/>
      <point x="400" y="1424"/>
      <point x="504" y="1464"/>
    </contour>
    <contour>
      <point x="253" y="190" type="line"/>
      <point x="282" y="139"/>
      <point x="369" y="72"/>
      <point x="423" y="72" type="qcurve" name="sv02"/>
      <point x="468" y="72"/>
      <point x="574" y="141"/>
      <point x="666" y="273"/>
      <point x="728" y="467"/>
      <point x="728" y="592" type="qcurve" name="dh01"/>
      <point x="728" y="666"/>
      <point x="698" y="782"/>
      <point x="647" y="861"/>
      <point x="579" y="902"/>
      <point x="541" y="902" type="qcurve" name="sv03"/>
      <point x="506" y="902"/>
      <point x="445" y="881"/>
      <point x="392" y="847"/>
      <point x="349" y="806"/>
      <point x="332" y="785" type="qcurve"/>
    </contour>
  </outline>
</glyph>
<glyph name="uni0258" format="2">
  <advance width="768"/>
  <unicode hex="0258"/>
  <outline>
    <contour>
      <point x="118" y="487" type="line" name="dv01"/>
      <point x="136" y="622"/>
      <point x="215" y="817"/>
      <point x="320" y="944"/>
      <point x="443" y="1004"/>
      <point x="506" y="1004" type="qcurve" name="at01"/>
      <point x="576" y="1004"/>
      <point x="693" y="931"/>
      <point x="772" y="800"/>
      <point x="803" y="617"/>
      <point x="788" y="507" type="qcurve"/>
      <point x="771" y="375"/>
      <point x="689" y="174"/>
      <point x="573" y="39"/>
      <point x="427" y="-30"/>
      <point x="344" y="-30" type="qcurve" name="ab01"/>
      <point x="292" y="-30"/>
      <point x="208" y="4"/>
      <point x="145" y="53"/>
      <point x="102" y="106"/>
      <point x="93" y="125" type="qcurve"/>
      <point x="182" y="227" type="line" name="iv01"/>
      <point x="189" y="204"/>
      <point x="218" y="149"/>
      <point x="260" y="103"/>
      <point x="317" y="72"/>
      <point x="353" y="72" type="qcurve" name="sv01"/>
      <point x="400" y="72"/>
      <point x="495" y="116"/>
      <point x="578" y="215"/>
      <point x="641" y="373"/>
      <point x="656" y="487" type="qcurve"/>
    </contour>
    <contour>
      <point x="670" y="589" type="line"/>
      <point x="676" y="655"/>
      <point x="658" y="769"/>
      <point x="614" y="853"/>
      <point x="544" y="902"/>
      <point x="498" y="902" type="qcurve" name="sv02"/>
      <point x="449" y="902"/>
      <point x="364" y="849"/>
      <point x="298" y="762"/>
      <point x="254" y="649"/>
      <point x="245" y="589" type="qcurve" name="dv02"/>
    </contour>
  </outline>
</glyph>
<glyph name="uni025A" format="2">
  <advance width="1080"/>
  <unicode hex="025A"/>
  <outline>
    <contour>
      <point x="188" y="849" type="line"/>
      <point x="211" y="877"/>
      <point x="272" y="932"/>
      <point x="350" y="976"/>
      <point x="443" y="1004"/>
      <point x="496" y="1004" type="qcurve"/>
      <point x="556" y="1004"/>
      <point x="647" y="965"/>
      <point x="714" y="904"/>
      <point x="760" y="827"/>
      <point x="775" y="789" type="qcurve"/>
      <point x="1054" y="1004" type="line"/>
      <point x="1061" y="974" type="line"/>
      <point x="1039" y="942"/>
      <point x="1002" y="886"/>
      <point x="976" y="830"/>
      <point x="962" y="770"/>
      <point x="962" y="734" type="qcurve"/>
      <point x="962" y="702"/>
      <point x="992" y="653"/>
      <point x="1020" y="653" type="qcurve"/>
      <point x="1049" y="653"/>
      <point x="1080" y="707"/>
      <point x="1080" y="746" type="qcurve"/>
      <point x="1154" y="746" type="line"/>
      <point x="1154" y="706"/>
      <point x="1132" y="635"/>
      <point x="1094" y="582"/>
      <point x="1043" y="551"/>
      <point x="1013" y="551" type="qcurve"/>
      <point x="988" y="551"/>
      <point x="945" y="574"/>
      <point x="914" y="614"/>
      <point x="897" y="669"/>
      <point x="897" y="701" type="qcurve"/>
      <point x="897" y="724"/>
      <point x="905" y="764"/>
      <point x="911" y="782" type="qcurve"/>
      <point x="908" y="791" type="line"/>
      <point x="798" y="705" type="line"/>
      <point x="804" y="676"/>
      <point x="808" y="624"/>
      <point x="808" y="594" type="qcurve"/>
      <point x="808" y="471"/>
      <point x="746" y="245"/>
      <point x="630" y="73"/>
      <point x="467" y="-30"/>
      <point x="366" y="-30" type="qcurve"/>
      <point x="307" y="-30"/>
      <point x="209" y="15"/>
      <point x="135" y="92"/>
      <point x="86" y="193"/>
      <point x="74" y="250" type="qcurve"/>
      <point x="667" y="706" type="line"/>
      <point x="662" y="737"/>
      <point x="635" y="806"/>
      <point x="590" y="864"/>
      <point x="525" y="902"/>
      <point x="482" y="902" type="qcurve"/>
      <point x="444" y="902"/>
      <point x="377" y="869"/>
      <point x="321" y="822"/>
      <point x="279" y="768"/>
      <point x="266" y="747" type="qcurve"/>
    </contour>
    <contour>
      <point x="196" y="243" type="line"/>
      <point x="204" y="210"/>
      <point x="238" y="148"/>
      <point x="284" y="101"/>
      <point x="341" y="72"/>
      <point x="372" y="72" type="qcurve"/>
      <point x="421" y="72"/>
      <point x="505" y="119"/>
      <point x="573" y="198"/>
      <point x="626" y="303"/>
      <point x="661" y="418"/>
      <point x="679" y="537"/>
      <point x="679" y="591" type="qcurve"/>
      <point x="679" y="597"/>
      <point x="679" y="608"/>
      <point x="678" y="613" type="qcurve"/>
    </contour>
  </outline>
</glyph>
<glyph name="uni025B" format="2">
  <advance width="648"/>
  <unicode hex="025B"/>
  <outline>
    <contour>
      <point x="474" y="589" type="line"/>
      <point x="461" y="487" type="line"/>
      <point x="386" y="487" type="line"/>
      <point x="347" y="487"/>
      <point x="284" y="437"/>
      <point x="239" y="360"/>
      <point x="215" y="266"/>
      <point x="215" y="223" type="qcurve"/>
      <point x="215" y="187"/>
      <point x="235" y="131"/>
      <point x="268" y="92"/>
      <point x="311" y="72"/>
      <point x="334" y="72" type="qcurve"/>
      <point x="357" y="72"/>
      <point x="410" y="95"/>
      <point x="464" y="136"/>
      <point x="513" y="193"/>
      <point x="533" y="227" type="qcurve"/>
      <point x="609" y="125" type="line"/>
      <point x="544" y="47"/>
      <point x="407" y="-30"/>
      <point x="321" y="-30" type="qcurve"/>
      <point x="276" y="-30"/>
      <point x="196" y="4"/>
      <point x="135" y="67"/>
      <point x="100" y="156"/>
      <point x="100" y="210" type="qcurve"/>
      <point x="100" y="279"/>
      <point x="137" y="388"/>
      <point x="200" y="470"/>
      <point x="282" y="529"/>
      <point x="326" y="548" type="qcurve"/>
      <point x="327" y="558" type="line"/>
      <point x="304" y="571"/>
      <point x="263" y="606"/>
      <point x="233" y="651"/>
      <point x="216" y="707"/>
      <point x="216" y="741" type="qcurve"/>
      <point x="216" y="808"/>
      <point x="258" y="907"/>
      <point x="326" y="972"/>
      <point x="412" y="1004"/>
      <point x="455" y="1004" type="qcurve"/>
      <point x="491" y="1004"/>
      <point x="563" y="980"/>
      <point x="629" y="938"/>
      <point x="686" y="882"/>
      <point x="705" y="849" type="qcurve"/>
      <point x="629" y="747" type="line"/>
      <point x="614" y="777"/>
      <point x="577" y="833"/>
      <point x="530" y="876"/>
      <point x="475" y="902"/>
      <point x="442" y="902" type="qcurve"/>
      <point x="415" y="902"/>
      <point x="371" y="874"/>
      <point x="339" y="827"/>
      <point x="322" y="766"/>
      <point x="322" y="733" type="qcurve"/>
      <point x="322" y="698"/>
      <point x="341" y="645"/>
      <point x="371" y="608"/>
      <point x="409" y="589"/>
      <point x="428" y="589" type="qcurve"/>
    </contour>
  </outline>
</glyph>
<glyph name="uni0262" format="2">
  <advance width="840"/>
  <unicode hex="0262"/>
  <outline>
    <contour>
      <point x="542" y="487" type="line"/>
      <point x="817" y="487" type="line"/>
      <point x="770" y="135" type="line"/>
      <point x="737" y="93"/>
      <point x="659" y="31"/>
      <point x="575" y="-10"/>
      <point x="488" y="-30"/>
      <point x="449" y="-30" type="qcurve"/>
      <point x="371" y="-30"/>
      <point x="248" y="31"/>
      <point x="163" y="144"/>
      <point x="119" y="303"/>
      <point x="119" y="401" type="qcurve"/>
      <point x="119" y="527"/>
      <point x="193" y="747"/>
      <point x="321" y="911"/>
      <point x="491" y="1005"/>
      <point x="587" y="1005" type="qcurve"/>
      <point x="632" y="1005"/>
      <point x="716" y="982"/>
      <point x="788" y="940"/>
      <point x="845" y="883"/>
      <point x="865" y="849" type="qcurve"/>
      <point x="788" y="747" type="line"/>
      <point x="773" y="780"/>
      <point x="734" y="837"/>
      <point x="683" y="879"/>
      <point x="620" y="903"/>
      <point x="581" y="903" type="qcurve"/>
      <point x="507" y="903"/>
      <point x="385" y="810"/>
      <point x="297" y="662"/>
      <point x="248" y="480"/>
      <point x="248" y="390" type="qcurve"/>
      <point x="248" y="319"/>
      <point x="275" y="202"/>
      <point x="329" y="118"/>
      <point x="409" y="72"/>
      <point x="462" y="72" type="qcurve"/>
      <point x="523" y="72"/>
      <point x="619" y="127"/>
      <point x="653" y="167" type="qcurve"/>
      <point x="682" y="385" type="line"/>
      <point x="528" y="385" type="line"/>
    </contour>
  </outline>
</glyph>
<glyph name="uni0265" format="2">
  <advance width="840"/>
  <unicode hex="0265"/>
  <outline>
    <contour>
      <point x="541" y="-490" type="line" name="ab01"/>
      <point x="624" y="137" type="line"/>
      <point x="617" y="137" type="line"/>
      <point x="551" y="49"/>
      <point x="424" y="-30"/>
      <point x="356" y="-30" type="qcurve" name="ab02"/>
      <point x="307" y="-30"/>
      <point x="229" y="2"/>
      <point x="174" y="62"/>
      <point x="144" y="149"/>
      <point x="144" y="205" type="qcurve" name="dh01"/>
      <point x="144" y="219"/>
      <point x="147" y="251"/>
      <point x="149" y="267" type="qcurve" name="sh01"/>
      <point x="217" y="777" type="line" name="sh02"/>
      <point x="221" y="808"/>
      <point x="221" y="833" type="qcurve" name="ih01"/>
      <point x="221" y="869"/>
      <point x="199" y="902"/>
      <point x="175" y="902" type="qcurve"/>
      <point x="188" y="1004" type="line" name="at01"/>
      <point x="269" y="1004"/>
      <point x="340" y="909"/>
      <point x="340" y="828" type="qcurve" name="sh03"/>
      <point x="340" y="808"/>
      <point x="337" y="768"/>
      <point x="334" y="747" type="qcurve" name="sh04"/>
      <point x="273" y="287" type="line" name="sh05"/>
      <point x="269" y="255"/>
      <point x="269" y="227" type="qcurve" name="dh02"/>
      <point x="269" y="152"/>
      <point x="328" y="72"/>
      <point x="386" y="72" type="qcurve" name="sv01"/>
      <point x="457" y="72"/>
      <point x="581" y="177"/>
      <point x="643" y="277" type="qcurve"/>
      <point x="734" y="974" type="line"/>
      <point x="838" y="1004" type="line" name="at02"/>
      <point x="860" y="1004" type="line"/>
      <point x="667" y="-460" type="line"/>
      <point x="563" y="-490" type="line"/>
    </contour>
  </outline>
</glyph>
<glyph name="uni0267" format="2">
  <advance width="840"/>
  <unicode hex="0267"/>
  <outline>
    <contour>
      <point x="574" y="1464" type="qcurve"/>
      <point x="560" y="1362" type="line"/>
      <point x="520" y="1362"/>
      <point x="469" y="1339"/>
      <point x="447" y="1311" type="qcurve"/>
      <point x="425" y="1284"/>
      <point x="393" y="1193"/>
      <point x="384" y="1126" type="qcurve"/>
      <point x="346" y="837" type="line"/>
      <point x="353" y="837" type="line"/>
      <point x="412" y="916"/>
      <point x="542" y="1004"/>
      <point x="622" y="1004" type="qcurve"/>
      <point x="668" y="1004"/>
      <point x="742" y="972"/>
      <point x="794" y="911"/>
      <point x="824" y="821"/>
      <point x="824" y="764" type="qcurve"/>
      <point x="824" y="733"/>
      <point x="819" y="697" type="qcurve"/>
      <point x="717" y="-77" type="line"/>
      <point x="701" y="-196"/>
      <point x="644" y="-354"/>
      <point x="563" y="-450"/>
      <point x="458" y="-490"/>
      <point x="396" y="-490" type="qcurve"/>
      <point x="410" y="-388" type="line"/>
      <point x="452" y="-387"/>
      <point x="513" y="-351"/>
      <point x="554" y="-289"/>
      <point x="579" y="-203"/>
      <point x="586" y="-152" type="qcurve"/>
      <point x="698" y="697" type="line"/>
      <point x="701" y="714"/>
      <point x="701" y="745" type="qcurve"/>
      <point x="701" y="817"/>
      <point x="640" y="902"/>
      <point x="584" y="902" type="qcurve"/>
      <point x="546" y="902"/>
      <point x="475" y="869"/>
      <point x="410" y="812"/>
      <point x="352" y="738"/>
      <point x="327" y="696" type="qcurve"/>
      <point x="236" y="0" type="line"/>
      <point x="114" y="0" type="line"/>
      <point x="253" y="1051" type="line"/>
      <point x="269" y="1169"/>
      <point x="326" y="1328"/>
      <point x="407" y="1424"/>
      <point x="512" y="1464"/>
    </contour>
  </outline>
</glyph>
<glyph name="uni026A" format="2">
  <advance width="432"/>
  <unicode hex="026A"/>
  <outline>
    <contour>
      <point x="410" y="1004" type="line"/>
      <point x="305" y="213" type="line"/>
      <point x="302" y="198"/>
      <point x="299" y="155"/>
      <point x="299" y="144" type="qcurve"/>
      <point x="299" y="105"/>
      <point x="322" y="72"/>
      <point x="344" y="72" type="qcurve"/>
      <point x="331" y="-30" type="line"/>
      <point x="297" y="-30"/>
      <point x="241" y="-11"/>
      <point x="201" y="29"/>
      <point x="179" y="94"/>
      <point x="179" y="141" type="qcurve"/>
      <point x="179" y="160"/>
      <point x="181" y="202"/>
      <point x="185" y="226" type="qcurve"/>
      <point x="284" y="974" type="line"/>
      <point x="386" y="1004" type="line"/>
    </contour>
  </outline>
</glyph>
<glyph name="uni0271" format="2">
  <advance width="1248"/>
  <unicode hex="0271"/>
  <outline>
    <contour>
      <point x="824" y="-388" type="line"/>
      <point x="901" y="-388"/>
      <point x="985" y="-270"/>
      <point x="1000" y="-152" type="qcurve"/>
      <point x="1114" y="722" type="line"/>
      <point x="1115" y="727"/>
      <point x="1115" y="741"/>
      <point x="1115" y="747" type="qcurve"/>
      <point x="1115" y="820"/>
      <point x="1060" y="902"/>
      <point x="1013" y="902" type="qcurve"/>
      <point x="980" y="902"/>
      <point x="919" y="872"/>
      <point x="862" y="817"/>
      <point x="806" y="742"/>
      <point x="776" y="697" type="qcurve"/>
      <point x="685" y="0" type="line"/>
      <point x="563" y="0" type="line"/>
      <point x="658" y="716" type="line"/>
      <point x="660" y="732"/>
      <point x="660" y="750" type="qcurve"/>
      <point x="660" y="779"/>
      <point x="647" y="834"/>
      <point x="622" y="876"/>
      <point x="585" y="902"/>
      <point x="562" y="902" type="qcurve"/>
      <point x="526" y="902"/>
      <point x="464" y="872"/>
      <point x="405" y="817"/>
      <point x="349" y="741"/>
      <point x="320" y="696" type="qcurve"/>
      <point x="228" y="0" type="line"/>
      <point x="107" y="0" type="line"/>
      <point x="231" y="944" type="line"/>
      <point x="334" y="974" type="line"/>
      <point x="356" y="974" type="line"/>
      <point x="338" y="838" type="line"/>
      <point x="347" y="838" type="line"/>
      <point x="377" y="882"/>
      <point x="436" y="945"/>
      <point x="497" y="985"/>
      <point x="561" y="1004"/>
      <point x="598" y="1004" type="qcurve"/>
      <point x="638" y="1004"/>
      <point x="699" y="977"/>
      <point x="744" y="930"/>
      <point x="773" y="865"/>
      <point x="780" y="828" type="qcurve"/>
      <point x="788" y="828" type="line"/>
      <point x="819" y="872"/>
      <point x="880" y="938"/>
      <point x="942" y="982"/>
      <point x="1009" y="1004"/>
      <point x="1047" y="1004" type="qcurve"/>
      <point x="1082" y="1004"/>
      <point x="1151" y="976"/>
      <point x="1206" y="918"/>
      <point x="1240" y="831"/>
      <point x="1240" y="772" type="qcurve"/>
      <point x="1240" y="758"/>
      <point x="1238" y="731"/>
      <point x="1236" y="716" type="qcurve"/>
      <point x="1131" y="-77" type="line"/>
      <point x="1115" y="-196"/>
      <point x="1058" y="-354"/>
      <point x="977" y="-450"/>
      <point x="872" y="-490"/>
      <point x="811" y="-490" type="qcurve"/>
    </contour>
  </outline>
</glyph>
<glyph name="uni027E" format="2">
  <advance width="432"/>
  <unicode hex="027E"/>
  <outline>
    <contour>
      <point x="532" y="1004" type="qcurve"/>
      <point x="518" y="902" type="line"/>
      <point x="473" y="902"/>
      <point x="412" y="872"/>
      <point x="371" y="814"/>
      <point x="347" y="731"/>
      <point x="340" y="677" type="qcurve"/>
      <point x="251" y="0" type="line"/>
      <point x="129" y="0" type="line"/>
      <point x="215" y="648" type="line"/>
      <point x="228" y="750"/>
      <point x="268" y="886"/>
      <point x="339" y="969"/>
      <point x="449" y="1004"/>
    </contour>
  </outline>
</glyph>
<glyph name="uni0280" format="2">
  <advance width="768"/>
  <unicode hex="0280"/>
  <outline>
    <contour>
      <point x="250" y="974" type="line"/>
      <point x="553" y="974" type="line"/>
      <point x="611" y="974"/>
      <point x="698" y="940"/>
      <point x="755" y="878"/>
      <point x="784" y="792"/>
      <point x="784" y="740" type="qcurve"/>
      <point x="784" y="665"/>
      <point x="734" y="551"/>
      <point x="655" y="470"/>
      <point x="558" y="419"/>
      <point x="511" y="409" type="qcurve"/>
      <point x="510" y="405" type="line"/>
      <point x="687" y="0" type="line"/>
      <point x="554" y="-30" type="line"/>
      <point x="400" y="405" type="line"/>
      <point x="296" y="405" type="line"/>
      <point x="243" y="0" type="line"/>
      <point x="122" y="0" type="line"/>
    </contour>
    <contour>
      <point x="358" y="872" type="line"/>
      <point x="307" y="487" type="line"/>
      <point x="445" y="487" type="line"/>
      <point x="487" y="487"/>
      <point x="562" y="527"/>
      <point x="619" y="596"/>
      <point x="653" y="689"/>
      <point x="653" y="742" type="qcurve"/>
      <point x="653" y="814"/>
      <point x="579" y="872"/>
      <point x="518" y="872" type="qcurve"/>
    </contour>
  </outline>
</glyph>
<glyph name="uni0281" format="2">
  <advance width="768"/>
  <unicode hex="0281"/>
  <outline>
    <contour>
      <point x="250" y="974" type="line"/>
      <point x="353" y="1004" type="line"/>
      <point x="376" y="1004" type="line"/>
      <point x="318" y="569" type="line"/>
      <point x="399" y="569" type="line"/>
      <point x="694" y="1004" type="line"/>
      <point x="815" y="974" type="line"/>
      <point x="509" y="569" type="line"/>
      <point x="509" y="565" type="line"/>
      <point x="537" y="558"/>
      <point x="605" y="524"/>
      <point x="663" y="467"/>
      <point x="703" y="384"/>
      <point x="703" y="329" type="qcurve"/>
      <point x="703" y="255"/>
      <point x="659" y="134"/>
      <point x="580" y="47"/>
      <point x="469" y="0"/>
      <point x="402" y="0" type="qcurve"/>
      <point x="122" y="0" type="line"/>
    </contour>
    <contour>
      <point x="394" y="102" type="line"/>
      <point x="433" y="102"/>
      <point x="499" y="129"/>
      <point x="547" y="183"/>
      <point x="573" y="262"/>
      <point x="573" y="313" type="qcurve"/>
      <point x="573" y="353"/>
      <point x="551" y="418"/>
      <point x="510" y="463"/>
      <point x="455" y="487"/>
      <point x="422" y="487" type="qcurve"/>
      <point x="307" y="487" type="line"/>
      <point x="256" y="102" type="line"/>
    </contour>
  </outline>
</glyph>
<glyph name="uni0282" format="2">
  <advance width="648"/>
  <unicode hex="0282"/>
  <outline>
    <contour>
      <point x="163" y="227" type="line" name="ih01"/>
      <point x="176" y="197"/>
      <point x="215" y="141"/>
      <point x="263" y="98"/>
      <point x="317" y="72"/>
      <point x="347" y="72" type="qcurve" name="sv01"/>
      <point x="376" y="72"/>
      <point x="430" y="93"/>
      <point x="473" y="135"/>
      <point x="498" y="201"/>
      <point x="498" y="246" type="qcurve" name="dh05"/>
      <point x="498" y="274"/>
      <point x="485" y="323"/>
      <point x="453" y="369"/>
      <point x="397" y="413"/>
      <point x="353" y="436" type="qcurve"/>
      <point x="326" y="450"/>
      <point x="272" y="499"/>
      <point x="230" y="566"/>
      <point x="204" y="652"/>
      <point x="204" y="703" type="qcurve" name="dh03"/>
      <point x="204" y="772"/>
      <point x="240" y="883"/>
      <point x="306" y="961"/>
      <point x="398" y="1004"/>
      <point x="455" y="1004" type="qcurve" name="at01"/>
      <point x="491" y="1004"/>
      <point x="556" y="980"/>
      <point x="613" y="938"/>
      <point x="659" y="882"/>
      <point x="675" y="849" type="qcurve"/>
      <point x="599" y="747" type="line" name="ih02"/>
      <point x="589" y="778"/>
      <point x="558" y="834"/>
      <point x="518" y="877"/>
      <point x="470" y="902"/>
      <point x="442" y="902" type="qcurve" name="sv02"/>
      <point x="419" y="902"/>
      <point x="377" y="879"/>
      <point x="344" y="837"/>
      <point x="326" y="779"/>
      <point x="326" y="743" type="qcurve" name="dh04"/>
      <point x="326" y="683"/>
      <point x="377" y="605"/>
      <point x="434" y="576" type="qcurve"/>
      <point x="531" y="527"/>
      <point x="620" y="384"/>
      <point x="620" y="287" type="qcurve" name="dh06"/>
      <point x="620" y="210"/>
      <point x="578" y="92"/>
      <point x="502" y="12"/>
      <point x="397" y="-30"/>
      <point x="333" y="-30" type="qcurve" name="ab02"/>
      <point x="299" y="-30"/>
      <point x="229" y="-10"/>
      <point x="192" y="11" type="qcurve" name="sh02"/>
      <point x="169" y="-163" type="line" name="sh01"/>
      <point x="162" y="-211"/>
      <point x="162" y="-248" type="qcurve" name="dh02"/>
      <point x="162" y="-288"/>
      <point x="182" y="-341"/>
      <point x="215" y="-374"/>
      <point x="261" y="-388"/>
      <point x="287" y="-388" type="qcurve"/>
      <point x="274" y="-490" type="line" name="ab01"/>
      <point x="209" y="-490"/>
      <point x="121" y="-460"/>
      <point x="65" y="-404"/>
      <point x="41" y="-322"/>
      <point x="41" y="-269" type="qcurve" name="dh01"/>
      <point x="41" y="-243"/>
      <point x="45" y="-176"/>
      <point x="51" y="-134" type="qcurve" name="sh03"/>
      <point x="86" y="125" type="line"/>
    </contour>
  </outline>
</glyph>
<glyph name="uni0283" format="2">
  <advance width="552"/>
  <unicode hex="0283"/>
  <outline>
    <contour>
      <point x="32" y="-388" type="line" name="sv01"/>
      <point x="75" y="-388"/>
      <point x="136" y="-352"/>
      <point x="176" y="-289"/>
      <point x="200" y="-203"/>
      <point x="207" y="-152" type="qcurve"/>
      <point x="366" y="1051" type="line"/>
      <point x="382" y="1169"/>
      <point x="440" y="1328"/>
      <point x="521" y="1424"/>
      <point x="624" y="1464"/>
      <point x="686" y="1464" type="qcurve" name="at01"/>
      <point x="673" y="1362" type="line" name="sv02"/>
      <point x="596" y="1362"/>
      <point x="513" y="1244"/>
      <point x="497" y="1126" type="qcurve"/>
      <point x="338" y="-77" type="line"/>
      <point x="323" y="-196"/>
      <point x="265" y="-354"/>
      <point x="184" y="-450"/>
      <point x="80" y="-490"/>
      <point x="18" y="-490" type="qcurve" name="ab01"/>
    </contour>
  </outline>
</glyph>
<glyph name="uni0284" format="2">
  <advance width="552"/>
  <unicode hex="0284"/>
  <outline>
    <contour>
      <point x="32" y="-388" type="line"/>
      <point x="75" y="-388"/>
      <point x="136" y="-352"/>
      <point x="176" y="-289"/>
      <point x="200" y="-203"/>
      <point x="207" y="-152" type="qcurve"/>
      <point x="227" y="0" type="line"/>
      <point x="83" y="0" type="line"/>
      <point x="96" y="99" type="line"/>
      <point x="242" y="108" type="line"/>
      <point x="366" y="1051" type="line"/>
      <point x="382" y="1169"/>
      <point x="440" y="1328"/>
      <point x="521" y="1424"/>
      <point x="624" y="1464"/>
      <point x="686" y="1464" type="qcurve"/>
      <point x="673" y="1362" type="line"/>
      <point x="596" y="1362"/>
      <point x="513" y="1244"/>
      <point x="497" y="1126" type="qcurve"/>
      <point x="364" y="116" type="line"/>
      <point x="509" y="125" type="line"/>
      <point x="494" y="0" type="line"/>
      <point x="348" y="0" type="line"/>
      <point x="338" y="-77" type="line"/>
      <point x="323" y="-196"/>
      <point x="265" y="-354"/>
      <point x="184" y="-450"/>
      <point x="80" y="-490"/>
      <point x="18" y="-490" type="qcurve"/>
    </contour>
  </outline>
</glyph>
<glyph name="uni0285" format="2">
  <advance width="552"/>
  <unicode hex="0285"/>
  <outline>
    <contour>
      <point x="503" y="72" type="qcurve"/>
      <point x="490" y="-30" type="line"/>
      <point x="441" y="-30"/>
      <point x="360" y="-1"/>
      <point x="302" y="66"/>
      <point x="269" y="176"/>
      <point x="269" y="258" type="qcurve"/>
      <point x="269" y="313"/>
      <point x="278" y="382" type="qcurve"/>
      <point x="377" y="1127" type="line"/>
      <point x="380" y="1148"/>
      <point x="382" y="1185"/>
      <point x="382" y="1202" type="qcurve"/>
      <point x="382" y="1248"/>
      <point x="365" y="1310"/>
      <point x="335" y="1347"/>
      <point x="291" y="1362"/>
      <point x="263" y="1362" type="qcurve"/>
      <point x="277" y="1464" type="line"/>
      <point x="326" y="1464"/>
      <point x="407" y="1435"/>
      <point x="465" y="1368"/>
      <point x="497" y="1258"/>
      <point x="497" y="1176" type="qcurve"/>
      <point x="497" y="1121"/>
      <point x="488" y="1052" type="qcurve"/>
      <point x="390" y="307" type="line"/>
      <point x="387" y="286"/>
      <point x="384" y="248"/>
      <point x="384" y="231" type="qcurve"/>
      <point x="384" y="185"/>
      <point x="401" y="124"/>
      <point x="431" y="87"/>
      <point x="476" y="72"/>
    </contour>
  </outline>
</glyph>
<glyph name="uni0288" format="2">
  <advance width="552"/>
  <unicode hex="0288"/>
  <outline>
    <contour>
      <point x="485" y="1322" type="line" name="av01"/>
      <point x="443" y="1004" type="line"/>
      <point x="604" y="1004" type="line"/>
      <point x="587" y="872" type="line"/>
      <point x="427" y="886" type="line"/>
      <point x="288" y="-163" type="line" name="sh01"/>
      <point x="285" y="-186"/>
      <point x="281" y="-226"/>
      <point x="281" y="-244" type="qcurve" name="dh02"/>
      <point x="281" y="-316"/>
      <point x="341" y="-388"/>
      <point x="407" y="-388" type="qcurve"/>
      <point x="393" y="-490" type="line" name="ab01"/>
      <point x="338" y="-490"/>
      <point x="251" y="-469"/>
      <point x="192" y="-417"/>
      <point x="161" y="-329"/>
      <point x="161" y="-261" type="qcurve" name="dh01"/>
      <point x="161" y="-212"/>
      <point x="168" y="-156" type="qcurve" name="sh02"/>
      <point x="306" y="893" type="line"/>
      <point x="181" y="902" type="line"/>
      <point x="194" y="1004" type="line"/>
      <point x="321" y="1004" type="line"/>
      <point x="359" y="1292" type="line"/>
      <point x="461" y="1322" type="line"/>
    </contour>
  </outline>
</glyph>
<glyph name="uni028E" format="2">
  <advance width="720"/>
  <unicode hex="028E"/>
  <guideline x="629" y="0" angle="90"/>
  <guideline x="615" y="0" angle="90"/>
  <guideline x="135" y="0" angle="72"/>
  <outline>
    <contour>
      <point x="520" y="-30" type="line" name="ab01"/>
      <point x="415" y="770" type="line"/>
      <point x="407" y="770" type="line"/>
      <point x="116" y="-30" type="line" name="ab02"/>
      <point x="39" y="0" type="line"/>
      <point x="407" y="1004" type="line"/>
      <point x="450" y="1122"/>
      <point x="526" y="1296"/>
      <point x="616" y="1409"/>
      <point x="731" y="1464"/>
      <point x="812" y="1464" type="qcurve" name="at01"/>
      <point x="799" y="1362" type="line" name="sv01"/>
      <point x="742" y="1362"/>
      <point x="657" y="1316"/>
      <point x="587" y="1225"/>
      <point x="527" y="1091"/>
      <point x="495" y="1004" type="qcurve"/>
      <point x="655" y="0" type="line"/>
    </contour>
  </outline>
</glyph>
<glyph name="uni028F" format="2">
  <advance width="720"/>
  <unicode hex="028F"/>
  <outline>
    <contour>
      <point x="473" y="487" type="line"/>
      <point x="760" y="1004" type="line"/>
      <point x="838" y="974" type="line"/>
      <point x="491" y="359" type="line"/>
      <point x="443" y="0" type="line"/>
      <point x="322" y="0" type="line"/>
      <point x="368" y="357" type="line"/>
      <point x="184" y="974" type="line"/>
      <point x="320" y="1004" type="line"/>
      <point x="468" y="487" type="line"/>
    </contour>
  </outline>
</glyph>
<glyph name="uni0291" format="2">
  <advance width="840"/>
  <unicode hex="0291"/>
  <outline>
    <contour>
      <point x="57" y="25" type="line"/>
      <point x="615" y="866" type="line"/>
      <point x="617" y="876" type="line"/>
      <point x="228" y="849" type="line"/>
      <point x="245" y="974" type="line"/>
      <point x="791" y="974" type="line"/>
      <point x="788" y="949" type="line"/>
      <point x="229" y="105" type="line"/>
      <point x="227" y="95" type="line"/>
      <point x="376" y="102" type="line"/>
      <point x="432" y="208"/>
      <point x="524" y="355"/>
      <point x="605" y="447"/>
      <point x="679" y="487"/>
      <point x="716" y="487" type="qcurve"/>
      <point x="738" y="487"/>
      <point x="782" y="468"/>
      <point x="816" y="429"/>
      <point x="838" y="369"/>
      <point x="838" y="327" type="qcurve"/>
      <point x="838" y="256"/>
      <point x="797" y="153"/>
      <point x="729" y="80"/>
      <point x="641" y="35"/>
      <point x="547" y="10"/>
      <point x="454" y="0"/>
      <point x="415" y="0" type="qcurve"/>
      <point x="305" y="-208" type="line"/>
      <point x="242" y="-154" type="line"/>
      <point x="322" y="0" type="line"/>
      <point x="54" y="0" type="line"/>
    </contour>
    <contour>
      <point x="469" y="102" type="qcurve"/>
      <point x="496" y="104"/>
      <point x="560" y="111"/>
      <point x="625" y="127"/>
      <point x="686" y="154"/>
      <point x="733" y="197"/>
      <point x="761" y="260"/>
      <point x="761" y="303" type="qcurve"/>
      <point x="761" y="337"/>
      <point x="734" y="385"/>
      <point x="704" y="385" type="qcurve"/>
      <point x="655" y="385"/>
      <point x="539" y="236"/>
    </contour>
  </outline>
</glyph>
<glyph name="uni0292" format="2">
  <advance width="768"/>
  <unicode hex="0292"/>
  <guideline x="61" y="0" angle="90"/>
  <outline>
    <contour>
      <point x="276" y="437" type="line" name="hr00"/>
      <point x="560" y="866" type="line"/>
      <point x="562" y="876" type="line"/>
      <point x="173" y="849" type="line"/>
      <point x="190" y="974" type="line"/>
      <point x="737" y="974" type="line"/>
      <point x="734" y="949" type="line"/>
      <point x="462" y="548" type="line"/>
      <point x="461" y="538" type="line"/>
      <point x="519" y="526"/>
      <point x="614" y="457"/>
      <point x="680" y="351"/>
      <point x="716" y="212"/>
      <point x="716" y="130" type="qcurve" name="dh02"/>
      <point x="716" y="7"/>
      <point x="650" y="-217"/>
      <point x="533" y="-388"/>
      <point x="374" y="-490"/>
      <point x="283" y="-490" type="qcurve" name="ab01"/>
      <point x="236" y="-490"/>
      <point x="154" y="-463"/>
      <point x="86" y="-420"/>
      <point x="35" y="-364"/>
      <point x="17" y="-335" type="qcurve"/>
      <point x="93" y="-233" type="line"/>
      <point x="101" y="-254"/>
      <point x="133" y="-308"/>
      <point x="180" y="-355"/>
      <point x="243" y="-388"/>
      <point x="281" y="-388" type="qcurve" name="sv01"/>
      <point x="323" y="-388"/>
      <point x="401" y="-348"/>
      <point x="469" y="-277"/>
      <point x="525" y="-180"/>
      <point x="566" y="-66"/>
      <point x="587" y="59"/>
      <point x="587" y="123" type="qcurve" name="dh01"/>
      <point x="587" y="192"/>
      <point x="560" y="308"/>
      <point x="509" y="394"/>
      <point x="437" y="442"/>
      <point x="391" y="442" type="qcurve"/>
      <point x="364" y="442"/>
      <point x="299" y="431"/>
      <point x="274" y="420" type="qcurve"/>
    </contour>
  </outline>
</glyph>
<glyph name="uni0297" format="2">
  <advance width="768"/>
  <unicode hex="0297"/>
  <guideline x="722" y="0" angle="80"/>
  <outline>
    <contour>
      <point x="804" y="1207" type="line" name="iv01"/>
      <point x="797" y="1228"/>
      <point x="765" y="1282"/>
      <point x="716" y="1329"/>
      <point x="653" y="1362"/>
      <point x="615" y="1362" type="qcurve" name="sv01"/>
      <point x="561" y="1362"/>
      <point x="462" y="1297"/>
      <point x="383" y="1184"/>
      <point x="326" y="1033"/>
      <point x="315" y="947" type="qcurve"/>
      <point x="254" y="483" type="line" name="sh01"/>
      <point x="248" y="433"/>
      <point x="248" y="387" type="qcurve" name="dh02"/>
      <point x="248" y="319"/>
      <point x="275" y="203"/>
      <point x="326" y="119"/>
      <point x="398" y="72"/>
      <point x="444" y="72" type="qcurve" name="sv02"/>
      <point x="482" y="72"/>
      <point x="550" y="105"/>
      <point x="605" y="152"/>
      <point x="647" y="206"/>
      <point x="660" y="227" type="qcurve" name="iv02"/>
      <point x="737" y="125" type="line"/>
      <point x="713" y="96"/>
      <point x="650" y="41"/>
      <point x="572" y="-3"/>
      <point x="482" y="-30"/>
      <point x="431" y="-30" type="qcurve" name="ab01"/>
      <point x="360" y="-30"/>
      <point x="245" y="31"/>
      <point x="164" y="140"/>
      <point x="119" y="291"/>
      <point x="119" y="382" type="qcurve" name="dh01"/>
      <point x="119" y="431"/>
      <point x="125" y="484" type="qcurve" name="sh02"/>
      <point x="186" y="947" type="line"/>
      <point x="200" y="1058"/>
      <point x="279" y="1248"/>
      <point x="395" y="1386"/>
      <point x="543" y="1464"/>
      <point x="629" y="1464" type="qcurve" name="at01"/>
      <point x="671" y="1464"/>
      <point x="749" y="1436"/>
      <point x="813" y="1392"/>
      <point x="863" y="1337"/>
      <point x="879" y="1309" type="qcurve"/>
    </contour>
  </outline>
</glyph>
<glyph name="uni0298" format="2">
  <advance width="1080"/>
  <unicode hex="0298"/>
  <guideline x="0" y="717" angle="0"/>
  <guideline x="540" y="0" angle="90"/>
  <outline>
    <contour>
      <point x="734" y="1464" type="qcurve" name="at01"/>
      <point x="819" y="1464"/>
      <point x="962" y="1385"/>
      <point x="1067" y="1237"/>
      <point x="1125" y="1024"/>
      <point x="1125" y="890" type="qcurve" name="dh06"/>
      <point x="1125" y="779"/>
      <point x="1087" y="557"/>
      <point x="1014" y="352"/>
      <point x="911" y="175"/>
      <point x="779" y="45"/>
      <point x="624" y="-30"/>
      <point x="536" y="-30" type="qcurve" name="ab01"/>
      <point x="451" y="-30"/>
      <point x="308" y="49"/>
      <point x="203" y="197"/>
      <point x="144" y="409"/>
      <point x="144" y="543" type="qcurve" name="dh01"/>
      <point x="144" y="654"/>
      <point x="182" y="877"/>
      <point x="254" y="1081"/>
      <point x="359" y="1259"/>
      <point x="489" y="1389"/>
      <point x="645" y="1464"/>
    </contour>
    <contour>
      <point x="273" y="540" type="qcurve" name="dh02"/>
      <point x="273" y="424"/>
      <point x="317" y="249"/>
      <point x="392" y="131"/>
      <point x="493" y="72"/>
      <point x="549" y="72" type="qcurve" name="sv01"/>
      <point x="604" y="72"/>
      <point x="713" y="130"/>
      <point x="812" y="237"/>
      <point x="897" y="387"/>
      <point x="960" y="570"/>
      <point x="996" y="780"/>
      <point x="996" y="894" type="qcurve" name="dh05"/>
      <point x="996" y="1010"/>
      <point x="952" y="1185"/>
      <point x="877" y="1303"/>
      <point x="776" y="1362"/>
      <point x="720" y="1362" type="qcurve" name="sv02"/>
      <point x="665" y="1362"/>
      <point x="557" y="1304"/>
      <point x="458" y="1197"/>
      <point x="372" y="1047"/>
      <point x="309" y="864"/>
      <point x="273" y="654"/>
    </contour>
    <contour>
      <point x="548" y="718" type="qcurve" name="dh03"/>
      <point x="548" y="766"/>
      <point x="599" y="834"/>
      <point x="635" y="834" type="qcurve" name="dv02"/>
      <point x="671" y="834"/>
      <point x="722" y="766"/>
      <point x="722" y="718" type="qcurve" name="dh04"/>
      <point x="722" y="669"/>
      <point x="671" y="602"/>
      <point x="635" y="602" type="qcurve" name="dv01"/>
      <point x="599" y="602"/>
      <point x="548" y="669"/>
    </contour>
  </outline>
</glyph>
<glyph name="uni029D" format="2">
  <advance width="552"/>
  <unicode hex="029D"/>
  <outline>
    <contour>
      <point x="413" y="974" type="line"/>
      <point x="517" y="1004" type="line"/>
      <point x="539" y="1004" type="line"/>
      <point x="397" y="-72" type="line"/>
      <point x="512" y="-72" type="line"/>
      <point x="499" y="-174" type="line"/>
      <point x="378" y="-174" type="line"/>
      <point x="370" y="-227"/>
      <point x="329" y="-338"/>
      <point x="263" y="-431"/>
      <point x="175" y="-490"/>
      <point x="119" y="-490" type="qcurve"/>
      <point x="91" y="-490"/>
      <point x="43" y="-464"/>
      <point x="8" y="-418"/>
      <point x="-11" y="-355"/>
      <point x="-11" y="-318" type="qcurve"/>
      <point x="-11" y="-260"/>
      <point x="20" y="-169"/>
      <point x="72" y="-106"/>
      <point x="139" y="-72"/>
      <point x="175" y="-72" type="qcurve"/>
      <point x="275" y="-72" type="line"/>
    </contour>
    <contour>
      <point x="262" y="-174" type="line"/>
      <point x="161" y="-174" type="line"/>
      <point x="141" y="-174"/>
      <point x="107" y="-193"/>
      <point x="81" y="-226"/>
      <point x="66" y="-272"/>
      <point x="66" y="-300" type="qcurve"/>
      <point x="66" y="-318"/>
      <point x="78" y="-350"/>
      <point x="98" y="-374"/>
      <point x="124" y="-388"/>
      <point x="139" y="-388" type="qcurve"/>
      <point x="155" y="-388"/>
      <point x="193" y="-363"/>
      <point x="227" y="-315"/>
      <point x="253" y="-244"/>
      <point x="259" y="-197" type="qcurve"/>
    </contour>
    <contour>
      <point x="450" y="1338" type="qcurve"/>
      <point x="450" y="1378"/>
      <point x="492" y="1434"/>
      <point x="522" y="1434" type="qcurve"/>
      <point x="552" y="1434"/>
      <point x="594" y="1378"/>
      <point x="594" y="1338" type="qcurve"/>
      <point x="594" y="1298"/>
      <point x="552" y="1242"/>
      <point x="522" y="1242" type="qcurve"/>
      <point x="492" y="1242"/>
      <point x="450" y="1298"/>
    </contour>
  </outline>
</glyph>
<glyph name="uni029E" format="2">
  <advance width="768"/>
  <unicode hex="029E"/>
  <outline>
    <contour>
      <point x="661" y="974" type="line" name="hr00"/>
      <point x="764" y="1004" type="line" name="at01"/>
      <point x="787" y="1004" type="line"/>
      <point x="593" y="-460" type="line"/>
      <point x="490" y="-490" type="line" name="ab01"/>
      <point x="467" y="-490" type="line"/>
      <point x="589" y="428" type="line"/>
      <point x="581" y="428" type="line"/>
      <point x="185" y="-30" type="line"/>
      <point x="94" y="0" type="line" name="iv01"/>
      <point x="451" y="403" type="line"/>
      <point x="140" y="974" type="line" name="iv02"/>
      <point x="282" y="1004" type="line" name="at02"/>
      <point x="526" y="497" type="line"/>
      <point x="533" y="497" type="line"/>
      <point x="609" y="584" type="line"/>
    </contour>
  </outline>
</glyph>
<glyph name="uni02A1" format="2">
  <advance width="768"/>
  <unicode hex="02A1"/>
  <outline>
    <contour>
      <point x="215" y="487" type="line"/>
      <point x="368" y="487" type="line"/>
      <point x="395" y="687" type="line"/>
      <point x="432" y="687" type="line"/>
      <point x="497" y="687"/>
      <point x="602" y="752"/>
      <point x="676" y="859"/>
      <point x="716" y="999"/>
      <point x="716" y="1074" type="qcurve"/>
      <point x="716" y="1127"/>
      <point x="692" y="1230"/>
      <point x="645" y="1312"/>
      <point x="575" y="1362"/>
      <point x="529" y="1362" type="qcurve"/>
      <point x="493" y="1362"/>
      <point x="430" y="1338"/>
      <point x="374" y="1297"/>
      <point x="326" y="1240"/>
      <point x="305" y="1207" type="qcurve"/>
      <point x="229" y="1309" type="line"/>
      <point x="256" y="1340"/>
      <point x="320" y="1396"/>
      <point x="396" y="1439"/>
      <point x="488" y="1464"/>
      <point x="542" y="1464" type="qcurve"/>
      <point x="617" y="1464"/>
      <point x="730" y="1401"/>
      <point x="806" y="1295"/>
      <point x="845" y="1155"/>
      <point x="845" y="1079" type="qcurve"/>
      <point x="845" y="965"/>
      <point x="780" y="788"/>
      <point x="680" y="663"/>
      <point x="558" y="592"/>
      <point x="502" y="585" type="qcurve"/>
      <point x="489" y="487" type="line"/>
      <point x="642" y="487" type="line"/>
      <point x="625" y="362" type="line"/>
      <point x="474" y="372" type="line"/>
      <point x="425" y="0" type="line"/>
      <point x="304" y="0" type="line"/>
      <point x="354" y="379" type="line"/>
      <point x="203" y="389" type="line"/>
    </contour>
  </outline>
</glyph>
<glyph name="uni02A3" format="2">
  <advance width="1296"/>
  <unicode hex="02A3"/>
  <outline>
    <contour>
      <point x="807" y="1464" type="line" name="hr00"/>
      <point x="910" y="1494" type="line" name="av01"/>
      <point x="932" y="1494" type="line"/>
      <point x="863" y="974" type="line" name="at02"/>
      <point x="1394" y="974" type="line"/>
      <point x="1391" y="949" type="line"/>
      <point x="832" y="105" type="line"/>
      <point x="830" y="95" type="line" name="iv01"/>
      <point x="1283" y="125" type="line"/>
      <point x="1266" y="0" type="line"/>
      <point x="689" y="0" type="line"/>
      <point x="664" y="22"/>
      <point x="640" y="94"/>
      <point x="640" y="142" type="qcurve"/>
      <point x="632" y="142" type="line"/>
      <point x="614" y="114"/>
      <point x="565" y="54" name="hr01"/>
      <point x="503" y="3"/>
      <point x="428" y="-30"/>
      <point x="382" y="-30" type="qcurve" name="ab01"/>
      <point x="328" y="-30"/>
      <point x="232" y="23"/>
      <point x="160" y="124"/>
      <point x="118" y="271"/>
      <point x="118" y="366" type="qcurve" name="dh01"/>
      <point x="118" y="446" name="hr02"/>
      <point x="149" y="603"/>
      <point x="203" y="745"/>
      <point x="279" y="866"/>
      <point x="370" y="954"/>
      <point x="472" y="1004"/>
      <point x="526" y="1004" type="qcurve" name="at01"/>
      <point x="558" y="1004"/>
      <point x="617" y="986"/>
      <point x="669" y="957"/>
      <point x="710" y="921"/>
      <point x="725" y="902" type="qcurve" name="sv01"/>
      <point x="733" y="902" type="line"/>
    </contour>
    <contour>
      <point x="717" y="785" type="line"/>
      <point x="706" y="806"/>
      <point x="672" y="848"/>
      <point x="627" y="881"/>
      <point x="570" y="902"/>
      <point x="536" y="902" type="qcurve" name="sv02"/>
      <point x="496" y="902"/>
      <point x="422" y="860"/>
      <point x="358" y="787"/>
      <point x="305" y="685"/>
      <point x="268" y="566"/>
      <point x="247" y="432"/>
      <point x="247" y="363" type="qcurve" name="dh02"/>
      <point x="247" y="285"/>
      <point x="275" y="174"/>
      <point x="323" y="104"/>
      <point x="385" y="72"/>
      <point x="418" y="72" type="qcurve" name="sv03"/>
      <point x="453" y="72"/>
      <point x="518" y="105"/>
      <point x="577" y="158"/>
      <point x="628" y="227"/>
      <point x="648" y="263" type="qcurve"/>
    </contour>
    <contour>
      <point x="757" y="172" type="line" name="iv02"/>
      <point x="1218" y="866" type="line"/>
      <point x="1220" y="876" type="line" name="sv04"/>
      <point x="847" y="850" type="line"/>
    </contour>
  </outline>
</glyph>
<glyph name="uni02A6" format="2">
  <advance width="936"/>
  <unicode hex="02A6"/>
  <outline>
    <contour>
      <point x="417" y="1322" type="line" name="av01"/>
      <point x="375" y="1004" type="line" name="at01"/>
      <point x="743" y="1004" type="line"/>
      <point x="779" y="1004"/>
      <point x="844" y="980"/>
      <point x="901" y="938"/>
      <point x="947" y="882"/>
      <point x="963" y="849" type="qcurve"/>
      <point x="887" y="747" type="line" name="ih01"/>
      <point x="877" y="778"/>
      <point x="846" y="834"/>
      <point x="806" y="877"/>
      <point x="758" y="902"/>
      <point x="730" y="902" type="qcurve" name="sv01"/>
      <point x="707" y="902"/>
      <point x="665" y="879"/>
      <point x="632" y="837"/>
      <point x="614" y="779"/>
      <point x="614" y="743" type="qcurve" name="dh04"/>
      <point x="614" y="683"/>
      <point x="665" y="605"/>
      <point x="722" y="576" type="qcurve"/>
      <point x="818" y="528"/>
      <point x="908" y="384"/>
      <point x="908" y="287" type="qcurve" name="dh06"/>
      <point x="908" y="210"/>
      <point x="866" y="92"/>
      <point x="790" y="12"/>
      <point x="685" y="-30"/>
      <point x="621" y="-30" type="qcurve" name="ab01"/>
      <point x="344" y="-30" type="line"/>
      <point x="287" y="-30"/>
      <point x="214" y="3"/>
      <point x="170" y="62"/>
      <point x="153" y="143"/>
      <point x="153" y="191" type="qcurve" name="dh01"/>
      <point x="153" y="217"/>
      <point x="158" y="284"/>
      <point x="164" y="326" type="qcurve" name="sh01"/>
      <point x="239" y="893" type="line" name="sv02"/>
      <point x="113" y="902" type="line" name="sv03"/>
      <point x="127" y="1004" type="line" name="at02"/>
      <point x="254" y="1004" type="line"/>
      <point x="291" y="1292" type="line"/>
      <point x="395" y="1322" type="line"/>
    </contour>
    <contour>
      <point x="635" y="72" type="line" name="sv04"/>
      <point x="664" y="72"/>
      <point x="718" y="93"/>
      <point x="761" y="135"/>
      <point x="786" y="201"/>
      <point x="786" y="246" type="qcurve" name="dh05"/>
      <point x="786" y="274"/>
      <point x="773" y="323"/>
      <point x="741" y="369"/>
      <point x="685" y="413"/>
      <point x="641" y="436" type="qcurve"/>
      <point x="614" y="450"/>
      <point x="560" y="499"/>
      <point x="518" y="566"/>
      <point x="492" y="652"/>
      <point x="492" y="703" type="qcurve" name="dh03"/>
      <point x="492" y="800"/>
      <point x="528" y="871" type="qcurve" name="ih02"/>
      <point x="359" y="885" type="line"/>
      <point x="281" y="297" type="line" name="sh02"/>
      <point x="275" y="249"/>
      <point x="275" y="211" type="qcurve" name="dh02"/>
      <point x="275" y="185"/>
      <point x="283" y="136"/>
      <point x="305" y="96"/>
      <point x="344" y="72"/>
      <point x="374" y="72" type="qcurve"/>
    </contour>
  </outline>
</glyph>
<glyph name="uni02A9" format="2">
  <advance width="1200"/>
  <unicode hex="02A9"/>
  <outline>
    <contour>
      <point x="773" y="-388" type="line" name="sv01"/>
      <point x="849" y="-388"/>
      <point x="931" y="-273"/>
      <point x="946" y="-163" type="qcurve"/>
      <point x="1059" y="687" type="line" name="sh01"/>
      <point x="1064" y="718"/>
      <point x="1064" y="747" type="qcurve" name="dh01"/>
      <point x="1064" y="822"/>
      <point x="1004" y="902"/>
      <point x="946" y="902" type="qcurve"/>
      <point x="875" y="902"/>
      <point x="751" y="797"/>
      <point x="689" y="697" type="qcurve"/>
      <point x="598" y="0" type="line" name="ab01"/>
      <point x="476" y="0" type="line"/>
      <point x="591" y="873" type="line"/>
      <point x="427" y="886" type="line"/>
      <point x="310" y="0" type="line" name="ab02"/>
      <point x="188" y="0" type="line"/>
      <point x="306" y="893" type="line"/>
      <point x="181" y="902" type="line"/>
      <point x="194" y="1004" type="line"/>
      <point x="321" y="1004" type="line"/>
      <point x="335" y="1135"/>
      <point x="406" y="1321"/>
      <point x="512" y="1439"/>
      <point x="651" y="1494"/>
      <point x="736" y="1494" type="qcurve" name="av01"/>
      <point x="722" y="1392" type="line"/>
      <point x="671" y="1392"/>
      <point x="581" y="1356"/>
      <point x="510" y="1278"/>
      <point x="461" y="1154"/>
      <point x="443" y="1004" type="qcurve"/>
      <point x="730" y="1004" type="line"/>
      <point x="708" y="837" type="line"/>
      <point x="716" y="837" type="line"/>
      <point x="782" y="925"/>
      <point x="908" y="1004"/>
      <point x="977" y="1004" type="qcurve"/>
      <point x="1025" y="1004"/>
      <point x="1103" y="972"/>
      <point x="1157" y="911"/>
      <point x="1187" y="823"/>
      <point x="1187" y="767" type="qcurve" name="dh02"/>
      <point x="1187" y="753"/>
      <point x="1185" y="723"/>
      <point x="1183" y="707" type="qcurve" name="sh02"/>
      <point x="1080" y="-69" type="line"/>
      <point x="1066" y="-175"/>
      <point x="1016" y="-333"/>
      <point x="939" y="-438"/>
      <point x="832" y="-490"/>
      <point x="760" y="-490" type="qcurve" name="ab03"/>
    </contour>
  </outline>
</glyph>
<glyph name="uni02AA" format="2">
  <advance width="936"/>
  <unicode hex="02AA"/>
  <outline>
    <contour>
      <point x="443" y="1494" type="line"/>
      <point x="274" y="219" type="line"/>
      <point x="269" y="184"/>
      <point x="269" y="156" type="qcurve"/>
      <point x="269" y="115"/>
      <point x="293" y="72"/>
      <point x="320" y="72" type="qcurve"/>
      <point x="617" y="72" type="line"/>
      <point x="700" y="72"/>
      <point x="783" y="170"/>
      <point x="783" y="256" type="qcurve"/>
      <point x="783" y="311"/>
      <point x="716" y="395"/>
      <point x="638" y="436" type="qcurve"/>
      <point x="611" y="450"/>
      <point x="557" y="499"/>
      <point x="515" y="566"/>
      <point x="489" y="652"/>
      <point x="489" y="703" type="qcurve"/>
      <point x="489" y="776"/>
      <point x="527" y="888"/>
      <point x="595" y="964"/>
      <point x="686" y="1004"/>
      <point x="740" y="1004" type="qcurve"/>
      <point x="776" y="1004"/>
      <point x="841" y="980"/>
      <point x="898" y="938"/>
      <point x="944" y="882"/>
      <point x="960" y="849" type="qcurve"/>
      <point x="884" y="747" type="line"/>
      <point x="874" y="778"/>
      <point x="843" y="834"/>
      <point x="803" y="877"/>
      <point x="755" y="902"/>
      <point x="727" y="902" type="qcurve"/>
      <point x="701" y="902"/>
      <point x="659" y="876"/>
      <point x="628" y="832"/>
      <point x="611" y="774"/>
      <point x="611" y="743" type="qcurve"/>
      <point x="611" y="709"/>
      <point x="629" y="656"/>
      <point x="659" y="616"/>
      <point x="698" y="586"/>
      <point x="719" y="575" type="qcurve"/>
      <point x="812" y="527"/>
      <point x="905" y="392"/>
      <point x="905" y="297" type="qcurve"/>
      <point x="905" y="217"/>
      <point x="863" y="95"/>
      <point x="785" y="12"/>
      <point x="673" y="-30"/>
      <point x="603" y="-30" type="qcurve"/>
      <point x="266" y="-30" type="line"/>
      <point x="209" y="-30"/>
      <point x="147" y="52"/>
      <point x="147" y="142" type="qcurve"/>
      <point x="147" y="161"/>
      <point x="150" y="203"/>
      <point x="153" y="226" type="qcurve"/>
      <point x="317" y="1464" type="line"/>
      <point x="419" y="1494" type="line"/>
    </contour>
  </outline>
</glyph>
<glyph name="uni02AC" format="2">
  <advance width="720"/>
  <unicode hex="02AC"/>
  <outline>
    <contour>
      <point x="735" y="584" type="line" name="hr00"/>
      <point x="516" y="0" type="line" name="ab01"/>
      <point x="461" y="0" type="line"/>
      <point x="416" y="407" type="line" name="hr01"/>
      <point x="411" y="407" type="line" name="iv01"/>
      <point x="259" y="0" type="line" name="ab02"/>
      <point x="204" y="0" type="line"/>
      <point x="138" y="584" type="line" name="hr02"/>
      <point x="219" y="602" type="line" name="hr03"/>
      <point x="264" y="161" type="line"/>
      <point x="269" y="161" type="line" name="iv02"/>
      <point x="422" y="584" type="line"/>
      <point x="478" y="584" type="line"/>
      <point x="521" y="161" type="line"/>
      <point x="526" y="161" type="line" name="iv03"/>
      <point x="688" y="602" type="line"/>
    </contour>
    <contour>
      <point x="849" y="1446" type="line" name="at03"/>
      <point x="629" y="862" type="line"/>
      <point x="575" y="862" type="line"/>
      <point x="530" y="1269" type="line"/>
      <point x="525" y="1269" type="line" name="iv04"/>
      <point x="372" y="862" type="line"/>
      <point x="317" y="862" type="line"/>
      <point x="252" y="1446" type="line" name="at04"/>
      <point x="333" y="1464" type="line" name="at01"/>
      <point x="378" y="1023" type="line"/>
      <point x="383" y="1023" type="line" name="iv05"/>
      <point x="536" y="1446" type="line" name="at05"/>
      <point x="592" y="1446" type="line"/>
      <point x="635" y="1023" type="line"/>
      <point x="640" y="1023" type="line" name="iv06"/>
      <point x="802" y="1464" type="line" name="at02"/>
    </contour>
  </outline>
</glyph>
<glyph name="circumflex" format="2">
  <advance width="576"/>
  <unicode hex="02C6"/>
  <outline>
    <contour>
      <point x="671" y="1249" type="line"/>
      <point x="591" y="1219" type="line"/>
      <point x="479" y="1434" type="line"/>
      <point x="472" y="1434" type="line"/>
      <point x="303" y="1219" type="line"/>
      <point x="231" y="1249" type="line"/>
      <point x="428" y="1537" type="line"/>
      <point x="550" y="1537" type="line"/>
    </contour>
  </outline>
</glyph>
<glyph name="uni02C8" format="2">
  <advance width="576"/>
  <unicode hex="02C8"/>
  <outline>
    <contour>
      <point x="370" y="912" type="line"/>
      <point x="450" y="1516" type="line"/>
      <point x="527" y="1516" type="line"/>
      <point x="446" y="912" type="line"/>
    </contour>
  </outline>
</glyph>
<glyph name="uni02D1" format="2">
  <advance width="576"/>
  <unicode hex="02D1"/>
  <guideline x="401" y="0" angle="90"/>
  <guideline x="176" y="0" angle="90"/>
  <guideline x="288" y="0" angle="90"/>
  <outline>
    <contour>
      <point x="436" y="270" type="line" name="av01"/>
      <point x="284" y="-30" type="line" name="ab01"/>
      <point x="211" y="270" type="line"/>
    </contour>
  </outline>
</glyph>
<glyph name="breve" format="2">
  <advance width="576"/>
  <unicode hex="02D8"/>
  <outline>
    <contour>
      <point x="320" y="1464" type="line"/>
      <point x="320" y="1434"/>
      <point x="344" y="1375"/>
      <point x="386" y="1328"/>
      <point x="443" y="1298"/>
      <point x="478" y="1298" type="qcurve"/>
      <point x="512" y="1298"/>
      <point x="570" y="1328"/>
      <point x="612" y="1375"/>
      <point x="636" y="1434"/>
      <point x="636" y="1464" type="qcurve"/>
      <point x="698" y="1464" type="line"/>
      <point x="698" y="1405"/>
      <point x="665" y="1300"/>
      <point x="606" y="1222"/>
      <point x="526" y="1176"/>
      <point x="479" y="1176" type="qcurve"/>
      <point x="431" y="1176"/>
      <point x="350" y="1222"/>
      <point x="291" y="1300"/>
      <point x="258" y="1405"/>
      <point x="258" y="1464" type="qcurve"/>
    </contour>
  </outline>
</glyph>
<glyph name="dotaccent" format="2">
  <advance width="576"/>
  <unicode hex="02D9"/>
  <outline>
    <contour>
      <point x="385" y="1272" type="qcurve"/>
      <point x="385" y="1312"/>
      <point x="427" y="1368"/>
      <point x="457" y="1368" type="qcurve"/>
      <point x="487" y="1368"/>
      <point x="529" y="1312"/>
      <point x="529" y="1272" type="qcurve"/>
      <point x="529" y="1232"/>
      <point x="487" y="1176"/>
      <point x="457" y="1176" type="qcurve"/>
      <point x="427" y="1176"/>
      <point x="385" y="1232"/>
    </contour>
  </outline>
</glyph>
<glyph name="ring" format="2">
  <advance width="576"/>
  <unicode hex="02DA"/>
  <outline>
    <contour>
      <point x="382" y="1325" type="qcurve"/>
      <point x="382" y="1302"/>
      <point x="395" y="1263"/>
      <point x="416" y="1234"/>
      <point x="446" y="1217"/>
      <point x="463" y="1217" type="qcurve"/>
      <point x="479" y="1217"/>
      <point x="509" y="1234"/>
      <point x="531" y="1263"/>
      <point x="544" y="1302"/>
      <point x="544" y="1325" type="qcurve"/>
      <point x="544" y="1347"/>
      <point x="531" y="1387"/>
      <point x="509" y="1417"/>
      <point x="479" y="1434"/>
      <point x="463" y="1434" type="qcurve"/>
      <point x="446" y="1434"/>
      <point x="416" y="1417"/>
      <point x="395" y="1387"/>
      <point x="382" y="1347"/>
    </contour>
    <contour>
      <point x="320" y="1325" type="qcurve"/>
      <point x="320" y="1364"/>
      <point x="343" y="1433"/>
      <point x="381" y="1486"/>
      <point x="434" y="1516"/>
      <point x="463" y="1516" type="qcurve"/>
      <point x="492" y="1516"/>
      <point x="545" y="1486"/>
      <point x="583" y="1433"/>
      <point x="605" y="1364"/>
      <point x="605" y="1325" type="qcurve"/>
      <point x="605" y="1286"/>
      <point x="583" y="1217"/>
      <point x="545" y="1165"/>
      <point x="492" y="1135"/>
      <point x="463" y="1135" type="qcurve"/>
      <point x="434" y="1135"/>
      <point x="381" y="1165"/>
      <point x="343" y="1217"/>
      <point x="320" y="1286"/>
    </contour>
  </outline>
</glyph>
<glyph name="tilde" format="2">
  <advance width="576"/>
  <unicode hex="02DC"/>
  <guideline x="520" y="0" angle="80"/>
  <outline>
    <contour>
      <point x="353" y="1434" type="qcurve" name="at01"/>
      <point x="389" y="1434"/>
      <point x="445" y="1390"/>
      <point x="494" y="1336"/>
      <point x="541" y="1292"/>
      <point x="566" y="1292" type="qcurve" name="dv02"/>
      <point x="599" y="1292"/>
      <point x="632" y="1371"/>
      <point x="632" y="1434" type="qcurve" name="at02"/>
      <point x="708" y="1434" type="line" name="dh02"/>
      <point x="708" y="1375"/>
      <point x="688" y="1281"/>
      <point x="650" y="1215"/>
      <point x="598" y="1180"/>
      <point x="566" y="1180" type="qcurve" name="dv01"/>
      <point x="531" y="1180"/>
      <point x="476" y="1224"/>
      <point x="427" y="1278"/>
      <point x="380" y="1322"/>
      <point x="353" y="1322" type="qcurve" name="sv01"/>
      <point x="321" y="1322"/>
      <point x="288" y="1243"/>
      <point x="288" y="1180" type="qcurve" name="sv02"/>
      <point x="212" y="1180" type="line" name="dh01"/>
      <point x="212" y="1238"/>
      <point x="232" y="1332"/>
      <point x="269" y="1398"/>
      <point x="322" y="1434"/>
    </contour>
  </outline>
</glyph>
<glyph name="hungarumlaut" format="2">
  <advance width="576"/>
  <unicode hex="02DD"/>
  <guideline x="0" y="1169" angle="0"/>
  <guideline x="372" y="0" angle="90"/>
  <guideline x="288" y="0" angle="90"/>
  <outline>
    <contour>
      <point x="245" y="1194" type="line" name="hr00"/>
      <point x="373" y="1531" type="line"/>
      <point x="389" y="1537" type="line" name="av01"/>
      <point x="452" y="1485" type="line"/>
      <point x="457" y="1464" type="line"/>
      <point x="287" y="1159" type="line" name="av03"/>
    </contour>
    <contour>
      <point x="457" y="1194" type="line"/>
      <point x="585" y="1531" type="line" name="av02"/>
      <point x="602" y="1537" type="line"/>
      <point x="665" y="1485" type="line"/>
      <point x="669" y="1464" type="line"/>
      <point x="500" y="1159" type="line" name="av04"/>
    </contour>
  </outline>
</glyph>
<glyph name="toneextrahigh" format="2">
  <advance width="576"/>
  <unicode hex="02E5"/>
  <outline>
    <contour>
      <point x="407" y="0" type="line"/>
      <point x="583" y="1332" type="line"/>
      <point x="217" y="1332" type="line"/>
      <point x="230" y="1434" type="line"/>
      <point x="688" y="1434" type="line"/>
      <point x="499" y="0" type="line"/>
    </contour>
  </outline>
</glyph>
<glyph name="gravecomb" format="2">
  <unicode hex="0300"/>
  <anchor x="-400" y="1500" name="_AccentDefault"/>
  <outline>
    <contour>
      <point x="-63" y="1515" type="line"/>
      <point x="-338" y="1803" type="line"/>
      <point x="-338" y="1833" type="line"/>
      <point x="-276" y="1920" type="line"/>
      <point x="-254" y="1920" type="line"/>
      <point x="-20" y="1575" type="line"/>
    </contour>
  </outline>
</glyph>
<glyph name="acutecomb" format="2">
  <unicode hex="0301"/>
  <anchor x="-400" y="1500" name="_AccentDefault"/>
  <outline>
    <contour>
      <point x="-339" y="1575" type="line"/>
      <point x="-106" y="1920" type="line"/>
      <point x="-83" y="1920" type="line"/>
      <point x="-22" y="1833" type="line"/>
      <point x="-22" y="1803" type="line"/>
      <point x="-296" y="1515" type="line"/>
    </contour>
  </outline>
</glyph>
<glyph name="circumflexcomb" format="2">
  <unicode hex="0302"/>
  <anchor x="-400" y="1500" name="_AccentDefault"/>
  <outline>
    <contour>
      <point x="56" y="1632" type="line"/>
      <point x="-24" y="1602" type="line"/>
      <point x="-136" y="1817" type="line"/>
      <point x="-143" y="1817" type="line"/>
      <point x="-312" y="1602" type="line"/>
      <point x="-384" y="1632" type="line"/>
      <point x="-187" y="1920" type="line"/>
      <point x="-65" y="1920" type="line"/>
    </contour>
  </outline>
</glyph>
<glyph name="macroncomb" format="2">
  <unicode hex="0304"/>
  <anchor x="-400" y="1500" name="_AccentDefault"/>
  <outline>
    <contour>
      <point x="81" y="1779" type="line"/>
      <point x="65" y="1657" type="line"/>
      <point x="-395" y="1657" type="line"/>
      <point x="-380" y="1779" type="line"/>
    </contour>
  </outline>
</glyph>
<glyph name="brevecomb" format="2">
  <unicode hex="0306"/>
  <outline>
    <contour>
      <point x="-315" y="1920" type="line"/>
      <point x="-315" y="1890"/>
      <point x="-291" y="1831"/>
      <point x="-249" y="1784"/>
      <point x="-191" y="1754"/>
      <point x="-157" y="1754" type="qcurve"/>
      <point x="-122" y="1754"/>
      <point x="-65" y="1784"/>
      <point x="-23" y="1831"/>
      <point x="2" y="1890"/>
      <point x="2" y="1920" type="qcurve"/>
      <point x="63" y="1920" type="line"/>
      <point x="63" y="1861"/>
      <point x="30" y="1756"/>
      <point x="-29" y="1678"/>
      <point x="-109" y="1632"/>
      <point x="-156" y="1632" type="qcurve"/>
      <point x="-204" y="1632"/>
      <point x="-285" y="1678"/>
      <point x="-344" y="1756"/>
      <point x="-377" y="1861"/>
      <point x="-377" y="1920" type="qcurve"/>
    </contour>
  </outline>
</glyph>
<glyph name="dotaccentcomb" format="2">
  <unicode hex="0307"/>
  <guideline x="0" y="1351" angle="0"/>
  <anchor x="-400" y="1500" name="_AccentDefault"/>
  <outline>
    <contour>
      <point x="-229" y="1718" type="qcurve" name="dh01"/>
      <point x="-229" y="1758"/>
      <point x="-187" y="1814"/>
      <point x="-157" y="1814" type="qcurve" name="dv02"/>
      <point x="-127" y="1814"/>
      <point x="-85" y="1758"/>
      <point x="-85" y="1718" type="qcurve" name="dh02"/>
      <point x="-85" y="1678"/>
      <point x="-127" y="1622"/>
      <point x="-157" y="1622" type="qcurve" name="dv01"/>
      <point x="-187" y="1622"/>
      <point x="-229" y="1678"/>
    </contour>
  </outline>
</glyph>
<glyph name="dieresiscomb" format="2">
  <unicode hex="0308"/>
  <guideline x="-380" y="0" angle="90"/>
  <anchor x="-400" y="1500" name="_AccentDefault"/>
  <outline>
    <contour>
      <point x="-388" y="1718" type="qcurve" name="sh01"/>
      <point x="-388" y="1758"/>
      <point x="-346" y="1814"/>
      <point x="-316" y="1814" type="qcurve" name="dv02"/>
      <point x="-286" y="1814"/>
      <point x="-244" y="1758"/>
      <point x="-244" y="1718" type="qcurve" name="sh02"/>
      <point x="-244" y="1678"/>
      <point x="-286" y="1622"/>
      <point x="-316" y="1622" type="qcurve" name="dv01"/>
      <point x="-346" y="1622"/>
      <point x="-388" y="1678"/>
    </contour>
    <contour>
      <point x="-71" y="1718" type="qcurve" name="ah01"/>
      <point x="-71" y="1758"/>
      <point x="-29" y="1814"/>
      <point x="2" y="1814" type="qcurve" name="sv01"/>
      <point x="32" y="1814"/>
      <point x="74" y="1758"/>
      <point x="74" y="1718" type="qcurve" name="sh03"/>
      <point x="74" y="1678"/>
      <point x="32" y="1622"/>
      <point x="2" y="1622" type="qcurve" name="sv02"/>
      <point x="-29" y="1622"/>
      <point x="-71" y="1678"/>
    </contour>
  </outline>
</glyph>
<glyph name="hookabovecomb" format="2">
  <unicode hex="0309"/>
  <anchor x="-400" y="1500" name="_AccentDefault"/>
  <outline>
    <contour>
      <point x="-221" y="1516" type="line" name="av01"/>
      <point x="-211" y="1598" type="line"/>
      <point x="-207" y="1627"/>
      <point x="-184" y="1670"/>
      <point x="-153" y="1705"/>
      <point x="-120" y="1736"/>
      <point x="-92" y="1771"/>
      <point x="-74" y="1813"/>
      <point x="-74" y="1842" type="qcurve" name="dh01"/>
      <point x="-74" y="1871"/>
      <point x="-101" y="1904"/>
      <point x="-125" y="1904" type="qcurve" name="dv01"/>
      <point x="-161" y="1904"/>
      <point x="-207" y="1845"/>
      <point x="-212" y="1803" type="qcurve"/>
      <point x="-273" y="1803" type="line"/>
      <point x="-269" y="1837"/>
      <point x="-242" y="1903"/>
      <point x="-200" y="1954"/>
      <point x="-141" y="1986"/>
      <point x="-105" y="1986" type="qcurve" name="dv02"/>
      <point x="-78" y="1986"/>
      <point x="-32" y="1965"/>
      <point x="0" y="1928"/>
      <point x="18" y="1877"/>
      <point x="18" y="1848" type="qcurve" name="dh02"/>
      <point x="18" y="1805"/>
      <point x="-5" y="1750"/>
      <point x="-40" y="1711"/>
      <point x="-82" y="1682"/>
      <point x="-120" y="1649"/>
      <point x="-149" y="1604"/>
      <point x="-153" y="1570" type="qcurve"/>
      <point x="-160" y="1516" type="line"/>
    </contour>
  </outline>
</glyph>
<glyph name="acutedblnosp" format="2">
  <unicode hex="030B"/>
  <outline>
    <contour>
      <point x="-370" y="1577" type="line"/>
      <point x="-242" y="1914" type="line"/>
      <point x="-225" y="1920" type="line"/>
      <point x="-162" y="1868" type="line"/>
      <point x="-158" y="1847" type="line"/>
      <point x="-327" y="1542" type="line"/>
    </contour>
    <contour>
      <point x="-158" y="1577" type="line"/>
      <point x="-29" y="1914" type="line"/>
      <point x="-13" y="1920" type="line"/>
      <point x="50" y="1868" type="line"/>
      <point x="55" y="1847" type="line"/>
      <point x="-115" y="1542" type="line"/>
    </contour>
  </outline>
</glyph>
<glyph name="haceknosp" format="2">
  <unicode hex="030C"/>
  <outline>
    <contour>
      <point x="-350" y="1890" type="line"/>
      <point x="-271" y="1920" type="line"/>
      <point x="-159" y="1705" type="line"/>
      <point x="-152" y="1705" type="line"/>
      <point x="17" y="1920" type="line"/>
      <point x="89" y="1890" type="line"/>
      <point x="-108" y="1602" type="line"/>
      <point x="-230" y="1602" type="line"/>
    </contour>
  </outline>
</glyph>
<glyph name="linevertnosp" format="2">
  <unicode hex="030D"/>
  <anchor x="-400" y="1500" name="_AccentDefault"/>
  <outline>
    <contour>
      <point x="-218" y="1544" type="line"/>
      <point x="-169" y="1920" type="line"/>
      <point x="-92" y="1920" type="line"/>
      <point x="-142" y="1544" type="line"/>
    </contour>
  </outline>
</glyph>
<glyph name="gravedblnosp" format="2">
  <unicode hex="030F"/>
  <anchor x="-400" y="1500" name="_AccentDefault"/>
  <outline>
    <contour>
      <point x="12" y="1542" type="line" name="av01"/>
      <point x="-158" y="1847" type="line"/>
      <point x="-153" y="1868" type="line"/>
      <point x="-90" y="1920" type="line" name="av03"/>
      <point x="-74" y="1914" type="line"/>
      <point x="55" y="1577" type="line"/>
    </contour>
    <contour>
      <point x="-200" y="1542" type="line" name="av02"/>
      <point x="-370" y="1847" type="line"/>
      <point x="-365" y="1868" type="line"/>
      <point x="-302" y="1920" type="line" name="av04"/>
      <point x="-286" y="1914" type="line"/>
      <point x="-158" y="1577" type="line"/>
    </contour>
  </outline>
</glyph>
<glyph name="commaturnsupnosp" format="2">
  <unicode hex="0312"/>
  <outline>
    <contour>
      <point x="-84" y="1629" type="line"/>
      <point x="-184" y="1516" type="line"/>
      <point x="-200" y="1516" type="line"/>
      <point x="-203" y="1520"/>
      <point x="-215" y="1542"/>
      <point x="-227" y="1575"/>
      <point x="-236" y="1620"/>
      <point x="-236" y="1646" type="qcurve"/>
      <point x="-236" y="1693"/>
      <point x="-212" y="1775"/>
      <point x="-174" y="1845"/>
      <point x="-125" y="1902"/>
      <point x="-98" y="1924" type="qcurve"/>
      <point x="-53" y="1865" type="line"/>
      <point x="-81" y="1841"/>
      <point x="-119" y="1771"/>
      <point x="-119" y="1727" type="qcurve"/>
      <point x="-119" y="1696"/>
      <point x="-95" y="1659"/>
      <point x="-82" y="1650" type="qcurve"/>
    </contour>
  </outline>
</glyph>
<glyph name="apostrophesupnosp" format="2">
  <unicode hex="0313"/>
  <anchor x="-400" y="1500" name="_AccentDefault"/>
  <outline>
    <contour>
      <point x="-228" y="1861" type="line"/>
      <point x="-143" y="1974" type="line"/>
      <point x="-128" y="1974" type="line"/>
      <point x="-124" y="1970"/>
      <point x="-106" y="1944"/>
      <point x="-86" y="1899"/>
      <point x="-72" y="1834"/>
      <point x="-72" y="1790" type="qcurve"/>
      <point x="-72" y="1745"/>
      <point x="-92" y="1664"/>
      <point x="-124" y="1595"/>
      <point x="-164" y="1538"/>
      <point x="-184" y="1516" type="qcurve"/>
      <point x="-228" y="1575" type="line"/>
      <point x="-221" y="1586"/>
      <point x="-203" y="1614"/>
      <point x="-188" y="1650"/>
      <point x="-179" y="1693"/>
      <point x="-179" y="1717" type="qcurve"/>
      <point x="-179" y="1744"/>
      <point x="-191" y="1786"/>
      <point x="-206" y="1817"/>
      <point x="-224" y="1837"/>
      <point x="-228" y="1841" type="qcurve"/>
    </contour>
  </outline>
</glyph>
<glyph name="commasuprightnosp" format="2">
  <unicode hex="0315"/>
  <anchor x="-250" y="1500" name="_AccentDefault"/>
  <outline>
    <contour>
      <point x="157" y="1861" type="line"/>
      <point x="242" y="1974" type="line"/>
      <point x="257" y="1974" type="line"/>
      <point x="261" y="1970"/>
      <point x="279" y="1944"/>
      <point x="299" y="1899"/>
      <point x="313" y="1834"/>
      <point x="313" y="1790" type="qcurve"/>
      <point x="313" y="1745"/>
      <point x="293" y="1664"/>
      <point x="261" y="1595"/>
      <point x="221" y="1538"/>
      <point x="201" y="1516" type="qcurve"/>
      <point x="157" y="1575" type="line"/>
      <point x="164" y="1586"/>
      <point x="182" y="1614"/>
      <point x="197" y="1650"/>
      <point x="206" y="1693"/>
      <point x="206" y="1717" type="qcurve"/>
      <point x="206" y="1744"/>
      <point x="194" y="1786"/>
      <point x="179" y="1817"/>
      <point x="161" y="1837"/>
      <point x="157" y="1841" type="qcurve"/>
    </contour>
  </outline>
</glyph>
<glyph name="acutesubnosp" format="2">
  <unicode hex="0317"/>
  <anchor x="-500" y="0" name="_AccentBelow"/>
  <outline>
    <contour>
      <point x="-599" y="-430" type="line"/>
      <point x="-366" y="-85" type="line"/>
      <point x="-344" y="-85" type="line"/>
      <point x="-282" y="-172" type="line"/>
      <point x="-282" y="-202" type="line"/>
      <point x="-557" y="-490" type="line"/>
    </contour>
  </outline>
</glyph>
<glyph name="tackleftsubnosp" format="2">
  <unicode hex="0318"/>
  <outline>
    <contour>
      <point x="-399" y="-224" type="line" name="hr00"/>
      <point x="-377" y="-60" type="line" name="av01"/>
      <point x="-301" y="-60" type="line"/>
      <point x="-358" y="-490" type="line" name="ab01"/>
      <point x="-434" y="-490" type="line"/>
      <point x="-413" y="-326" type="line"/>
      <point x="-521" y="-326" type="line"/>
      <point x="-507" y="-224" type="line"/>
    </contour>
  </outline>
</glyph>
<glyph name="anglesupnosp" format="2">
  <unicode hex="031A"/>
  <outline>
    <contour>
      <point x="84" y="1919" type="line" name="dv02"/>
      <point x="41" y="1580" type="line" name="av01"/>
      <point x="-36" y="1580" type="line"/>
      <point x="-5" y="1817" type="line" name="dv01"/>
      <point x="-359" y="1817" type="line"/>
      <point x="-346" y="1919" type="line"/>
    </contour>
  </outline>
</glyph>
<glyph name="ringlefthalfsubnosp" format="2">
  <unicode hex="031C"/>
  <anchor x="-500" y="0" name="_AccentBelow"/>
  <outline>
    <contour>
      <point x="-373" y="-490" type="line" name="ab01"/>
      <point x="-398" y="-484"/>
      <point x="-440" y="-450"/>
      <point x="-472" y="-400"/>
      <point x="-490" y="-338"/>
      <point x="-490" y="-303" type="qcurve" name="dh01"/>
      <point x="-490" y="-264"/>
      <point x="-467" y="-195"/>
      <point x="-429" y="-142"/>
      <point x="-377" y="-112"/>
      <point x="-347" y="-112" type="qcurve" name="av01"/>
      <point x="-335" y="-112"/>
      <point x="-322" y="-115" type="qcurve" name="av02"/>
      <point x="-334" y="-195" type="line"/>
      <point x="-338" y="-194"/>
      <point x="-344" y="-194"/>
      <point x="-347" y="-194" type="qcurve"/>
      <point x="-365" y="-194"/>
      <point x="-394" y="-211"/>
      <point x="-416" y="-241"/>
      <point x="-428" y="-281"/>
      <point x="-428" y="-303" type="qcurve" name="dh02"/>
      <point x="-428" y="-344"/>
      <point x="-390" y="-404"/>
      <point x="-361" y="-410" type="qcurve"/>
    </contour>
  </outline>
</glyph>
